<svg width="133" height="133" viewBox="0 0 133 133" fill="none" xmlns="http://www.w3.org/2000/svg">
<path d="M66.5 133C103.227 133 133 103.227 133 66.5C133 29.7731 103.227 0 66.5 0C29.7731 0 0 29.7731 0 66.5C0 103.227 29.7731 133 66.5 133Z" fill="#FDDA74"/>
<path d="M34.3053 72.5697C38.969 72.5697 42.7497 67.9619 42.7497 62.278C42.7497 56.5941 38.969 51.9863 34.3053 51.9863C29.6415 51.9863 25.8608 56.5941 25.8608 62.278C25.8608 67.9619 29.6415 72.5697 34.3053 72.5697Z" fill="#3C3C3B"/>
<path d="M20.5831 53.0418C20.3192 53.0418 19.7914 53.0418 19.5275 52.778C18.2081 52.2502 17.6803 50.6668 18.2081 49.3474C19.7914 45.3891 22.6942 42.4863 26.6525 40.903C30.6109 39.3196 34.8331 39.3196 38.5275 40.903C39.847 41.4307 40.3748 43.0141 39.847 44.3335C39.3192 45.653 37.7359 46.1807 36.4164 45.653C33.7775 44.5974 30.8748 44.5974 28.4998 45.653C25.8609 46.7085 24.0137 48.8196 22.9581 51.4585C22.6942 52.5141 21.6387 53.0418 20.5831 53.0418Z" fill="#3C3C3B"/>
<path d="M98.694 72.5697C103.358 72.5697 107.138 67.9619 107.138 62.278C107.138 56.5941 103.358 51.9863 98.694 51.9863C94.0302 51.9863 90.2495 56.5941 90.2495 62.278C90.2495 67.9619 94.0302 72.5697 98.694 72.5697Z" fill="#3C3C3B"/>
<path d="M112.416 53.0418C111.361 53.0418 110.305 52.5141 110.041 51.4585C108.986 48.8196 106.875 46.9724 104.5 45.653C101.861 44.5974 98.958 44.5974 96.583 45.653C95.2635 46.1807 93.6802 45.653 93.1524 44.3335C92.6247 43.0141 93.1524 41.4307 94.4719 40.903C98.4302 39.3196 102.652 39.3196 106.347 40.903C110.305 42.4863 113.208 45.653 114.791 49.3474C115.319 50.6668 114.791 52.2502 113.472 52.778C113.208 53.0418 112.68 53.0418 112.416 53.0418Z" fill="#3C3C3B"/>
<path d="M86.027 102.653C85.2353 102.653 84.4437 102.389 83.9159 101.597C79.4298 95.2641 72.3048 91.8336 64.652 91.8336C56.9992 91.8336 50.1381 95.2641 45.3881 101.597C44.5964 102.653 43.0131 102.917 41.6937 102.125C40.6381 101.334 40.3742 99.7502 41.1659 98.4308C46.7075 91.0419 55.4159 86.5558 64.652 86.5558C73.8881 86.5558 82.5964 91.0419 88.1381 98.4308C88.9298 99.4863 88.6659 101.334 87.6103 102.125C87.0826 102.389 86.5548 102.653 86.027 102.653Z" fill="#3C3C3B"/>
<path d="M109.513 131.153C100.541 131.153 94.4718 122.18 97.9023 114L109.513 84.7083L121.388 114C124.555 122.18 118.486 131.153 109.513 131.153Z" fill="#4F90FC"/>
</svg>
