<?xml version="1.0" encoding="utf-8"?>
<svg version="1.1" xmlns="http://www.w3.org/2000/svg" xmlns:xlink="http://www.w3.org/1999/xlink" x="0px"
	 y="0px" viewBox="0 0 230 350" style="enable-background:new 0 0 230 350;" xml:space="preserve">
<style type="text/css">
	.st0{fill:#FFFFFF;}
	.st1{display:none;}
	.st2{display:inline;fill:#EEBC4C;}
	.st3{display:inline;fill:#FFFFFF;}
	.st4{display:none;fill:#FFFFFF;}
	.st5{fill:#EEBC4C;}
	.st6{opacity:0.7;}

	.blured {
		animation: flash 2s infinite;
	}
	.blured:nth-of-type(2n+1) {
		animation-delay: 1s;
	}
	.blured:nth-of-type(3n+2) {
		animation-delay: 1.5s;
	}
	.blured:nth-of-type(5n+3) {
		animation-delay: 3s;
	}
	@keyframes flash {
		0%    {opacity: 1;}
		50%   {opacity: 0;}
		100%  {opacity: 1;}
	}
</style>
<filter id="blur">
	<feGaussianBlur stdDeviation="1"></feGaussianBlur>
</filter>
<g>
	<g>
		<path class="st0" d="M43.3,282.4c1.1,0.1,1.7,0.9,1.6,1.8c-0.1,1.3-1.1,2.1-2.3,2c-1.1-0.1-1.8-0.9-1.7-1.9
			C40.9,283.1,42,282.3,43.3,282.4z M44.3,283.9c0-0.6-0.4-0.9-1.1-0.9c-0.8,0-1.5,0.6-1.5,1.3c0,0.7,0.5,1.1,1.1,1.1
			C43.6,285.5,44.3,284.7,44.3,283.9z"/>
		<path class="st0" d="M73.8,287c-0.7-0.2-1.2-0.4-1.4-0.3c-0.4,0.1-0.6,0.6-0.9,0.9c0.3,0.1,0.7,0.4,1,0.4c0.3,0,0.6-0.2,1.3-0.5
			c-0.7,1.1-1.3,1.6-2.2,1.2c-0.4-0.2-0.8-0.8-0.9-1.2c-0.1-0.8,0.5-1.3,1.2-1.6C72.7,285.7,73.2,286,73.8,287z"/>
		<path class="st0" d="M8.4,274.4c0.8,0.9,0.2,1.6-0.3,2.2c-0.4,0.5-1,0.3-1.4-0.1c-0.6-0.6-0.6-1.3-0.2-2c0.4-0.6,1-0.9,1.7-0.6
			C8.3,273.9,8.4,274.3,8.4,274.4c-0.4,0.2-1,0.2-1.3,0.6c-0.3,0.3-0.2,0.9,0.7,1.1C8,275.5,8.2,275,8.4,274.4z"/>
		<path class="st0" d="M62.8,287.3c0.1,1.1-0.6,1.9-1.4,1.9c-0.6,0-1-0.3-1.1-1c-0.1-0.8,0.6-1.8,1.3-1.7
			C62.1,286.7,62.5,287.2,62.8,287.3z M61.5,288.6c0.3-0.4,0.5-0.6,0.6-0.9c0-0.1-0.3-0.3-0.5-0.5c-0.2,0.3-0.4,0.5-0.5,0.8
			C61,288.1,61.3,288.3,61.5,288.6z"/>
		<path class="st0" d="M6.3,283.3c-1,1.1-1.6,1.4-2.2,0.9c-0.3-0.3-0.6-0.9-0.5-1.2c0.2-0.5,0.7-0.9,1.2-1.1
			C5.4,281.6,5.7,282.1,6.3,283.3z M4.1,283.4c0.8,0.6,1.3,0.3,1.8-0.3C5.1,282.3,4.6,282.4,4.1,283.4z"/>
		<path class="st0" d="M30.1,239.7c0,0.8-0.6,1.5-1.3,1.5c-0.7,0-1.3-0.8-1.3-1.5c0-0.7,0.8-1.3,1.5-1.3
			C29.6,238.5,30.1,239,30.1,239.7z M28.7,240.5c0.7-0.2,1-0.6,0.7-1.2c-0.1-0.1-0.6-0.2-0.8-0.1C28,239.5,28.1,240,28.7,240.5z"/>
		<path class="st0" d="M15.7,281.2c-0.6,0.3-1.5,0.3-1.3,1.4c0.5-0.1,1-0.3,1.5-0.4c0,0.2,0,0.4-0.1,0.5c-0.5,0.7-1.1,1-1.9,0.4
			c-0.5-0.4-0.5-1-0.2-1.5C14.2,281,14.7,280.5,15.7,281.2z"/>
		<path class="st0" d="M78.2,272.1c0.3,0.8,0.6,1.5,1,2.3c-0.1,0-0.2,0.1-0.4,0.1C78.1,273.9,78,273.1,78.2,272.1z"/>
		<path class="st0" d="M53.4,288.9c-0.3-0.9-0.5-1.7-0.8-2.6c0.1,0,0.3-0.1,0.4-0.1c0.3,0.9,0.5,1.7,0.8,2.6
			C53.7,288.8,53.5,288.8,53.4,288.9z"/>
		<path class="st0" d="M51.8,286.2c-0.1,1.4-0.1,1.4-1.4,2.1C50.9,287.7,51.3,287,51.8,286.2z"/>
		<path class="st0" d="M205.3,241.2c0,0.7,0,1.4,0,2.4C204.5,242.6,204.6,241.9,205.3,241.2z"/>
		<path class="st0" d="M79.7,274.4c0.3-0.6,0.7-1.2,1-1.9c0.5,1-0.1,1.5-0.5,2.1C80,274.5,79.9,274.4,79.7,274.4z"/>
		<path class="st0" d="M52.3,284.6c-0.3-0.8-0.5-1.6-0.8-2.3c0.1,0,0.3-0.1,0.4-0.1c0.3,0.8,0.5,1.6,0.8,2.3
			C52.6,284.5,52.4,284.6,52.3,284.6z"/>
		<path class="st0" d="M205.7,243.7c0.5-0.9,1.2-1.2,2.1-1.5C207.2,243.2,207.2,243.2,205.7,243.7z"/>
		<path class="st0" d="M53,284.6c0.6-0.4,1.2-0.9,1.7-1.3c0.1,0.1,0.2,0.2,0.3,0.3c-0.4,0.6-1.2,0.9-1.7,1.4
			C53.2,284.8,53.1,284.7,53,284.6z"/>
		<path class="st0" d="M53.8,285.6c0.7-0.1,1.4,0,2.2,1.1c-1-0.3-1.6-0.4-2.3-0.6C53.8,285.9,53.8,285.8,53.8,285.6z"/>
		<path class="st0" d="M203.9,243.3c-0.4-0.4-0.9-0.7-1.3-1.1c0.1-0.1,0.2-0.2,0.3-0.4c0.5,0.3,0.9,0.7,1.4,1
			C204.1,243,204,243.2,203.9,243.3z"/>
		<path class="st0" d="M77.7,275.2c-0.6-0.1-1.2-0.3-1.8-0.4C76.7,274.3,77.3,274.3,77.7,275.2z"/>
		<path class="st0" d="M154.3,272.2c0.5-0.4,1.1-0.6,1.7-0.6c0,0.1,0.1,0.3,0.1,0.4c-0.6,0.2-1.1,0.4-1.7,0.6
			C154.4,272.5,154.4,272.4,154.3,272.2z"/>
		<path class="st0" d="M202.5,245.4c0.5-0.4,0.9-0.7,1.7-1.3c-0.2,1.3-0.9,1.3-1.4,1.7C202.7,245.6,202.6,245.5,202.5,245.4z"/>
		<path class="st0" d="M77.1,277.5c0.3-0.5,0.5-1,0.8-1.4c0.1,0.1,0.3,0.1,0.4,0.2c-0.2,0.5-0.5,1-0.7,1.5
			C77.5,277.7,77.3,277.6,77.1,277.5z"/>
		<path class="st0" d="M49.7,284.3c0.5,0.2,1,0.4,1.5,0.5c-0.7,0.4-1.3,0.3-1.8-0.2C49.5,284.5,49.6,284.4,49.7,284.3z"/>
		<path class="st0" d="M204.4,246.9c0.2-0.5,0.3-1.1,0.5-1.6c0.2,0,0.3,0.1,0.5,0.1c-0.1,0.5-0.3,1.1-0.4,1.6
			C204.7,247,204.6,246.9,204.4,246.9z"/>
		<path class="st0" d="M206.8,245.3c0.5,0.3,0.8,0.8,1,1.4c-0.1,0.1-0.3,0.2-0.4,0.2c-0.3-0.5-0.6-0.9-1-1.4
			C206.6,245.5,206.7,245.4,206.8,245.3z"/>
		<path class="st0" d="M81.9,276.8c-0.5-0.3-1-0.6-1.6-0.8c0.1-0.2,0.1-0.3,0.2-0.5c0.6,0.3,1.1,0.5,1.7,0.8
			C82.1,276.5,82,276.6,81.9,276.8z"/>
		<path class="st0" d="M79.4,278c0-0.6,0-1.1,0-1.7c0.1,0,0.2,0,0.3,0c0,0.5,0,1.1,0,1.6C79.6,277.9,79.5,278,79.4,278z"/>
		<g>
			<g class="st1">
				<path class="st2" d="M72.3,307.3c0.2-1.4,0.3-2.8,0.6-4.1c0.6-3.4,2.6-4.9,6-4.9c0.6,0,1.3,0,1.9,0.1c7.8,0.7,15.1,3.1,22.2,6.1
					c2.5,1,4.6,2.8,6.9,4.3c0.2,0.1,0.4,0.3,0.6,0.4c1.3-0.9,2.7-1.5,4.3-1.5c1.6,0,3,0.6,4.3,1.5c0.7-0.5,1.5-1,2.2-1.5
					c3.3-2.5,7-4.1,10.9-5.4c4.7-1.5,9.5-3.1,14.5-3.7c1.6-0.2,3.3-0.3,4.9-0.3c2.2,0,3.8,1.1,4.6,3.1c0.5,1.5,0.7,3.1,1,4.7
					c0.1,0.4,0.1,0.8,0.2,1.2c0,1.3,0,2.7,0,4c-0.2,1.4-0.3,2.7-0.6,4.1c-0.5,2.3-1.1,4.6-1.8,6.8c-0.7,2-2.3,3.1-4.4,3.3
					c-0.7,0.1-1.4,0.2-2.1,0.1c-3.2-0.5-6.5-0.7-9.6-1.6c-6.3-1.7-12.6-3.8-18.5-6.6c-0.5-0.2-0.8-0.3-1.3,0.1c-2.5,2-5.6,2-8.2,0.1
					c-0.6-0.4-1-0.4-1.6-0.2c-7,3.1-14.2,5.7-21.6,7.3c-2.3,0.5-4.8,0.8-7.1,0.8c-3.2,0.1-5-1.3-6.1-4.3c-0.4-1-0.7-2-0.9-3.1
					c-0.4-2.3-0.7-4.5-1.1-6.8C72.3,310,72.3,308.6,72.3,307.3z"/>
				<path class="st3" d="M115.1,316c-0.5,0.4-0.9,0.7-1.4,1.1c-0.3-0.7-0.6-1.3-0.9-2c-1.9,0.9-3.8,1.9-5.7,2.8
					c-6.6,3-13.2,5.9-20.3,7.6c-4.2,1-8.5,1.8-12.8,1.6c-1.6-0.1-3.3-0.4-4.8-0.8c-2.1-0.6-3.4-2.1-3.5-4.4c0-0.4-0.2-1-0.6-1.2
					c-2.7-2.5-2.8-5.5-1.5-8.7c0.5-1.2,1.2-2.3,2-3.2c1.3-1.6,2.7-3.1,4.1-4.6c2.4-2.5,5.3-3.8,8.6-4.3c3.6-0.5,7-0.1,10.5,0.7
					c6.7,1.6,13,4,18.7,7.9c1.5,1,2.8,2.1,4.2,3.2c0.3,0.2,0.6,0.5,1.1,0.8c0.3-0.9,0.5-1.7,0.8-2.5c1.4,0.4,0.9,1.6,1.4,2.4
					c0.3-0.2,0.7-0.4,0.9-0.7c6.4-5.6,13.6-9.8,22-11.6c7.6-1.6,14.6-0.3,20.9,4.4c2.5,1.9,4.6,4.2,5.6,7.2c1.8,5.6-0.7,10.9-6.2,13
					c-3,1.1-6,1.3-9.2,1.2c-5.5-0.2-10.6-1.8-15.8-3.5C127.4,320.1,121.3,318.1,115.1,316z M111.5,313.9c0.1-0.2,0.1-0.4,0.2-0.6
					c-1.4-0.6-2.8-1.3-4.3-1.9c-7-2.6-14.2-4.6-21.7-5.4c-2.1-0.2-4.3-0.3-6.3,0.1c-5.9,1.2-9.6,5.1-12,10.5
					c-0.6,1.3-0.3,2.2,0.5,3.1c1.9,2.1,4.4,3.3,7.2,3.6c3.9,0.5,7.9,0.4,11.8-0.5c7.3-1.6,14.3-4.3,21.2-7.3
					c0.4-0.2,0.8-0.4,1.2-0.6c-7.4,0.1-14.5,1.5-21.8,1.8c6.8-1.2,13.7-2.1,20.7-3c-2.3-0.8-4.5-1.4-6.8-1.9c-2.3-0.5-4.7-0.9-7-1.3
					c-2.3-0.4-4.5-0.7-6.8-1.1c0-0.1,0-0.3,0.1-0.4c1.6,0.2,3.2,0.3,4.9,0.6c1.6,0.2,3.3,0.5,4.9,0.8c1.6,0.3,3.2,0.6,4.8,1
					c1.6,0.4,3.2,0.8,4.8,1.2C108.5,312.9,109.9,313.7,111.5,313.9z M138.3,313.5c0,0.2,0,0.4,0,0.6c-6.7,0.4-13.3,0-20,0.7
					c0.3,0.2,0.6,0.4,1,0.5c7.5,1.7,15,3.5,22.6,5.2c3.3,0.7,6.5,0.5,9.7-0.6c3.9-1.3,6-4,6.5-8c0.6-4.3-2-8-6.3-8.7
					c-3-0.5-5.9-0.3-8.9,0.2c-7.8,1.3-14.9,4.4-21.7,8.2c-0.2,0.1-0.3,0.2-0.5,0.3c0.1,0.1,0.1,0.2,0.2,0.3
					c6.3-1.3,12.5-2.5,18.8-3.8c0,0.1,0.1,0.3,0.1,0.4c-7.2,1.8-14.5,2.9-21.6,5.2C124.9,313.8,131.6,313.7,138.3,313.5z
					 M161.9,308.4c0.2,0.6,0.2,1,0.4,1.4c1.3,4.5-1,9.2-5.4,10.8c-1.5,0.5-3,0.9-4.6,1c-2.3,0.2-4.6-0.1-6.9,0.1
					c-3.9,0.3-7.6-0.1-11.4-0.7c-0.4-0.1-0.8,0-1.2,0c2.5,1.1,5,2,7.5,2.6c4.5,1.2,9.2,1.8,13.9,1.3c2.7-0.3,5.2-1.1,7.3-3
					C165.3,318.5,165.6,312.1,161.9,308.4z M69.7,305.2c0.8-0.3,1.3-0.5,1.8-0.6c4.5-1.7,9.1-2.5,13.9-1.6c5,0.9,9.9,2.3,14.8,4
					c3.6,1.3,7,2.8,10.2,4.8c0.4,0.2,0.8,0.5,1.1,0.7c0.1-0.1,0.1-0.2,0.2-0.3c-1.3-1-2.5-2-3.9-2.9c-5.7-3.9-12.1-6.4-18.8-8.1
					c-3.6-0.9-7.2-1.4-10.8-0.7C75,301,72.2,302.4,69.7,305.2z M102.5,308.8c0-0.1,0-0.1,0.1-0.2c-0.4-0.2-0.7-0.4-1.1-0.5
					c-5-1.9-10.2-3.3-15.4-4.4c-5.4-1.1-10.6-0.2-15.6,2.1c-1.6,0.7-2.6,1.8-3,3.4c-0.5,1.9-0.8,3.8-1.1,5.7
					c-0.1,0.4,0.2,0.9,0.3,1.7c0.4-0.8,0.6-1.4,1-1.8c1.1-1.6,2.2-3.4,3.5-4.8c4-4.2,9-5.3,14.5-4.6c5.3,0.6,10.5,1.7,15.7,3.3
					C101.7,308.7,102.1,308.8,102.5,308.8z M151.6,320.9c0.5,0,0.9,0,1.4,0c3.3-0.4,6.2-1.6,8-4.7c2.2-4,0.6-8.9-3.8-10.9
					c1.1,2,1.9,3.9,1.7,6.1c-0.3,2.1-0.8,4.2-2.2,5.9C155.4,319,153.4,319.8,151.6,320.9z M66.5,321.7c-0.1,1.9,0.8,3,2.2,3.6
					c1.6,0.6,3.3,1,4.9,1.1c5.3,0.2,10.5-0.8,15.6-2.2c1.5-0.4,2.9-1,4.4-1.4c-0.4-0.3-0.7-0.2-1-0.2c-3.5,0.6-7,1.4-10.6,1.8
					C76.8,325.1,71.7,323.8,66.5,321.7z M156.1,303.8c0.1-0.1,0.1-0.2,0.2-0.3c-0.5-0.3-1-0.6-1.5-0.9c-5.4-2.9-11.1-3.2-17-1.9
					c-7.5,1.6-14,5.4-20,10.1c-0.2,0.1-0.3,0.3-0.4,0.5c0.2,0.1,0.3,0.1,0.3,0.1c0.5-0.3,0.9-0.6,1.4-0.9c8-5,16.4-8.7,25.9-9.5
					c3.3-0.3,6.4,0.3,9.3,1.9C154.9,303.2,155.5,303.5,156.1,303.8z M116.2,313.3c0,0.1,0.1,0.1,0.1,0.2c0.5-0.2,1-0.4,1.4-0.7
					c3.1-1.6,6.2-3.4,9.3-4.9c5.9-2.8,12-4.9,18.6-5.5c1.5-0.2,2.9-0.2,4.8-0.3c-0.5-0.2-0.6-0.3-0.8-0.3c-2.8-0.7-5.6-0.3-8.3,0.2
					c-8.7,1.6-16.6,5.3-23.9,10.3C117,312.7,116.6,313,116.2,313.3z M65.8,319.9c0.1-0.9,0.3-1.6,0.2-2.2c-0.6-2.7-0.3-5.3,0.4-7.9
					c0.1-0.3,0.1-0.6,0.1-1.1C63,312.8,62.7,317.3,65.8,319.9z M139.1,321c0-0.1,0-0.3,0-0.4c-5.5-1.2-11.1-2.4-16.6-3.7
					C127.8,319.6,133.4,320.3,139.1,321z M115.1,315.1c1.1,0.8,2.2,1.1,3.4,1.2C117.5,315.8,116.7,314.8,115.1,315.1z M66.6,319.6
					c0.1,1.4,0.1,1.4,1.9,1.8c-0.5-0.6-1-1.1-1.4-1.7C67,319.7,66.9,319.7,66.6,319.6z"/>
			</g>
			<path class="st4" d="M121.8,302.6c0.4-0.5,0.7-1,1.2-1.5c4.1-4.7,9.4-7.4,15.3-9.1c6.9-2,13.9-1.9,21-0.6
				c7.5,1.4,14.8,3.3,22.1,5.4c7.3,2.1,14.9,3.3,22.5,2.8c4.3-0.3,7.7-2.3,9.4-6.4c1.1-2.6,0.3-5.1-2-6.3c-2.2-1.1-5.2-0.3-6.6,1.9
				c-0.4,0.6-0.6,1.3-0.9,2c-0.2,0.3-0.6,0.5-0.8,0.5c-0.2-0.1-0.6-0.5-0.6-0.8c0-1.3,0.5-2.5,1.4-3.5c2.9-3.1,8.3-2.6,10.4,1.1
				c0.7,1.2,0.9,2.4,0.6,3.7c-0.8,4.7-5.5,9.3-10.2,10c-4.1,0.7-8.1,0.3-12.2-0.2c-5.8-0.8-11.4-2.3-17.1-3.9
				c-8.4-2.5-16.9-4.6-25.7-5.1c-7-0.4-13.7,0.9-19.8,4.5c-1.8,1.1-3.4,2.5-5.1,3.8c-0.8,0.7-1.6,1.4-2.4,2.1
				C122.1,302.9,122,302.8,121.8,302.6z"/>
			<path class="st4" d="M24.5,294.2c-0.4-0.5-0.8-1-1.2-1.5c-0.8-1.1-1.9-1.5-3.2-1.2c-1,0.2-2,0.5-2.9,1c-4.1,2-4.3,7.1-0.5,9.6
				c2.2,1.5,4.8,2.1,7.4,2.4c3.4,0.4,6.8-0.1,10.1-0.9c8.4-2.1,16.9-4.2,25.3-6.5c9.3-2.6,18.7-3.6,28.4-2.8c3.5,0.3,6.9,0.9,10.2,2
				c4,1.3,7,3.8,10,6.6c0.1,0.1,0.1,0.3,0.2,0.5c0,0,0,0.1-0.1,0.3c-0.3-0.1-0.6-0.1-0.9-0.3c-0.7-0.5-1.4-1-2-1.6
				c-3.4-3.1-7.5-4.6-12-5.3c-5.5-0.9-10.9-0.7-16.4-0.2c-8.2,0.7-16,3.1-23.9,5.1c-6.2,1.6-12.5,3.3-18.7,4.8
				c-4.4,1-8.8,1.2-13.2-0.2c-2-0.6-3.9-1.5-5.5-2.8c-4.6-3.8-3.4-10.4,2.1-12.4c0.9-0.3,1.8-0.5,2.7-0.6c2.2-0.3,4.1,0.9,4.9,3
				c0.1,0.3-0.1,0.7-0.1,1.1C24.8,294.1,24.6,294.2,24.5,294.2z"/>
			<path class="st4" d="M63.6,308.4c-1.5-0.2-3.1-0.5-4.7-0.6c-3.9-0.1-7.7,0.5-11.3,1.7c-6.9,2.1-13.7,4.4-20.5,6.5
				c-3.2,1-6.4,1.9-9.7,2.5c-4,0.7-7.9,0.2-11.5-1.7c-2.4-1.2-4.2-3.1-5.1-5.7c-1.2-3.4,0.5-7.2,3.7-8.5c2.5-1.1,4.3,1.1,4.5,2.8
				c0,0.3-0.3,0.6-0.5,1.1c-0.3-0.7-0.5-1.1-0.7-1.5c-0.8-1.5-2.2-1.9-3.7-0.9c-1.9,1.2-2.8,3.7-2.1,5.9c0.8,2.5,2.7,4,5,5
				c3.8,1.6,7.7,2,11.6,0.9c4.1-1.1,8.2-2.4,12.2-3.7c5.9-1.8,11.8-4,17.9-5.1c4.1-0.8,8.2-1.2,12.3-0.6c0.8,0.1,1.5,0.4,2.3,0.6
				c0.3,0.1,0.5,0.5,0.7,0.8C63.8,308.2,63.7,308.3,63.6,308.4z"/>
			<path class="st4" d="M162,305c0.2-1,1-1.1,1.8-1.3c2.1-0.5,4.2-0.2,6.3,0.2c5.8,1.2,11.4,3,16.9,5.2c5,2,10.1,3.5,15.5,4
				c6.9,0.6,13.6-0.2,19.8-3.5c1.4-0.8,2.8-1.8,4-2.9c1.3-1.2,2-2.7,2-4.5c0-1.5-0.5-2.7-1.7-3.7c-0.9-0.7-1.7-0.7-2.5-0.1
				c-0.9,0.8-1.2,1.7-0.7,2.7c0.1,0.2,0.3,0.4,0.5,0.7c-1.1,0.4-1.4-0.3-1.5-1c-0.3-1.2,0.4-2.1,1.2-2.9c0.8-0.7,1.8-1,2.9-0.5
				c2.6,1,4,3.9,3.3,6.8c-0.6,2.4-2.1,4.2-4,5.7c-3.2,2.3-6.9,3.6-10.7,4.5c-6.8,1.5-13.6,0.9-20.2-0.9c-2.8-0.8-5.4-1.8-8.2-2.6
				c-4.9-1.6-9.8-3.3-14.7-4.8c-3.1-1-6.3-1.6-9.5-0.8C162.2,305.2,162.1,305,162,305z"/>
			<path class="st0" d="M95.8,220.5c-1.1-0.5-1.2-1.2-0.6-1.8c2.4-2.9,6.7-2.3,8.2,0.5c1.8,3.5,0.3,8.2-3.4,9.9
				c-1.9,0.8-3.9,1.3-6,1.6c-2.2,0.3-4.5,0.3-6.7,0.4c-5.1,0.1-10.1,0.3-15,1.5c-1.7,0.4-3.3,0.9-4.9,1.5c-2,0.7-3.9,1.8-5.3,3.5
				c-0.2,0.2-0.5,0.4-0.9,0.6c-0.2-1,0.3-1.4,0.8-1.9c1.5-1.6,3.3-2.8,5.3-3.8c4.7-2.1,9.7-3.3,14.8-3.6c3-0.2,6-0.2,8.9-0.4
				c2.2-0.2,4.5-0.5,6.6-1.1c1.2-0.3,2.5-1.1,3.5-1.9c1.4-1.1,2.1-2.7,1.8-4.5c-0.3-1.7-1.3-2.7-2.8-2.9c-1.6-0.3-3.1,0.5-3.8,1.8
				C96.1,219.9,96,220.2,95.8,220.5z"/>
			<path class="st0" d="M165.8,231.1c-2.2-2.4-5.1-2.7-8-3c-6.8-0.9-13.5,0.4-20,2c-1.8,0.4-3.7,0.9-5.5,1.2c-2.3,0.4-4.6,0.1-6.7-1
				c-2.2-1.1-3.1-3.1-2.6-5.5c0.6-2.8,2.2-4.9,4.8-6.1c0.8-0.4,1.8-0.5,2.7-0.5c1.9,0,3,1.8,2.3,3.6c-0.1,0.1-0.3,0.2-0.6,0.4
				c-0.2-0.4-0.5-0.8-0.7-1.2c-0.3-1-1-1.3-1.9-1.3c-2.9-0.1-5.9,3.3-5.4,6.1c0.2,1.2,1,1.9,2,2.4c1.5,0.7,3.1,1,4.8,0.7
				c3.2-0.6,6.3-1.2,9.5-1.8c6.6-1.2,13.2-1.3,19.8,0.2c1.5,0.3,3,1,4.4,1.6C165.2,229.3,166,229.9,165.8,231.1z"/>
			<path class="st0" d="M142.2,280.4c-0.2,1.2-1,1.8-2,1.9c-1,0.1-1.9-0.7-1.9-1.6c0-0.9,1-2,2-2.1c0.7-0.1,1.1,0.2,2.1,1.3
				c-0.6-0.2-1-0.4-1.3-0.4c-0.4-0.1-0.9-0.1-1.2,0c-0.6,0.3-1,0.8-0.7,1.5c0.3,0.6,1,0.7,1.6,0.4
				C141.3,281.1,141.7,280.8,142.2,280.4z"/>
			<path class="st0" d="M106.6,97.8c-1.1,0-2-0.8-2.1-1.8c0-1.1,0.9-2.1,2-2.1c1.1-0.1,2.4,1,2.4,2
				C108.9,96.8,107.6,97.8,106.6,97.8z M108.4,95.9c0.1-0.6-0.7-1.3-1.4-1.4c-0.9-0.1-1.6,0.5-1.7,1.2c-0.1,0.7,0.4,1.2,1.2,1.3
				C107.2,97.2,108.3,96.5,108.4,95.9z"/>
			<path class="st0" d="M140.5,97c-0.7-0.5-1.3-1-2.1-0.3c-0.5,0.4-0.9,0.9-0.5,1.6c0.5,0.9,1.2,0,2,0.2c-0.7,0.7-1.3,1.1-2,0.6
				c-0.4-0.2-0.7-0.9-0.7-1.3c0-0.8,0.9-1.8,1.7-1.9C139.7,95.7,140,95.9,140.5,97z"/>
			<path class="st0" d="M101.5,288.8c-0.1,0.3-0.2,0.7-0.4,1c-0.5,0.7-1.4,0.9-2,0.5c-0.7-0.4-0.8-1.3-0.4-1.9
				c0.5-0.7,1.5-1.1,2.2-0.6C101.2,288,101.3,288.5,101.5,288.8c-0.5-0.1-1-0.3-1.5-0.4c-0.2,0-0.5,0.3-0.6,0.5
				c-0.1,0.1,0,0.5,0.2,0.6c0.2,0.1,0.6,0.2,0.8,0C100.8,289.4,101.1,289.1,101.5,288.8z"/>
			<path class="st0" d="M135.9,84.3c-0.7-0.3-1.4-1-2.1-0.2c-0.3,0.3-0.5,0.9-0.5,1.3c0.3,1.1,1.3,0.6,2.2,0.7
				c-1.3,0.7-2.2,0.6-2.7-0.3c-0.4-0.7,0-1.9,0.7-2.4C134.5,82.7,135.1,83,135.9,84.3z"/>
			<g>
				<g>
					<path class="st5" d="M151.6,130.3c0.1,0.9-0.6,1.6-1.5,1.7c-1,0.1-1.8-0.6-1.8-1.5c0-0.9,0.7-1.7,1.5-1.8
						C150.6,128.7,151.6,129.5,151.6,130.3z"/>
					<path class="st5" d="M55.8,231.8c0.1,0.8-0.7,1.5-1.5,1.5c-0.9,0-1.7-0.6-1.7-1.5c0-0.8,0.6-1.5,1.4-1.5
						C54.9,230.2,55.7,231,55.8,231.8z"/>
					<path class="st5" d="M115,226.7c0,0.8-0.7,1.4-1.6,1.4c-0.9,0-1.5-0.6-1.5-1.5c0-0.8,0.7-1.5,1.5-1.5
						C114.3,225.2,115,225.9,115,226.7z"/>
					<path class="st5" d="M156,142.8c-0.1,0.7-0.6,1-1.3,0.9c-1-0.1-1.9-0.9-1.8-1.7c0.1-0.7,0.8-1.3,1.5-1.3
						C155.1,140.8,156,141.9,156,142.8z"/>
					<path class="st5" d="M122.7,44.8c0.6,0,1.5,0.8,1.6,1.5c0.1,0.8-0.6,1.5-1.4,1.6c-0.7,0-1.4-0.6-1.5-1.4
						C121.3,45.7,122,44.8,122.7,44.8z"/>
					<path class="st5" d="M184.1,290.9c-0.1,0.6-0.9,1.1-1.7,1c-0.9-0.1-1.5-0.8-1.5-1.5c0.1-0.8,0.8-1.4,1.7-1.3
						C183.3,289.2,184.2,290.3,184.1,290.9z"/>
					<path class="st5" d="M73,224.8c0,0.7-0.7,1.4-1.6,1.5c-0.9,0.1-1.6-0.5-1.6-1.3c0-0.8,0.6-1.5,1.5-1.5
						C72.1,223.4,73,224.1,73,224.8z"/>
					<path class="st5" d="M195.5,279.9c-0.1,0.9-0.7,1.5-1.5,1.4c-0.8-0.1-1.4-0.9-1.2-1.7c0.1-0.8,0.9-1.4,1.7-1.3
						C195.2,278.4,195.6,279,195.5,279.9z"/>
					<path class="st5" d="M2.4,296.1c0.3,0.4,0.8,0.7,0.8,1.1c0.1,0.9-1.3,2-2.3,1.8c-0.4-0.1-0.8-0.4-0.9-0.7
						c-0.1-0.4,0.1-1,0.3-1.3C0.9,296.6,1.6,296.5,2.4,296.1z"/>
					<path class="st5" d="M132.2,176.8c-0.8,0-1.5-0.7-1.5-1.5c0-0.8,0.7-1.4,1.6-1.4c0.8,0,1.4,0.8,1.4,1.6
						C133.6,176.2,132.9,176.8,132.2,176.8z"/>
					<path class="st5" d="M126.1,261c0,0.7-0.5,1.1-1.3,1.2c-0.9,0-1.6-0.5-1.6-1.4c0-0.8,0.6-1.4,1.3-1.5
						C125.2,259.2,126.1,260.1,126.1,261z"/>
					<path class="st5" d="M177.9,224.4c0,0.7-0.8,1.5-1.5,1.5c-0.7,0-1.3-0.6-1.4-1.3c-0.1-0.8,0.5-1.4,1.3-1.5
						C177,223,177.9,223.7,177.9,224.4z"/>
					<path class="st5" d="M35.6,291.4c0,0.7-0.7,1.3-1.5,1.3c-0.8,0-1.5-0.8-1.4-1.5c0.1-0.7,0.8-1.3,1.6-1.2
						C35,290,35.6,290.6,35.6,291.4z"/>
					<path class="st5" d="M127.9,68.8c-0.8,0-1.4-0.7-1.4-1.4c0-0.7,0.8-1.4,1.6-1.4c0.8,0,1.3,0.6,1.3,1.4
						C129.4,68.2,128.8,68.8,127.9,68.8z"/>
					<path class="st5" d="M99.1,57c0,0.8-0.7,1.5-1.5,1.5c-0.7,0-1.4-0.7-1.3-1.4c0-0.7,0.7-1.5,1.3-1.5
						C98.3,55.5,99.1,56.2,99.1,57z"/>
					<path class="st5" d="M195.4,292.8c0,0.7-0.7,1.5-1.5,1.5c-0.7,0-1.3-0.5-1.3-1.2c0-0.8,0.5-1.4,1.3-1.5
						C194.7,291.5,195.4,292.1,195.4,292.8z"/>
					<path class="st5" d="M84.5,221.4c0,1-0.3,1.3-1,1.3c-0.8,0-1.6-0.9-1.5-1.7c0.1-0.8,0.7-1.3,1.4-1.3
						C84.2,219.7,84.6,220.2,84.5,221.4z"/>
					<path class="st5" d="M147,176.9c-0.1,0.9-0.6,1.4-1.3,1.4c-0.8,0-1.4-0.8-1.3-1.6c0.1-0.8,0.7-1.3,1.5-1.3
						C146.6,175.5,147,176,147,176.9z"/>
					<path class="st5" d="M226.1,291.3c-0.1,0.8-0.8,1.6-1.5,1.5c-0.8-0.1-1.1-0.7-1.1-1.4c0-0.7,0.7-1.4,1.4-1.4
						C225.6,290,226.2,290.6,226.1,291.3z"/>
					<path class="st5" d="M125.2,156.8c0.7,0,1.4,0.8,1.4,1.6c0,0.6-0.6,1.1-1.4,1c-0.8,0-1.4-0.6-1.4-1.3
						C123.8,157.4,124.5,156.8,125.2,156.8z"/>
					<path class="st5" d="M134.8,252.8c0,1.2-0.7,2-1.4,1.9c-0.7-0.1-1.1-0.5-1.1-1.2c0-0.8,0.7-1.7,1.4-1.5
						C134.1,252.1,134.5,252.6,134.8,252.8z"/>
					<path class="st5" d="M121.5,99.2c0.7,0,1.2,0.8,1.2,1.6c0,0.7-0.6,1.3-1.3,1.3c-0.7,0-1.3-0.7-1.3-1.5
						C120.2,99.8,120.8,99.1,121.5,99.2z"/>
					<path class="st5" d="M73,170.5c0.1,1.1-0.5,2-1.2,1.9c-0.7-0.1-1.2-0.5-1.3-1.3c-0.1-0.8,0.5-1.6,1.4-1.5
						C72.6,169.6,73,170,73,170.5z"/>
					<path class="st5" d="M159.7,150.3c0.7,0,1.3,0.5,1.4,1.1c0.1,0.7-0.5,1.5-1.2,1.6c-0.7,0-1.4-0.6-1.4-1.4
						C158.4,150.9,159,150.3,159.7,150.3z"/>
					<path class="st5" d="M117.1,215.8c0,0.7-0.7,1.4-1.5,1.3c-0.7-0.1-1.2-0.5-1.3-1.3c0-0.8,0.6-1.4,1.4-1.4
						C116.5,214.4,117.1,215,117.1,215.8z"/>
					<path class="st5" d="M201.3,231.4c-0.7,0-1.2-0.6-1.2-1.3c0-0.8,0.8-1.4,1.6-1.3c0.7,0.1,1.2,0.4,1.1,1.1
						C202.8,230.6,201.9,231.4,201.3,231.4z"/>
					<path class="st5" d="M83.4,160.5c-0.1,0.7-0.8,1.2-1.6,1.1c-0.7-0.1-1.2-0.7-1.1-1.4c0.1-0.7,0.7-1.2,1.4-1.1
						C82.9,159.1,83.5,159.8,83.4,160.5z"/>
					<path class="st5" d="M20.6,246.6c0,0.7-0.6,1.2-1.3,1.2c-0.8,0-1.4-0.6-1.4-1.3c0-0.7,0.6-1.3,1.3-1.2
						C20,245.3,20.7,245.9,20.6,246.6z"/>
					<path class="st5" d="M167.3,218.4c0,0.6-0.6,1-1.3,1c-0.8-0.1-1.4-0.7-1.3-1.5c0.1-0.7,0.5-1.1,1.2-1.1
						C166.6,216.7,167.3,217.5,167.3,218.4z"/>
					<path class="st5" d="M146.1,220.9c-0.1,0.7-0.6,0.8-1.2,0.8c-0.8,0-1.5-0.6-1.5-1.3c0-0.7,0.6-1.2,1.3-1.2
						C145.4,219.3,146.1,220.1,146.1,220.9z"/>
					<path class="st5" d="M140.5,211.5c0,0.6-0.7,1.2-1.4,1.1c-0.7,0-1.3-0.6-1.3-1.3c0-0.7,0.6-1.2,1.3-1.2
						C139.9,210.1,140.5,210.8,140.5,211.5z"/>
					<path class="st5" d="M47.6,224.6c0,0.8-0.7,1.6-1.6,1.5c-0.7-0.1-1.2-0.4-1.2-1.1c0-0.7,0.5-1.2,1.5-1.3
						C47,223.6,47.5,223.8,47.6,224.6z"/>
					<path class="st5" d="M192.7,223.7c-1.2,0-1.7-0.6-1.7-1.4c0.1-0.7,0.6-1.2,1.3-1.2c0.6,0,1.4,0.8,1.2,1.5
						C193.4,223.2,192.9,223.5,192.7,223.7z"/>
					<path class="st5" d="M86,286.7c0,0.7-0.7,1.2-1.4,1.2c-0.7,0-1.3-0.6-1.3-1.3c0-0.7,0.6-1.2,1.4-1.1
						C85.5,285.4,86,286,86,286.7z"/>
					<path class="st5" d="M65,157.9c-0.1,0.7-0.5,1.1-1.2,1.1c-0.7,0-1.3-0.8-1.2-1.5c0.1-0.7,0.8-1.1,1.4-1.1
						C64.7,156.5,65.1,157.1,65,157.9z"/>
					<path class="st5" d="M103.6,41.1c0.2,0.3,0.6,0.7,0.7,1.2c0.1,0.7-0.6,1.3-1.3,1.3c-0.7,0-1.2-0.6-1.2-1.3
						C101.9,41.7,102.6,41,103.6,41.1z"/>
					<path class="st5" d="M43.9,201.6c0,0.8-0.5,1.3-1.2,1.3c-0.7-0.1-1.3-0.7-1.2-1.4c0.1-0.7,0.5-1.1,1.2-1.2
						C43.4,200.3,43.9,200.8,43.9,201.6z"/>
					<path class="st5" d="M31.2,223.3c0,0.8-0.4,1.2-1.1,1.2c-0.7,0-1.2-0.5-1.3-1.3c0-0.8,0.5-1.4,1.3-1.4
						C31,221.8,31.2,222.5,31.2,223.3z"/>
					<path class="st5" d="M150.8,284.8c-0.8,0-1.4-0.6-1.4-1.3c0.1-0.7,0.5-1.1,1.2-1.1c0.6,0,1.4,0.8,1.4,1.4
						C152.1,284.4,151.6,284.8,150.8,284.8z"/>
					<path class="st5" d="M218.2,281c0.8,0,1.5,0.8,1.4,1.5c-0.1,0.7-0.6,1-1.3,1c-0.8,0-1.4-0.6-1.4-1.3
						C217,281.5,217.5,280.9,218.2,281z"/>
					<path class="st5" d="M110.9,298.8c-0.8,0-1.5-0.7-1.5-1.4c0-0.7,0.6-1.2,1.4-1.1c0.8,0,1.2,0.5,1.1,1.3
						C111.8,298.3,111.5,298.8,110.9,298.8z"/>
					<path class="st5" d="M38.2,212.8c-0.7,0-1.2-0.7-1.2-1.4c0.1-0.7,0.7-1.2,1.4-1.2c0.7,0,1.2,0.6,1.1,1.4
						C39.5,212.3,38.9,212.8,38.2,212.8z"/>
					<path class="st5" d="M179.4,217.4c-1.1,0-1.8-0.7-1.7-1.4c0.1-0.7,0.5-1.1,1.2-1.1c0.8,0,1.5,0.7,1.3,1.3
						C180.1,216.7,179.6,217.1,179.4,217.4z"/>
					<path class="st5" d="M134.6,285.8c0,0.9-0.4,1.2-1.2,1.2c-0.7-0.1-1.2-0.6-1.2-1.3c0-0.8,0.7-1.4,1.4-1.3
						C134.3,284.4,134.7,284.9,134.6,285.8z"/>
					<path class="st5" d="M163,158.6c0,0.7-0.5,1.2-1.3,1.2c-0.8,0-1.3-0.5-1.3-1.2c0-0.7,0.7-1.3,1.5-1.2
						C162.6,157.4,163.1,157.9,163,158.6z"/>
					<path class="st5" d="M48.5,191.6c-0.2-0.3-0.7-0.7-0.8-1.2c-0.2-0.7,0.5-1.4,1.2-1.5c0.8,0,1.1,0.4,1.1,1.1
						C50.1,191,49.6,191.6,48.5,191.6z"/>
					<path class="st5" d="M7.8,292.4c0,0.6-0.6,1.2-1.3,1.2c-0.7,0-1.3-0.5-1.3-1.2c0-0.7,0.6-1.2,1.3-1.2
						C7.2,291.2,7.8,291.7,7.8,292.4z"/>
					<path class="st5" d="M172.9,181.3c0,0.7-0.5,1.3-1.2,1.3c-0.6,0-1.3-0.6-1.3-1.3c0-0.7,0.4-1.1,1.1-1.2
						C172.2,180.1,172.8,180.6,172.9,181.3z"/>
					<path class="st5" d="M113.2,123.5c1.1,0,1.6,0.5,1.6,1.2c0,0.7-0.4,1.2-1.1,1.3c-0.7,0.1-1.5-0.7-1.4-1.4
						C112.5,124.2,113,123.8,113.2,123.5z"/>
					<path class="st5" d="M39.6,225.7c0,1-0.9,1.8-1.6,1.8c-0.6-0.1-1-0.4-1-1.1c0-0.8,0.7-1.6,1.5-1.4
						C38.9,225,39.3,225.5,39.6,225.7z"/>
					<path class="st5" d="M124.4,185.7c-0.1,1.1-0.7,1.8-1.3,1.7c-0.7-0.1-1-0.6-1-1.2c0-0.8,0.7-1.4,1.4-1.2
						C123.9,185.1,124.2,185.5,124.4,185.7z"/>
					<path class="st5" d="M99.2,91.6c1,0,1.7,0.8,1.7,1.4c-0.1,0.6-0.5,0.9-1.1,0.9c-0.9,0-1.6-0.6-1.4-1.3
						C98.5,92.2,99,91.9,99.2,91.6z"/>
					<path class="st5" d="M36.5,231.7c0.7,0,1.2,0.7,1.1,1.4c-0.1,0.7-0.5,1.1-1.2,1.1c-0.7,0-1.1-0.5-1.1-1.2
						C35.3,232.3,35.9,231.7,36.5,231.7z"/>
					<path class="st5" d="M102.1,132.2c0.6,0.1,1,0.5,1,1.2c0,0.8-0.6,1.3-1.2,1.3c-0.7,0-1.3-0.7-1.2-1.3
						C100.7,132.7,101.3,132.2,102.1,132.2z"/>
					<path class="st5" d="M74.7,126.4c0.2,0.2,0.7,0.6,0.9,1.1c0.2,0.5-0.7,1.3-1.4,1.3c-0.7,0-1.1-0.5-1.1-1.2
						C73.1,126.9,73.6,126.4,74.7,126.4z"/>
					<path class="st5" d="M26.6,231.3c0.7,0,1.3,0.5,1.3,1.2c0,0.7-0.6,1.3-1.2,1.3c-0.7-0.1-1.1-0.4-1.2-1.1
						C25.3,232,25.9,231.4,26.6,231.3z"/>
					<path class="st5" d="M157.6,218.5c0,0.7-0.5,1.3-1.2,1.3c-0.7,0-1.1-0.4-1.2-1.1c-0.1-0.7,0.4-1.3,1.1-1.4
						C157,217.2,157.6,217.8,157.6,218.5z"/>
					<path class="st5" d="M87.4,127.8c0.1,1-0.5,1.6-1.2,1.6c-0.7,0-1.1-0.4-1.2-1c-0.1-0.7,0.5-1.4,1.2-1.2
						C86.6,127.2,87.1,127.6,87.4,127.8z"/>
					<path class="st5" d="M130.1,78.7c-1,0-1.5-0.4-1.5-1.1c-0.1-0.7,0.5-1.4,1.1-1.4c0.7,0,1.4,0.6,1.2,1.3
						C130.8,78,130.3,78.4,130.1,78.7z"/>
					<path class="st5" d="M94.4,128.6c0,1-0.5,1.5-1.1,1.5c-0.7,0-1.1-0.4-1.2-1.1c0-0.6,0.5-1.3,1.1-1.1
						C93.7,127.9,94.1,128.4,94.4,128.6z"/>
					<path class="st5" d="M44,296.2c-0.2-0.2-0.6-0.6-0.8-1c-0.2-0.7,0.5-1.4,1.2-1.4c0.7,0,1,0.4,1,1C45.5,295.6,45,296.1,44,296.2
						z"/>
					<path class="st5" d="M62.3,166.9c-0.6,0-1-0.4-1.1-1.1c0-0.7,0.5-1.2,1.3-1.2c0.6,0,1,0.4,1.1,1
						C63.7,166.3,63.1,166.9,62.3,166.9z"/>
					<path class="st5" d="M108.9,89.8c0,0.7-0.3,1.2-1,1.2c-0.7,0.1-1.2-0.3-1.3-1c-0.1-0.7,0.4-1.3,1.1-1.4
						C108.5,88.7,108.9,89.1,108.9,89.8z"/>
					<path class="st5" d="M111.6,37.8c-0.1,1-0.5,1.4-1.2,1.4c-0.7,0-1.1-0.4-1.1-1.1c0-0.7,0.6-1.4,1.2-1.1
						C110.9,37.1,111.3,37.6,111.6,37.8z"/>
				</g>
			</g>
			<path class="st0" d="M113.3,104.4c0,0.5-0.9,1.2-1.6,1.2c-0.7,0-1.4-0.6-1.3-1.2c0-0.6,0.7-1.2,1.4-1.3
				C112.4,103.1,113.3,103.8,113.3,104.4z M112.5,103.8c-0.4,0.1-0.9,0.2-1.3,0.3c0,0,0,0.5,0.1,0.6
				C111.9,105.1,112.4,104.9,112.5,103.8z"/>
			<path class="st0" d="M150.6,275.6c-0.4-0.9-0.1-1.6,0.5-2.6C151.5,274.2,151,274.9,150.6,275.6z"/>
			<path class="st0" d="M152.3,271.8c0.5-0.8,1-1.6,1.6-2.4c0.2,1.2-0.7,1.8-1.1,2.6C152.6,272,152.4,271.9,152.3,271.8z"/>
			<path class="st0" d="M151.2,269.5c0.2,0.7,0.5,1.4,0.8,2.3C151,271,151,271,151.2,269.5z"/>
			<path class="st0" d="M150.5,272.5c-0.7,0-1.3,0-2,0C149.1,271.8,149.8,271.9,150.5,272.5z"/>
			<path class="st0" d="M152.7,273.2c0.6,0.4,1.1,0.8,1.7,1.2c-0.1,0.1-0.2,0.2-0.2,0.3C153.4,274.6,152.9,274.1,152.7,273.2z"/>
			<path class="st0" d="M127.4,127.2c-0.4-0.4-0.8-0.9-1.2-1.3c0.1-0.1,0.2-0.2,0.3-0.3c0.4,0.4,0.9,0.8,1.3,1.2
				C127.6,127,127.5,127.1,127.4,127.2z"/>
			<path class="st0" d="M127.9,121.6c-0.1,0.5-0.1,0.7-0.2,0.8c-0.3,0.4-0.6,0.7-1,1.2C126.9,122.7,126.9,122.7,127.9,121.6z"/>
			<path class="st0" d="M125.2,123.2c-0.2-0.5-0.4-1.1-0.7-1.6c0.9,0.3,0.9,0.9,1.1,1.4C125.5,123.1,125.3,123.1,125.2,123.2z"/>
			<path class="st0" d="M124.2,126.8c0.1-0.5,0.2-0.9,0.4-1.4c0.1,0,0.3,0.1,0.4,0.1c-0.1,0.5-0.3,0.9-0.4,1.4
				C124.5,126.9,124.4,126.8,124.2,126.8z"/>
			<path class="st0" d="M128.9,124.6c-0.3,0.1-0.6,0.1-1.1,0.2c0.2-0.9,0.6-0.7,1-0.6C128.8,124.3,128.8,124.4,128.9,124.6z"/>
			<g>
				<path class="st5" d="M95.5,37.4c0.2-0.7,0.5-1.9,0.8-3c0.7-2.3,1.3-4.6,2-6.9c0.3-1,0-1.8-0.8-2.5c-1.2-0.9-2.3-1.9-3.4-2.9
					c-1.1-1.1-2.3-2.2-3.2-3.5c-1.1-1.5-0.5-2.7,1.3-3c1.9-0.3,3.9-0.4,5.8-0.5c1.9-0.1,3.8-0.1,5.7-0.1c0.8,0,1.2-0.3,1.5-1.1
					c0.8-2.2,1.6-4.4,2.5-6.5c0.5-1.2,1.2-2.5,2-3.6c1-1.5,2.4-1.3,3.1,0.3c1.2,3.2,2.2,6.4,3.1,9.6c0.8,2.5,0.4,2,2.7,2.1
					c3.2,0.1,6.4,0.2,9.6,0.4c1.9,0.1,2.6,1.3,1.5,2.8c-1.2,1.7-2.7,3.3-4.2,4.8c-2.9,2.7-2.7,2.2-2.1,5.9c0.4,2.1,0.8,4.2,1.2,6.3
					c0.1,0.6,0.1,1.3,0,2c-0.3,1.4-1.3,2-2.6,1.5c-0.9-0.3-1.7-0.8-2.5-1.2c-1.8-1-3.5-2.1-5.2-3.1c-0.5-0.3-1-0.5-1.4-0.8
					c-1.6-1.1-3.1-1-4.8,0.2c-2.5,1.7-5.1,3.2-7.7,4.6c-0.7,0.4-1.5,0.6-2.3,0.8C96.5,40.2,95.5,39.3,95.5,37.4z"/>
				<path class="st0" d="M97.9,13.6c2,0,4,0,6,0c1.6,0,1.8-0.2,2.3-1.7c0.8-2.6,1.6-5.2,2.5-7.8c0.3-0.9,0.8-1.8,1.2-2.6
					c0.3-0.6,0.7-1.4,1.5-1.4c0.9,0,1.1,0.9,1.3,1.5c0.7,2,1.3,4.1,1.9,6.1c0.5,1.6,1,3.3,1.6,4.9c0.5,1.4,0.7,1.5,2.2,1.4
					c3.4-0.2,6.8-0.4,10.2-0.6c0.9,0,1.8,0.1,2.7,0.4c1.7,0.5,2.4,2.1,1.5,3.6c-0.5,0.9-1.2,1.7-1.9,2.4c-2.3,2.2-4.6,4.4-6.9,6.5
					c-0.9,0.8-1.1,1.5-0.8,2.6c0.9,3,1.7,6.1,2.5,9.1c0,0.2,0.1,0.4,0.1,0.5c0.1,0.9,0.1,1.9-0.7,2.5c-0.8,0.5-1.5,0.1-2.2-0.4
					c-3-1.8-6-3.7-9-5.5c-1.2-0.7-2.3-1.5-3.5-2.3c-1-0.6-2-0.6-3.1,0c-2.2,1.4-4.5,2.7-6.8,3.9c-1.6,0.9-3.3,1.6-5,2.3
					c-1.5,0.6-2.1,0-1.8-1.5c0.6-3,1.4-5.9,2.1-8.9c0.3-1.3,0.6-2.6,1-3.9c0.5-1.6,0-2.8-1.2-3.9c-1.5-1.4-2.9-2.7-4.3-4.2
					c-0.5-0.5-1-1.1-1.3-1.7c-0.4-0.7-0.1-1.3,0.7-1.5c0.6-0.1,1.2-0.1,1.8-0.1c1.8,0,3.5,0,5.3,0C97.9,13.4,97.9,13.5,97.9,13.6z
					 M103.5,32.7L103.5,32.7c0.7-1.1,1.3-2.2,2-3.3c0.1,0.1,0.2,0.1,0.3,0.2c-0.6,1.3-1.3,2.7-1.9,4c2.5-1.3,2.3-4.3,4.1-6.1
					c-0.6,1.6-1.3,3.3-2,5.1c2.7-1.3,2.7-1.3,3.8-3.6c0.5-1.2,1-2.3,1.5-3.5c0.1-0.3,0.3-0.5,0.5-0.7c0.1,0.1,0.2,0.1,0.3,0.2
					c-0.9,2.2-1.9,4.3-2.8,6.5c0.2,0.1,0.3,0.2,0.5,0.2c1.3-1.4,1.5-3.6,2.8-5.1c-0.2,1-0.6,1.9-1,2.9c-0.9,1.9-0.9,1.9-0.4,2.8
					c0.7-1.7,1.4-3.3,2.1-4.9c0.1,0,0.2,0.1,0.4,0.1c-0.7,1.7-1.3,3.4-2,5.1c0.6,0.1,1.2,0.2,1.2,0.2c0,0.9,0.8,0.8,1.3,1l0,0
					c0.2,0.2,0.4,0.5,0.7,0.9c0.7-1.6,1.3-3,1.9-4.3c0.1,0.1,0.2,0.1,0.4,0.2c-0.6,1.5-1.2,3-1.8,4.5c0.6,0.4,1,0.7,1.6,1
					c0.4-1.2,0.8-2.2,1.1-3.3c0.1,0.7-0.1,1.4-0.2,2.1c-0.1,0.6-1,1.3,0.3,1.9c0.4-1,0.8-2,1.2-2.9c0,0.9-0.2,1.8-0.6,2.6
					c-0.3,0.8,0.1,1,0.8,1.1c0.3-0.9,0.6-1.8,0.9-2.8c0.1,0.7,0,1.4-0.2,2c-0.3,1-0.3,1,0.5,1.5c0.2-0.5,0.3-1,0.4-1.4
					c0.1,0,0.1,0,0.2,0c0,0.6,0,1.2,0,1.8c1,0.6,1.9,1.4,3.6,1.6c-4.5-6.7-8.6-13.2-14.4-18.5c-4.8,5.5-9.5,10.9-14.3,16.3
					c1.7-0.7,3.5-1.3,4.8-2.6l-0.1,0.1c0.3-0.2,0.5-0.4,0.8-0.5c0.2-0.1,0.5-0.3,0.7-0.4C103.3,34.3,103.4,33.5,103.5,32.7z
					 M132.5,15.5c-7.4,1.2-14.1,4.2-21.4,5.7c0.5,0.5,0.7,0.8,1,1.1c1.9,2.2,3.9,4.3,5.7,6.6c2.2,2.9,4.2,5.9,6.4,8.9
					c0.3,0.4,0.6,0.8,0.9,1.2c0.2-0.5,0.2-0.9,0.1-1.2c-0.7-2.7-1.5-5.4-2.3-8.1c-0.8-2.8-0.7-2.8,1.4-4.7c2.4-2.2,4.7-4.5,7.1-6.9
					C132,17.5,132.7,16.8,132.5,15.5z M94.2,38.3c2.6-1.8,14.2-14.8,14.9-16.6c-5.7-1.9-11.4-3.9-17.4-5.9c0.4,0.5,0.6,0.7,0.8,0.9
					c1.4,1.4,2.8,2.7,4.2,4.1c0.9,0.9,1.4,2,1,3.3c-0.3,1-0.5,2-0.7,3C96.1,30.7,95.2,34.3,94.2,38.3z M111.3,1.3
					c-0.1,0-0.3-0.1-0.4-0.1c-0.5,1.2-1.2,2.4-1.6,3.6c-0.8,2.3-1.5,4.7-2.3,7.1c-0.7,2.1-1,2.4-3.2,2.5c-0.5,0-1,0-1.5,0
					c-3.3-0.1-6.7-0.2-10-0.3c-0.5,0-1,0.1-1.5,0.1c0,0.1,0,0.3,0,0.4c6.2,2.8,12.8,4.4,19.4,6.9C110.5,14.4,110.9,7.8,111.3,1.3z
					 M132.3,14.9c-1.2-0.9-2.2-1-3.2-0.9c-3.3,0.2-6.6,0.4-9.8,0.6c-2.7,0.2-2.9,0.1-3.7-2.4c-0.9-2.8-1.7-5.6-2.6-8.4
					c-0.2-0.6-0.4-1.2-0.6-1.8C112.2,2,112,2,111.9,2c-0.3,6.1-0.7,12.2-1.1,18.4C118.2,19,124.8,16,132.3,14.9z"/>
				<path class="st0" d="M102.4,34c0.3-0.8,0.6-1.5,0.9-2.3c0.1,0,0.2,0.1,0.3,0.1c0,0.3-0.1,0.6-0.1,0.8c0,0-0.1,0.1-0.1,0.1
					C103.1,33.2,102.7,33.6,102.4,34z"/>
				<path class="st0" d="M116.1,24.7c0.5-1.2,1-2.5,1.6-3.7c0.2,1.5-0.7,2.6-1.1,3.9C116.4,24.9,116.3,24.8,116.1,24.7z"/>
				<path class="st0" d="M119,22.8c-0.5,1.1-1,2.2-1.5,3.4c-0.1-0.1-0.2-0.1-0.4-0.2c0.5-1.1,1-2.3,1.5-3.4
					C118.7,22.7,118.9,22.8,119,22.8z"/>
				<path class="st0" d="M118,27.7c0.4-1,0.8-2.1,1.1-3.1c0.1,0,0.3,0.1,0.4,0.1c-0.4,1.1-0.8,2.1-1.2,3.2
					C118.3,27.8,118.2,27.8,118,27.7z"/>
				<path class="st0" d="M120.6,27c-0.3,0.7-0.6,1.5-0.9,2.2c-0.1-0.1-0.3-0.1-0.4-0.2c0.3-0.7,0.6-1.5,0.9-2.2
					C120.4,26.9,120.5,26.9,120.6,27z"/>
				<path class="st0" d="M120.3,30.2c0.2-0.4,0.3-0.9,0.5-1.3c0.1,0,0.2,0,0.2,0.1c-0.1,0.5-0.3,0.9-0.4,1.4
					C120.5,30.3,120.4,30.3,120.3,30.2z"/>
				<path class="st0" d="M98.5,25.7c1.4-1.2,2.9-2.3,4.3-3.5C102.2,23.5,100,25.3,98.5,25.7z"/>
				<path class="st0" d="M98.2,24.9c0.9-1.6,2.3-2.4,3.5-3.9C101.3,22.5,100.2,23.6,98.2,24.9z"/>
				<path class="st0" d="M100.3,29.2c-0.7,1-1.5,2-2.2,3.1C98.1,30.6,99,29.7,100.3,29.2z"/>
				<path class="st0" d="M100.9,26.4c0.2,0,0.4,0,0.9,0c-1.2,1.2-2.2,2.3-3.2,3.3c-0.1,0-0.1-0.1-0.2-0.1c0.4-0.6,0.8-1.2,1.2-1.8
					C100,27.2,100.4,26.8,100.9,26.4z"/>
				<path class="st0" d="M100.9,26.4c-0.5,0.4-0.9,0.9-1.4,1.3c-0.5,0.1-0.6-0.2-0.3-0.5c0.7-0.7,1.5-1.4,2.3-2
					c0.1,0.1,0.1,0.1,0.2,0.2C101.4,25.7,101.2,26,100.9,26.4z"/>
				<path class="st0" d="M101.5,25.2c0.4-0.5,0.9-1,1.3-1.4c0.1,0.1,0.2,0.2,0.3,0.3c-0.5,0.4-1,0.9-1.5,1.3
					C101.6,25.3,101.6,25.2,101.5,25.2z"/>
				<path class="st0" d="M107.8,30.1c0.9-2.1,1.9-4.2,2.8-6.4c0.1,0.1,0.3,0.1,0.4,0.2c-0.9,2.1-1.8,4.3-2.9,6.3
					C108,30.2,107.9,30.1,107.8,30.1z"/>
				<path class="st0" d="M114.1,33.8c0.6-1.5,1.1-3.1,1.7-4.6C116,30.3,115.5,31.5,114.1,33.8C114.1,33.7,114.1,33.8,114.1,33.8z"/>
				<path class="st0" d="M117.5,32.1c-0.3,0.9-0.6,1.9-0.9,2.8c-0.1,0-0.2-0.1-0.4-0.1c0.3-0.9,0.6-1.9,0.8-2.8
					C117.2,32,117.3,32,117.5,32.1z"/>
				<path class="st0" d="M100.9,35.5c-0.1,0-0.2,0-0.6-0.1c0.4-0.6,0.7-1.1,1.1-1.6c0.1,0,0.2,0.1,0.2,0.1
					C101.3,34.4,101.1,35,100.9,35.5C100.8,35.6,100.9,35.5,100.9,35.5z"/>
				<path class="st0" d="M115,28.5c-0.2,0.5-0.5,1-0.7,1.5c-0.1-0.1-0.2-0.1-0.3-0.2c0.2-0.5,0.5-1,0.7-1.5
					C114.8,28.4,114.9,28.5,115,28.5z"/>
				<path class="st0" d="M108.7,15.3c-0.6,0.7-1.2,1.5-1.8,2.2c-0.1-0.1-0.2-0.2-0.3-0.2c0.6-0.8,1.2-1.5,1.7-2.3
					C108.5,15.1,108.6,15.2,108.7,15.3z"/>
				<path class="st0" d="M108.1,19.6c0.2-0.5,0.3-1,0.5-1.5c0.1,0,0.2,0.1,0.3,0.1c-0.1,0.5-0.2,1-0.2,1.5
					C108.5,19.6,108.3,19.6,108.1,19.6z"/>
				<path class="st0" d="M112.3,14.5c0.4-0.4,0.9-0.8,1.3-1.2c0,0,0.1,0.1,0.1,0.1c-0.4,0.4-0.8,0.9-1.2,1.3
					C112.5,14.7,112.4,14.6,112.3,14.5z"/>
			</g>
			<g class="st6">
				<path class="st0" d="M113.7,42c1.3,1.2,1.1,2.4-0.5,3c0.2,4.6,1.7,8.9,3.6,13c-0.1-0.5-0.2-1-0.1-1.5c0-1.1,0-2.2,0.2-3.3
					c0.1-0.7,0.3-1.3-0.2-1.9c-0.4-0.5,0.2-1.4,0.9-1.7c0.8-0.3,1.3,0,1.7,0.7c0.4,0.7,0.2,1.6-0.5,1.7c-1.5,0.2-1.3,1.3-1.3,2.1
					c-0.2,3,0.3,6,1.6,8.8c1.1,2.3,2.2,4.5,3.3,6.9c-0.1-1.1-0.2-2-0.2-3c0.1-1.7,0.3-3.3,0.5-5c0.1-0.5,0.1-0.8-0.3-1.1
					c-0.5-0.3-0.6-0.9-0.3-1.4c0.4-0.7,1-1.1,1.7-0.8c0.5,0.2,1.1,0.7,1.2,1.2c0.1,0.4-0.4,1-0.9,1.3c-0.4,0.3-0.8,0.4-0.9,1
					c-0.7,3-0.1,5.9,0.5,8.8c0.5,2.1,1.1,4.2,1.6,6.3c0.1,0.5,0.1,1,0.2,1.5c-0.1,0-0.2,0.1-0.3,0.1c-0.1-0.3-0.4-0.5-0.4-0.8
					c-0.8-2.7-2.1-5.2-3.7-7.4c-1.7-2.3-4-3.7-6.6-4.5c-0.2-0.1-0.6,0.1-0.7,0.2c-0.7,0.7-1.5,0.8-2.1,0.2c-0.6-0.6-0.6-1.5,0.1-2
					c0.7-0.6,1.5-0.4,2.1,0.3c0.2,0.2,0.4,0.4,0.7,0.5c2.4,0.5,4.4,1.8,6.2,3.6c-0.1-0.3-0.1-0.5-0.2-0.6c-1.4-2.5-2.7-5.2-4.3-7.6
					c-1.6-2.4-4.8-3.9-8.3-4.4c-0.1,0.2-0.2,0.3-0.3,0.5c-0.7,0.8-1.6,0.9-2.2,0.2c-0.7-0.7-0.7-1.6,0.1-2.2
					c0.8-0.7,1.6-0.5,2.3,0.3c0.3,0.3,0.8,0.6,1.2,0.6c2.5,0.2,4.6,1.3,6.6,2.9c-0.2-1.1-2.9-4.3-5.1-5.8c-2.2-1.5-4.5-2.7-6.7-4.1
					c-0.7,0.9-1.3,1.3-2.1,0.8c-0.6-0.4-0.9-0.9-0.6-1.6c0.3-0.7,0.8-1.2,1.5-1.1c0.9,0.1,1.3,0.7,1.1,1.7c3.6,0.6,6.3,2.8,9.1,4.9
					c-0.2-0.4-0.5-0.8-0.7-1.2c-1.3-1.7-2.6-3.5-3.9-5.2c-0.1-0.1-0.3-0.2-0.5-0.3c-0.9-0.3-1.3-1-1-1.7c0.3-0.7,1-1,1.6-0.7
					c0.7,0.3,0.9,1,0.4,1.9c0,0.1-0.1,0.1,0,0.1c2,2.8,4.1,5.5,6,8.2c-0.4-1.5-0.9-3.1-1.2-4.7c-0.3-1.2-0.3-2.5-0.5-3.7
					c-0.1-0.7,0.1-1.4-0.5-2c-0.6-0.6-0.3-1.5,0.5-2.2C113,42,113.4,42,113.7,42z"/>
				<path class="st0" d="M3.4,282.8c0.2-0.2,0.4-0.4,0.7-0.6c0.7-0.5,1.4-0.4,1.8,0.2c0.3,0.4,0.9,0.8,0.1,1.4
					c-0.9,0.8-1.6,0.9-2.2,0.4c-0.2-0.1-0.3-0.3-0.4-0.5C3.4,283.4,3.4,283.1,3.4,282.8z M5.9,283.2c-0.5-0.6-1-0.8-1.5-0.3
					c-0.2,0.1-0.2,0.7-0.1,0.8C5,284.2,5.4,283.5,5.9,283.2z"/>
				<path class="st0" d="M110.8,242.4c3.2,1.4,5.5,3.9,7.3,6.8c0.1,0.2,0.3,0.3,0.5,0.4c0.8,0.1,1.3,0.5,1.4,1.3
					c0.1,0.7-0.2,1.2-1,1.5c-0.7,0.3-1.3,0.2-1.7-0.4c-0.5-0.7-0.5-1.4,0.1-2c0.1-0.1,0.1-0.1,0.2-0.3c-3.4-5.1-7.8-8.3-14.5-7.7
					c0.7,0.2,1.2,0.4,1.8,0.6c3.4,1.2,5.9,3.4,7.8,6.4c0.2,0.3,0.5,0.5,0.9,0.6c1,0.3,1.4,0.9,1.1,1.8c-0.2,0.8-1.1,1.3-1.9,1
					c-0.8-0.3-1.2-1.4-0.8-2.1c0.3-0.4,0.2-0.6,0-1c-2.4-3.8-5.8-6.1-10.3-6.9c-1.7-0.3-4.4,0-6.6,0.7c3.8-0.2,7,0.9,9.9,3.1
					c0.6,0.4,1.1,1,1.7,1.5c0.5,0.5,0.8,1,1.6,1.2c0.7,0.2,1,1,0.7,1.7c-0.4,0.8-1.2,1.1-2,0.7c-0.7-0.3-1-1.2-0.6-1.8
					c0.1-0.2,0.2-0.3,0.4-0.6c-4-4.4-9-5.8-14.8-4.8c4.2,0.5,7.4,2.7,10.3,5.6c0.2,0.2,0.6,0.3,0.9,0.3c0.8,0.1,1.4,0.7,1.4,1.4
					c-0.1,0.7-0.9,1.3-1.6,1.2c-0.8-0.1-1.3-0.9-1.1-1.7c0-0.3,0-0.6-0.2-0.8c-2.9-2.9-6.3-4.8-10.4-5.3c-1.8-0.2-4.5,0.3-6.2,1.2
					c1.2,0.1,2.6,0.2,3.9,0.4c1.9,0.3,3.6,1.2,5,2.4c0.2,0.2,0.6,0.3,0.9,0.3c0.8,0,1.6,0.2,1.9,1c0.3,0.7-0.2,1.3-0.7,1.7
					c-0.6,0.4-1.2,0.4-1.8,0c-0.7-0.5-0.7-1.2-0.4-2c0-0.1,0.1-0.2,0.1-0.3c-3.7-2.9-8-3.2-12.4-2.2c0-0.1-0.1-0.2-0.1-0.2
					c0.2-0.2,0.3-0.5,0.5-0.7c1-0.8,2-1.4,2.9-2.2c1.6-1.3,2.7-3,3.3-5c0.1-0.2-0.1-0.6-0.2-0.7c-0.5-0.5-0.6-1.1-0.3-1.7
					c0.3-0.6,0.9-1,1.5-0.7c0.4,0.2,0.9,0.6,1.1,1.1c0.2,0.7,0,1.2-0.8,1.5c-0.2,0.1-0.4,0.3-0.5,0.5c-0.6,2.1-1.6,3.9-3.2,5.3
					c1.2-0.1,3-0.8,4.3-2.2c1.6-1.6,3-3.5,4.5-5.2c0.3-0.3,0.4-0.6,0.1-1c-0.4-0.7-0.1-1.4,0.6-1.7c0.6-0.3,1.5,0,1.7,0.7
					c0.2,0.6-0.1,1.3-0.9,1.6c-0.2,0.1-0.6,0.2-0.7,0.4c-1.2,2.4-3.1,4.3-5,6.2c0.8-0.2,1.7-0.3,2.4-0.7c3.2-1.7,6.2-3.6,8.5-6.5
					c0.3-0.4,0.5-0.6,0.2-1.2c-0.3-0.7-0.2-1.5,0.6-1.8c0.6-0.3,1.4-0.3,1.8,0.4c0.4,0.6,0.3,1.3-0.1,1.8c-0.2,0.2-0.4,0.4-0.6,0.4
					c-1-0.2-1.3,0.7-1.8,1.2c-1.5,1.9-3.4,3.4-5.4,4.7c-0.1,0.1-0.2,0.1-0.3,0.2c4.7-0.4,8.7-1.4,12.6-5.3c0.2-0.2,0.3-0.5,0.2-0.7
					c-0.1-0.8,0.4-1.5,1.2-1.6c0.8-0.1,1.4,0.5,1.4,1.2c0,0.7-0.6,1.2-1.5,1.2c-0.3,0-0.6,0-0.8,0.2c-1.5,1.8-3.4,3.1-5.6,4
					c3.7,0.7,8.6-0.7,11.3-3.3c0.2-0.2,0.1-0.5,0.2-0.8c0.3-0.5,0.5-1.1,0.9-1.4c0.2-0.2,0.9,0,1.2,0.2c0.3,0.2,0.5,0.8,0.4,1.2
					c-0.1,0.8-0.7,0.9-1.4,1c-0.2,0-0.6,0-0.7,0.1c-1.6,1.5-3.4,2.6-5.7,3.3c4.4,0.7,8.2,0.1,11.6-2.4c0.4-0.3,0.6-0.6,0.7-1.1
					c0.1-0.5,0.6-1,1.1-1.3c0.3-0.1,0.9,0.1,1.2,0.4c0.3,0.3,0.4,1.1,0.2,1.2c-0.4,0.4-1.1,0.8-1.6,0.8c-0.6-0.1-0.9,0.1-1.3,0.4
					c-1.8,1.5-3.9,2.4-6.3,2.8c3.8,1.4,7.3,1,10.7-0.9c0.2-0.1,0.3-0.4,0.3-0.7c0.2-0.7,0.8-1.1,1.4-0.9c0.9,0.3,1.3,1.1,1,1.7
					c-0.3,0.6-1.1,0.8-1.8,0.5c-0.3-0.1-0.7-0.1-0.9,0c-0.9,0.4-1.8,0.9-2.8,1.3c-0.9,0.3-1.9,0.5-2.7,0.6c1.6,0.9,3.3,2,5.1,3
					c0.2,0.1,0.5,0,0.7,0.1c0.7,0.1,1.2,0.7,1.1,1.4c0,0.7-0.5,1-1.1,1c-0.8,0-1.4-0.4-1.3-1.1c0.1-0.9-0.4-1.2-1-1.5
					c-2.2-1.3-4.6-2.4-6.8-3c1.4,1.5,3,3.2,4.6,4.8c0.4,0.4,0.7,1,1,1.5c0.4,0.5,0.7,1.1,1.4,1.3c0.6,0.2,0.8,0.8,0.5,1.5
					c-0.3,0.7-1.1,1-1.7,0.7c-0.7-0.4-0.8-0.9-0.6-1.6c0.1-0.2,0.3-0.5,0.4-0.7C120.5,247.3,115.2,242.2,110.8,242.4z"/>
				<path class="st0" d="M176.2,273c0.7-0.6,1.4-1.1,2-1.6c-1.3-0.6-2.5-1.1-3.7-1.8c-0.4-0.2-0.7-0.6-0.9-1
					c-0.7-1.2-0.1-2.3,1.3-2.3c2-0.1,3.8,1.1,5.1,3.5c0.7-0.7,1.4-1.3,2.1-1.9c-1.2-0.5-2.5-0.9-3.6-1.5c-1.4-0.7-1.8-1.5-1.4-2.5
					c0.4-0.9,1.5-1.3,2.9-0.9c1.7,0.4,3,1.4,3.9,3c2-1.9,3.3-4.3,4.5-6.8c0.1,0.1,0.3,0.2,0.4,0.3c-0.8,3-2.8,5.2-4.6,7.5
					c0.7,1,1.4,1.9,1.9,2.9c0.7,1.2,1.1,2.5,0.6,3.9c-0.2,0.6-0.4,1.2-1.2,1.4c-0.7,0.1-1.3-0.2-1.6-0.8c-0.6-1.4-1.1-2.9-1.6-4.3
					c-0.1-0.3-0.1-0.6-0.2-1c-0.7,0.6-1.2,1.1-1.7,1.6c1.2,1.7,2,3.5,1.9,5.6c-0.1,0.8-0.4,1.7-0.8,2.4c-0.7,1.1-1.8,1-2.4-0.1
					c-0.5-1-0.7-2.1-1-3.2c-0.2-0.8-0.2-1.6-0.3-2.6c-0.7,0.5-1.4,1-2.1,1.5c1.3,1.8,1.8,3.8,1.2,5.9c-0.2,0.7-0.5,1.3-1,1.8
					c-0.8,1-1.8,0.8-2.3-0.3c-0.4-0.8-0.6-1.7-0.7-2.6c-0.1-1,0-1.9,0-3c-0.7,0.4-1.3,0.8-1.9,1.1c1.2,2.3,1.3,4.6,0,6.8
					c-0.4,0.7-0.9,1.3-1.9,1.1c-0.7-0.1-1.2-1-1.2-1.9c0-1.4,0-2.9,0-4.3c-0.5,0.2-1,0.5-1.4,0.7c0,1.6,0.1,3.1-0.1,4.5
					c-0.1,0.7-0.7,1.4-1.2,2.1c-0.5,0.6-1.3,0.8-1.9,0.4c-0.4-0.3-0.9-1.1-0.8-1.6c0.2-1.4,0.6-2.7,0.9-4.1
					c-0.6,0.2-1.4,0.4-2.1,0.6c-0.2,0.1-0.3,0.5-0.3,0.7c0,1.5-0.2,3-1.2,4.3c-0.7,1-1.7,1.5-2.4,1.1c-0.7-0.3-0.9-1.3-0.5-2.6
					c0.3-1,0.8-2,1.2-3c-0.8-0.3-1.7-0.6-2.6-1c-0.4-0.2-0.8-0.5-1.1-0.7c-0.6-0.5-1.1-1.1-0.7-1.9c0.4-0.7,1.2-0.8,1.9-0.7
					c2.1,0.3,3.6,1.4,4.9,3.2c1-0.3,2-0.7,3.1-1c-1.1-0.7-2.2-1.3-3.1-2c-0.6-0.5-1.2-1-1.7-1.7c-0.8-1.2-0.2-2.3,1.2-2.4
					c1.1-0.1,2,0.2,2.9,0.8c1.4,0.9,2,1.6,3.2,4.2c0.9-0.4,1.7-0.9,2.7-1.4c-1-0.6-1.9-1-2.6-1.6c-0.8-0.6-1.6-1.3-2.2-2.2
					c-0.3-0.4-0.4-1.3-0.1-1.8c0.3-0.7,1.1-0.8,1.8-0.6c2.6,0.7,4.3,2.3,5.3,4.9c0.9-0.5,1.7-1.1,2.7-1.7c-0.7-0.2-1.3-0.4-1.8-0.7
					c-1-0.5-2-1.1-2.8-1.8c-0.6-0.5-0.9-1.4-0.5-2.2c0.4-0.9,1.1-0.9,1.9-0.9c2.2,0.1,3.6,1.5,4.8,3.1
					C175.9,272.3,176,272.6,176.2,273z M183.2,268.2c-0.1,0.2-0.3,0.4-0.3,0.5c0.5,1.6,0.9,3.2,1.5,4.7c0.2,0.5,0.8,0.8,1.2,1.1
					c0.3-0.5,0.7-1.1,0.7-1.6c0-2.1-1.2-3.7-2.5-5.3C183.5,267.8,183.3,268,183.2,268.2L183.2,268.2z M174.5,275.3
					c-0.1-0.1-0.2-0.2-0.3-0.3c-0.1,0.2-0.4,0.5-0.4,0.7c0,1.8-0.3,3.6,0.4,5.3c0.1,0.3,0.5,0.8,0.7,0.8c0.3,0,0.8-0.3,1-0.7
					c0.9-1.5,0.9-3.1,0.3-4.6c-0.2-0.6-0.6-1.2-0.9-1.8c-0.1,0-0.2,0.1-0.3,0.1c0,1.1,0,2.1,0,3.2c-0.1,0-0.2,0-0.2,0
					C174.7,277.1,174.6,276.2,174.5,275.3z M179.3,271.7c-0.1,0-0.2,0-0.2,0c-0.1,0.3-0.3,0.5-0.3,0.8c0,1,0.1,1.9,0.2,2.9
					c0.1,0.8,0.4,1.6,0.7,2.4c0.1,0.3,0.5,0.7,0.8,0.7c0.3,0,0.6-0.4,0.8-0.7c0.2-0.4,0.3-0.9,0.4-1.4c0.2-1.7-0.5-3.3-1.3-4.7
					c-0.1-0.2-0.3-0.3-0.4-0.5c0,0-0.1,0-0.1,0.1c0.2,1,0.4,1.9,0.5,2.9c-0.1,0-0.2,0-0.3,0.1C179.8,273.4,179.6,272.6,179.3,271.7z
					 M165.6,278.7c-0.6-1.8-2.4-3.6-4.1-4c-0.6-0.2-1.5-0.4-1.8,0.3c-0.2,0.4,0.2,1.2,0.6,1.5c1.3,1,2.7,2,4.2,2.9
					c0.2,0.1,0.5,0,1-0.1c-1.1-1-2-1.8-2.9-2.7c0.1-0.1,0.1-0.2,0.2-0.3C163.7,277.2,164.6,277.9,165.6,278.7z M170.1,278.1
					c-0.1,0-0.2-0.1-0.3-0.1c-0.2,0.2-0.7,0.4-0.7,0.6c-0.1,1.7-0.2,3.5-0.2,5.2c0,0.3,0.4,0.7,0.7,0.7c0.2,0.1,0.6-0.2,0.8-0.5
					c1.3-1.4,1.4-4.8,0-6.4c0,1,0,2.1,0,3.1c-0.1,0-0.2,0-0.4,0C170.1,279.9,170.1,279,170.1,278.1z M170.8,276.7
					c-0.9-2.3-2.3-3.7-4.4-4.5c-0.5-0.2-1.1,0-1.6,0c0.2,0.5,0.2,1.2,0.5,1.5c1.3,1.1,2.8,2,4.2,3c0.1,0.1,0.3,0.1,0.5,0.2
					c0-0.1,0.1-0.1,0.1-0.2c-0.8-0.7-1.6-1.4-2.4-2.1c0.1-0.1,0.2-0.2,0.2-0.3C168.9,275.1,169.8,275.8,170.8,276.7z M172.4,271.9
					c0.1-0.1,0.1-0.2,0.2-0.3c1,0.7,2,1.3,3,2c0-0.2,0.1-0.3,0-0.4c-1.1-1.6-2.4-3-4.4-3.4c-0.5-0.1-1,0.2-1.5,0.3
					c0.1,0.5,0.1,1.2,0.4,1.6c1.3,1.4,3,1.9,4.7,2.3c0,0,0.1-0.1,0.1-0.2C174.1,273.1,173.2,272.5,172.4,271.9z M165.2,280.3
					c-0.1,0-0.1-0.1-0.2-0.1c-0.2,0.3-0.4,0.5-0.5,0.8c-0.4,1.2-0.8,2.4-1.1,3.7c-0.1,0.4,0.2,1.1,0.6,1.3c0.3,0.1,0.9-0.2,1.3-0.5
					c0.3-0.2,0.6-0.7,0.6-1.1c0.1-1.4,0.1-2.9,0.1-4.3c0,0-0.1,0-0.1-0.1c-0.2,1-0.5,2-0.7,3c-0.1,0-0.2-0.1-0.4-0.1
					C165,282.1,165.1,281.2,165.2,280.3z M180.4,265.3c0.1-0.1,0.1-0.2,0.2-0.4c0.9,0.6,1.9,1.2,2.8,1.8c0.1-0.1,0.1-0.1,0.2-0.2
					c-0.1-0.2-0.3-0.5-0.4-0.7c-1.1-1.2-2.4-2.1-4-2.2c-0.4,0-0.9,0.3-1.2,0.6c-0.1,0.2,0.2,0.8,0.4,1c1.2,1.1,2.8,1.4,4.4,1.6
					C182,266.4,181.2,265.9,180.4,265.3z M179.3,269.9c0-0.1,0.1-0.1,0.1-0.2c-1.1-1.3-2.3-2.4-4.1-2.5c-0.3,0-0.9,0.2-1,0.4
					c-0.1,0.3,0.1,0.8,0.3,1.1c0.2,0.3,0.5,0.5,0.8,0.6c1.1,0.5,2.2,0.9,3.4,1.3c0.2,0.1,0.3,0,0.5,0c0-0.1,0-0.1,0-0.2
					c-0.9-0.5-1.8-1-2.7-1.6c0.1-0.1,0.1-0.2,0.2-0.3C177.6,269,178.4,269.5,179.3,269.9z M159.4,281.9c-0.8,1.3-1.6,2.7-1.8,4.3
					c0,0.3,0.2,0.8,0.4,0.9c0.2,0.1,0.7-0.1,0.9-0.3c1.6-1.3,1.5-3.2,1.6-5.1c-1,0.8-0.4,2.1-0.8,3.3
					C159.2,283.9,159.5,282.9,159.4,281.9z M160,281.2c0.1-0.1,0.1-0.1,0.2-0.2c-0.6-0.5-1.3-1.1-1.9-1.5c-0.9-0.6-1.9-1-3-0.9
					c-0.8,0.1-0.9,0.4-0.4,1c1,1.2,2.3,1.7,3.8,1.9c0.2,0,0.4-0.1,0.6-0.2c-0.9-0.6-1.7-1.1-2.4-1.7c0.1-0.1,0.1-0.2,0.2-0.3
					C158,279.9,159,280.6,160,281.2z"/>
				<path class="st0" d="M99.9,100c-1.8-2.6-3.7-3.4-5.9-2.4c-1.6,0.7-2.7,2.9-2.3,4.7c0.4,1.7,2.4,3,4.5,2.9c2.3-0.1,3.4-1.4,4-4.7
					c0.1,1.3,0.1,2.6-0.7,3.7c1.7,2,3.9,3.3,6.1,4.5c1.2,0.7,1.3,0.9,0.3,1.8c-1.4,1.4-1.7,3-0.9,4.6c0.6,1.2,1.4,2.2,2.2,3.3
					c0.4,0.5,0.6,1-0.1,1.4c-2.9,1.5-4.3,4-4.9,7.1c-0.2,1.1-0.4,1.2-1.3,0.6c-1.8-1.2-3.5-2.5-5.4-3.5c-0.9-0.5-2.1-0.6-3.1-0.8
					c-1.6-0.2-1.8-0.4-1.6-2c0.3-1.8,0.7-3.5,0-5.3c-0.1,0-0.2,0-0.3,0c-0.1,1.3-0.3,2.6-0.3,3.9c0.1,1.8,0.1,1.9-1.6,2.3
					c-2.8,0.7-4.9,2.2-6.4,4.6c-0.1,0.1-0.1,0.2-0.2,0.3c-0.4,0.4-0.8,0.7-1.2,1.1c-0.3-0.5-0.6-0.9-0.8-1.4
					c-0.7-1.5-1.2-3.2-2.1-4.6c-0.5-0.9-1.5-1.6-2.3-2.3c-1.1-0.8-1.1-0.9-0.4-2.1c0.8-1.2,1.4-2.5,2-3.8c0.6-1.4,0.6-2.8-0.1-4.2
					c-0.4-0.8-0.1-1.1,0.7-1.4c2.1-0.7,4.1-1.6,6.2-2.4c-2.8-3.4-2.1-6.4,0.5-8.3c2.4-1.7,5.3-1.3,6.9,1.1c1.8-2.2,4-2.8,6.5-1.5
					C99.4,97.7,100.1,98.9,99.9,100z M91.7,122.2c3.9,0,6.9,2.1,9.9,4.7c0.5-3.5,2.1-6.1,5.2-7.8c-1.3-1.4-2.4-2.8-2.9-4.6
					c-0.5-2,0.1-3.5,1.6-4.9c-2.4-1.5-4.8-2.7-6.5-4.9c-0.7,0.4-1.4,0.8-2.1,1.2c2.3,4,3,8.4,3.3,12.8c0,0.4-0.2,0.7-0.3,1.1
					c-0.1,0-0.2-0.1-0.3-0.1c0-0.4,0-0.8,0-1.2c-0.4-3.5-1.1-6.9-2.4-10.2c-0.5-1.4-1.2-2.5-2.9-2.6c-0.3,0-0.6-0.1-0.8-0.2
					c-1.9,2.3-3.8,4.6-5.8,7c1.6,0.2,2.8,0.8,3.4,2.1c0.4,0.9,0.7,1.8,0.8,2.8C92,119,91.8,120.5,91.7,122.2z M82.4,118.6
					c-0.1,0-0.2,0-0.3-0.1c0-0.1-0.1-0.2-0.1-0.3c0.5-1.8,0.9-3.7,1.4-5.5c0.6-2.2,1.8-4.2,3.3-5.8c-1.4-1-2.7-0.8-4,0.2
					c-0.1,0.1-0.2,0.1-0.2,0.1c-1.6,0.6-3.1,1.2-4.7,1.8c1.2,3.1,1,4-2.3,9.7c3.2,1.8,4.5,4.8,5.4,8.2c0.2-0.1,0.3-0.2,0.3-0.3
					c1.8-2.9,4.3-4.8,7.6-5.5c0.7-0.1,0.7-0.6,0.7-1.1c0.1-1.4,0.2-2.8,0.4-4.2c0.2-1.3,0.1-1.6-1.1-2.1c-0.4-0.1-0.8-0.2-1.2-0.3
					c-0.9-0.1-1.1-0.4-0.6-1.2c0.7-1,1.5-2,2.3-2.9c1.1-1.4,2.3-2.7,3.4-4.1c-0.4-0.3-0.6-0.5-0.9-0.7c-1.1,1.5-2.6,2.3-4.3,2.4
					C84.7,110.3,83.6,114.4,82.4,118.6z M91.7,104.2c-1-1.6-1.1-2.4-0.7-4.2c0.1-0.4,0-0.8-0.2-1.2c-0.9-1.4-2.6-1.8-4.5-1.2
					c-1.9,0.6-3.5,2.7-3.2,4.3c0.3,2.1,1.4,3.7,3.6,4.3C88.8,106.7,90.4,105.9,91.7,104.2z"/>
				<path class="st0" d="M99.7,258.5c1.1-1.2,2.1-2.4,3.3-3.4c1.1-1,2.1-0.7,2.6,0.7c0.3,0.6,0.4,1.2,0.6,1.8
					c0.2,0.6,0.3,1.2,0.4,1.8c1.3-0.3,2.6-0.6,3.8-0.8c1.1-0.2,1.5,0,1.6,1.1c0.2,1.5,0.2,3,0.4,4.4c0.1,0.7-0.2,1.1-0.9,1.1
					c-0.6,0-0.7,0.3-0.7,0.9c0,5.2,0,10.5,0,15.7c0,0.7-0.2,1-0.9,1c-2.9,0.3-5.8,0.6-8.7,0.9c-2.1,0.2-4.1,0.5-6.2,0.8
					c0,0-0.1,0-0.1,0c-2.2,0.4-2.6,0.2-3-2c-0.7-4.1-1.3-8.1-2-12.2c-0.1-0.5-0.1-1-0.1-1.5c-0.5,0.1-1.1,0.2-1.6,0.3
					c-0.6,0.1-1-0.1-1-0.7c0-1.2,0.1-2.4,0.2-3.6c0.1-0.7,0.6-1,1.2-1.1c2.8-0.7,5.6-1.5,8.4-2.1c0.7-0.2,1-0.4,0.9-1.1
					c0-0.3,0.1-0.7,0.2-1.3c-1.4-0.6-2.9-1.2-4.4-1.7c-1.4-0.4-2.1,0.1-2,1.6c0,1,0.3,2,0.4,3c0,0.2,0,0.4,0.1,0.6
					c-0.1,0.1-0.3,0.2-0.4,0.3c0-0.2-0.1-0.4-0.1-0.6c-0.2-1.3-0.6-2.5-0.6-3.8c-0.1-1.3,0.7-2.1,2-1.9c1.2,0.2,2.4,0.6,3.5,1.1
					C97.7,258.1,98.7,258.9,99.7,258.5z M111.4,259c-3.3,0.8-6.4,1.5-9.6,2.2c0.2,1.6,0.3,3.1,0.5,4.6c3.2-0.4,6.3-0.9,9.5-1.3
					C111.6,262.6,111.5,260.9,111.4,259z M110.2,265.4c-2.6,0.4-5.2,0.8-7.8,1.1c0.2,2,0.4,3.9,0.7,5.9c2.4-0.4,4.8-0.8,7.2-1.3
					C110.2,269.3,110.2,267.4,110.2,265.4z M98.5,273.4c-0.4-2.1-0.7-4.1-1.1-6.1c-2.3,0.5-4.6,0.9-6.8,1.3c0.3,2,0.7,4,1,6
					C93.9,274.2,96.1,273.9,98.5,273.4z M92.2,278.7c0.3,1.6,0.5,3,0.7,4.5c0.1,0.6,0.3,0.8,0.9,0.7c2.2-0.2,4.4-0.5,6.6-0.7
					c-0.4-1.9-0.7-3.6-1.1-5.3C96.8,278.2,94.6,278.4,92.2,278.7z M96.6,262.4c-2.6,0.6-5,1.2-7.5,1.9c-0.3,0.1-0.8,0.5-0.9,0.8
					c-0.1,1.1,0,2.2,0,3.4c3-0.6,6.1-1.2,9.1-1.8C97.1,265.2,96.8,263.8,96.6,262.4z M110.2,276.3c-2.2,0.4-4.3,0.7-6.5,1.1
					c0.2,1.8,0.3,3.6,0.5,5.4c2.1-0.2,4-0.4,6-0.5C110.2,280.2,110.2,278.2,110.2,276.3z M103.6,276.7c2.1-0.3,4.1-0.6,6.1-1
					c0.2,0,0.4-0.3,0.4-0.4c0-1.1,0-2.3,0-3.5c-2.4,0.5-4.7,0.9-7,1.3C103.2,274.3,103.4,275.4,103.6,276.7z M98.6,274.1
					c-2.4,0.4-4.7,0.7-7,1.1c0.2,1,0.3,1.9,0.5,2.9c2.4-0.3,4.7-0.6,7.1-0.9C99,276.1,98.8,275.1,98.6,274.1z M99.2,273.3
					c1-0.2,1.8-0.3,2.7-0.5c0.2-0.1,0.5-0.4,0.5-0.6c-0.2-1.8-0.5-3.6-0.7-5.5c-1.2,0.2-2.4,0.4-3.6,0.5
					C98.4,269.3,98.8,271.3,99.2,273.3z M101,260.6c1.7-0.3,3.4-0.7,5.3-1.1c-0.5-1.3-0.8-2.5-1.3-3.7c-0.3-0.7-0.8-0.8-1.4-0.3
					c-0.7,0.6-1.4,1.2-2,1.9C100.8,258.3,100,259.3,101,260.6z M97.9,266.5c1.3-0.2,2.4-0.4,3.6-0.6c-0.1-1.6-0.3-3-0.4-4.6
					c-1.4,0.3-2.7,0.6-4,0.9C97.4,263.7,97.7,265.1,97.9,266.5z M103.7,282.8c-0.2-1.8-0.4-3.5-0.6-5.3c-1.1,0.1-2,0.3-3.1,0.4
					c0.3,1.8,0.6,3.5,0.9,5.2C101.8,283,102.7,282.9,103.7,282.8z M102.5,273.3c-1.1,0.2-2.1,0.4-3.2,0.7c0.2,1.1,0.4,2.2,0.6,3.2
					c1.1-0.2,2.1-0.3,3.1-0.5C102.8,275.5,102.7,274.5,102.5,273.3z M98.5,261.1c0.6-0.1,1.1-0.2,1.8-0.3c-0.1-0.5-0.1-0.9-0.3-1.2
					c-0.1-0.2-0.5-0.4-0.7-0.5c-0.2,0.2-0.4,0.5-0.5,0.7C98.6,260.2,98.6,260.5,98.5,261.1z"/>
				<path class="st0" d="M38.3,254.4c-0.3,1-0.5,1.9-0.8,2.9c0.8,0.3,1.8-0.2,2.5,0.4c0,0.1,0,0.2,0,0.3c-0.4,0-0.8,0.2-1.1,0.1
					c-1.3-0.2-2.4,0.3-3.4,1.1c-2,1.6-4.1,3.2-6.1,4.8c-0.2,0.1-0.3,0.3-0.6,0.6c2.1,0.4,4.1,0.7,6.1,1c2.5,0.4,5.1,0.7,7.7,1
					c0.3,0,0.6-0.1,0.9-0.2c0.8-0.4,1.5-0.8,2.3-1.3c0.1,0.7,0.1,0.7-2,2c0.5,0.5,1.1,1,1.5,1.5c0.1,0.2,0.1,0.5,0.2,0.7
					c-0.2,0-0.5,0-0.7-0.1c-0.3-0.2-0.7-0.5-0.9-0.8c-0.7-0.9-1.7-1-2.8-1.2c-3.2-0.4-6.4-0.9-9.5-1.4c-0.6-0.1-1.2-0.2-2-0.3
					c0.6,0.7,1.1,1.3,1.5,1.9c1.5,1.7,2.9,3.5,4.4,5.1c0.3,0.3,0.9,0.4,1.3,0.6c0.4,0.1,0.9,0.1,1.3,0.2c0.2,0.1,0.4,0.3,0.6,0.4
					c-0.2,0.1-0.5,0.3-0.7,0.3c-0.6-0.1-1.2-0.2-1.8-0.3c-0.1,0-0.3,0-0.4,0c0,0.8,0,1.5,0,2.3c0,0.2-0.2,0.4-0.4,0.6
					c-0.1-0.2-0.3-0.3-0.3-0.5c-0.1-0.4-0.2-0.8-0.1-1.2c0.2-1.6-0.6-2.6-1.6-3.6c-1.5-1.6-2.9-3.4-4.3-5.1
					c-0.2-0.2-0.4-0.5-0.7-0.8c-0.3,1.4-0.5,2.6-0.7,3.8c-0.5,3.1-1.1,6.3-1.6,9.4c0,0.3,0.1,0.6,0.2,0.9c0.6,0.8,1.2,1.5,1.8,2.3
					c0.1,0.1,0,0.4,0.1,0.6c-0.2-0.1-0.4-0.1-0.5-0.2c-0.7-0.8-1.4-1.5-2.1-2.3c-0.7,0.6-1.4,1.2-2.1,1.8c-0.2,0.1-0.5,0.1-0.8,0.1
					c0.1-0.2,0.1-0.5,0.3-0.7c0.1-0.2,0.3-0.3,0.5-0.4c1.5-0.8,2-2.2,2.2-3.8c0.5-3.6,1.2-7.2,1.8-10.8c0-0.1,0-0.2,0-0.6
					c-1.2,1-2.3,2-3.4,2.9c-0.5,0.5-1,1-1.6,1.3c-1.3,0.8-1.9,1.9-1.9,3.4c0,0.1,0,0.2-0.1,0.3c-0.1,0.2-0.3,0.5-0.4,0.7
					c-0.1-0.3-0.3-0.6-0.3-0.8c0.1-0.8,0.3-1.5,0.5-2.5c-0.7,0-1.2,0.1-1.8,0.1c-0.5,0-1,0.1-1.5,0c-0.2,0-0.5-0.2-0.7-0.4
					c0.2-0.1,0.4-0.3,0.6-0.3c1.2-0.1,2.4-0.1,3.5-0.2c0.3,0,0.6-0.1,0.8-0.3c1.8-1.5,3.6-3.1,5.5-4.8c-1.6-0.3-3-0.5-4.4-0.7
					c-2.3-0.3-4.6-0.7-6.9-1c-0.8-0.1-1.6-0.2-2.4-0.3c-0.7-0.1-1.3,0-1.8,0.5c-0.7,0.6-1.4,1.1-2.1,1.6c-0.2,0.2-0.5,0.2-0.8,0.3
					c-0.1-0.1-0.1-0.2-0.2-0.3c1-0.8,2.1-1.7,3.1-2.5c-0.5-0.7-1.1-1.5-1.7-2.2c0.1-0.1,0.2-0.2,0.3-0.3c0.5,0.4,1,0.8,1.3,1.3
					c0.5,0.8,1.3,0.9,2.1,1c2.6,0.3,5.1,0.6,7.7,1c2.2,0.3,4.3,0.7,6.7,1c-1.4-1.8-2.7-3.4-4-5.1c-0.7-0.9-1.4-1.8-2-2.8
					c-0.4-0.6-0.9-0.9-1.6-0.9c-0.9,0-1.8-0.3-2.7-0.4c0-0.2,0-0.3,0.1-0.5c1.1,0.1,2.3,0.2,3.5,0.3c0-1,0-2,0-3
					c0.1,0,0.2,0,0.3-0.1c0.1,0.4,0.4,0.9,0.3,1.2c-0.3,1.9,0.8,3.1,1.8,4.4c1.5,1.9,3.1,3.8,4.7,5.9c0.4-2.6,0.8-5,1.2-7.4
					c0.3-1.9,0.7-3.8,1.1-5.7c0.1-0.5,0.1-1-0.2-1.4c-0.5-0.6-0.8-1.3-1.2-2c-0.1-0.3-0.2-0.6-0.2-0.9c0.1-0.1,0.2-0.1,0.3-0.2
					c0.7,1,1.4,2,2.1,3.1c0.8-0.6,1.5-1.2,2.2-1.7c0.2-0.2,0.6-0.1,0.9-0.2c-0.1,0.2-0.2,0.6-0.4,0.7c-0.6,0.5-1.2,1-1.8,1.5
					c-0.6,0.5-1,1.1-1.2,1.9c-0.6,4-1.3,8.1-1.9,12.3c0.7-0.5,1.2-0.9,1.7-1.3c1.7-1.3,3.5-2.6,5.2-3.9c0.5-0.4,0.8-0.9,1.1-1.4
					c0.3-0.6,0.5-1.2,0.7-1.9c0.1-0.2,0.3-0.5,0.4-0.7C38.1,254.3,38.2,254.4,38.3,254.4z"/>
				<path class="st0" d="M55,256.3c0-1-0.1-2,0-2.9c0.1-0.9,0.9-1.4,1.8-1.5c1.5-0.1,3.1-0.1,4.6,0c1.2,0.1,1.7,0.8,1.9,2
					c0.1,0.7,0.1,1.3,0.2,1.7c1.6,0.9,3.2,1.7,4.6,2.7c1.9,1.4,3.2,3.3,3.3,5.8c0,0.7,0.4,1.4,0.5,2.1c0.8,4.2-1.2,8.7-5,10.9
					c-3.8,2.1-7.9,2.7-12.1,1.1c-4.6-1.8-7.8-6.5-7.4-11.4c0.4-4.8,2.9-8.1,7.1-10.3C54.7,256.4,54.9,256.4,55,256.3z M69.7,265.9
					c1.3-2.2,1.1-4-0.6-5.8c-3.3-3.5-7.5-4.5-12.1-3.5c-4.6,1-7.4,4.2-8.5,8.8c-0.4,1.7-0.3,2,1,2.9c0.5-0.8,0.9-1.6,1.4-2.4
					c0.4-0.6,0.7-0.6,1.2-0.1c0.7,0.8,1.4,1.5,2.1,2.3c0.7-1.1,1.2-2.2,1.8-3.1c0.6-0.9,1-0.8,1.6,0c0.6,0.8,1.3,1.7,1.9,2.5
					c0.7-1.2,1.3-2.3,1.9-3.3c0.4-0.6,0.7-0.7,1.3-0.1c0.8,0.9,1.6,1.7,2.5,2.6c0.5-1,1-2,1.5-2.9c0.3-0.6,0.7-0.7,1.1-0.1
					C68.4,264.4,69,265.2,69.7,265.9z M50.2,273.7c0.3-0.7,0.6-1.3,0.8-1.8c0.4-1,0.7-1.1,1.6-0.5c0.9,0.6,1.7,1.2,2.7,1.9
					c0.3-0.7,0.6-1.4,0.9-2.1c0.4-0.9,0.6-1,1.4-0.4c0.7,0.6,1.3,1.2,2,1.9c0.1-0.1,0.2-0.1,0.2-0.2c0.3-0.6,0.7-1.2,1-1.8
					c0.6-1.1,0.8-1.2,1.8-0.4c0.9,0.7,1.8,1.4,2.7,2.2c0.6-1,1.2-1.9,1.8-2.9c0.5-0.8,0.9-1,1.8-0.5c0.6,0.3,1.1,0.8,1.6,1.2
					c1.2-1.7,1.1-3.5,0.5-5.5c-0.2,0.6-0.3,1-0.5,1.4c-0.1,0.3-0.4,0.8-0.6,0.8c-0.2,0-0.6-0.3-0.8-0.6c-0.6-0.7-1.1-1.4-1.6-2.3
					c-0.5,1-1,1.9-1.4,2.8c-0.6,1-0.8,1-1.5,0.2c-0.7-0.9-1.5-1.7-2.3-2.6c-0.6,1.2-1.2,2.2-1.8,3.3c-0.5,1-0.8,1-1.5,0.1
					c-0.7-0.8-1.3-1.7-2-2.7c-0.6,1-1,1.9-1.5,2.7c-0.7,1.2-1,1.3-2,0.3c-0.6-0.6-1.2-1.2-1.7-1.8c-0.1,0.2-0.2,0.3-0.3,0.4
					c-0.3,0.5-0.5,0.9-0.8,1.4c-0.8,1.4-1,1.4-2,0.2c0,0-0.1,0-0.2,0C48.5,270.2,49.1,272,50.2,273.7z M50.7,274.2
					c3,3.4,6.8,4.6,11.2,3.8c4-0.7,7.2-2.5,8.7-6.6c-0.7-0.6-1.4-1.2-2-1.8c-0.4-0.4-0.8-0.3-1.1,0.2c-0.4,0.8-0.9,1.6-1.4,2.3
					c-0.6,0.9-1,1-1.9,0.3c-0.9-0.7-1.7-1.4-2.7-2.2c-0.5,0.9-0.9,1.7-1.4,2.5c-0.5,0.8-0.8,0.8-1.4,0.1c-0.6-0.7-1.2-1.4-1.9-2.2
					c-0.4,1-0.6,1.7-0.9,2.3c-0.4,1-0.7,1.1-1.6,0.4c-0.8-0.6-1.7-1.3-2.6-1.9C51.4,272.6,51.1,273.4,50.7,274.2z M55.6,256.1
					c2.4-0.8,4.8-0.8,7.3-0.2c0-0.4,0-0.8,0-1.1c-0.1-1.3-0.6-2-1.7-2.1c-1.3-0.1-2.6-0.1-3.9,0c-1.2,0.1-1.6,0.7-1.7,1.8
					C55.6,255,55.6,255.5,55.6,256.1z"/>
				<path class="st0" d="M113.3,91.8c0.1-3.5,2.7-8.7,8.3-9c3.1-0.2,5.4,1.1,6.9,3.9c1.4,2.6,2.5,5.4,3.3,8.3
					c1.4,5.3,2.8,10.6,4.2,16c0.9,3.7,1.6,7.5,2.4,11.3c0.2,1.2-0.5,2.6-1.6,3c-1.2,0.5-2.1,0.2-3-1.1c-1.4-2.2-2-4.6-2.7-7.1
					c-2.3-8.1-4.6-16.2-6.9-24.3c-0.2-0.9-0.7-1.7-1.1-2.5c-0.8-1.3-2.3-1.3-3,0.2c-0.4,0.8-0.6,1.8-0.8,2.7
					c-0.2,0.6-0.3,1.2-0.6,1.7c-0.9,1.6-3,1.7-4.1,0.3C113.7,94.2,113.3,93.1,113.3,91.8z M125.4,93.5c0.6,1.9,1.2,3.9,1.8,5.9
					c1-0.5,2-0.8,2.9-1.4c1.4-0.9,1.4-1.1,1-2.6c-0.1-0.4-0.2-0.9-0.4-1.3c-0.5-1.5-1-2.9-1.6-4.5c-0.5,0.7-0.9,1.3-1.3,1.9
					c-0.1,0-0.2-0.1-0.3-0.1c0.6-1.4,1.3-2.7,0.3-4.3c-0.8-1.3-1.8-2.4-3.3-3.1c0.4,2,0.2,3.8-0.7,5.5c-0.1,0.1,0,0.3,0.1,0.5
					c0.4,0.9,0.9,1.9,1.3,2.8c0.5-0.2,1.1-0.4,1.6-0.6c0,0.1,0.1,0.2,0.1,0.3C126.5,92.9,126,93.2,125.4,93.5z M127.3,100.1
					c0.3,1.3,0.7,2.8,1,4.2c0.1,0.6,0.4,0.8,1,0.7c0.8-0.1,1.6-0.3,2.4-0.4c0,0.1,0.1,0.2,0.1,0.2c-1,0.4-2,0.7-3.1,1.1
					c0.3,1.1,0.7,2.3,1,3.4c0.1,0.5,0.5,0.7,0.9,0.5c1.1-0.5,2.2-1,3.3-1.6c0.2-0.1,0.4-0.6,0.3-0.8c-0.3-1.1-0.6-2.2-0.9-3.2
					c-0.3,0-0.7,0.1-1,0.1c0-0.1,0-0.2,0-0.2c0.3-0.2,0.5-0.3,0.9-0.5c-0.5-1.9-1-3.9-1.5-5.7C130.3,98.7,128.8,99.3,127.3,100.1z
					 M114.8,88.5c0.1,0.1,0.1,0.2,0.2,0.2c1.8,0,2.9,1.1,4,2.5c0-1.3,1.6-1.8,1.1-3.3c0.2,0.3,0.5,0.5,0.5,0.6
					c1,0.1,1.8,0.1,2.6,0.2c0.6-1.1,1.2-2.4,1-3.9c0-0.4-0.3-0.9-0.6-1c-1.9-0.5-3.8-0.2-5.4,0.8c0.5,0.8,1,1.6,1.5,2.3
					c-0.1,0.1-0.1,0.1-0.2,0.2c-0.2-0.3-0.4-0.6-0.7-0.8c-0.5-0.4-1.2-1.3-1.8-0.7C116.2,86.4,115.6,87.5,114.8,88.5z M130.2,110.7
					c0.3,1,0.6,2.2,1,3.4c0.1,0.2,0.6,0.5,0.8,0.4c1-0.3,2-0.7,3-1.1c0.5-0.2,0.6-0.5,0.5-1.1c-0.3-1.2-0.5-2.4-0.8-3.5
					C133.2,109.5,131.7,110.1,130.2,110.7z M114.7,89.1c-0.6,1.8-1,3.5,0.2,5.2c1,1.4,2.5,1.3,3.2-0.2c0.7-1.5,0.6-2.3-0.5-3.5
					C116.9,89.7,115.9,89.3,114.7,89.1z M136.8,118.5c-0.4-1.7-0.7-3.3-1-4.7c-1.4,0.6-2.8,1.2-4.2,1.8c0.1,0.4,0.3,1.1,0.4,1.7
					c0.2,0.7,0.4,1.3,0.6,2c0.7-0.1,1.4-0.1,2-0.2C135.3,118.9,136,118.7,136.8,118.5z M132.8,120.2c0.6,1.2,1.2,2.4,1.8,3.6
					c0.4,0.8,1.1,1.1,2,0.7c0.7-0.3,1.4-1.3,1.2-2.1c-0.3-1.2-0.6-2.3-0.9-3.4c-0.7,0.3-1.3,0.7-1.9,0.8
					C134.4,120,133.7,120,132.8,120.2z"/>
				<path class="st0" d="M181.6,235.7c1.2-0.4,2.3-0.3,3.3,0.4c1.1-1.5,2.3-2.9,3.4-4.5c1.8-2.5,4.4-1.8,5.8,0
					c1.5,1.9,2,4.1,0.9,6.5c-0.5,1.1-0.7,2-0.2,3.2c0.4,0.9,0.5,1.9,0.4,2.8c-0.3,2.3-1.7,3.3-4.4,3.5c0.5,0.8,0.8,1.6,1.3,2.4
					c0.5,0.7,1.1,1.4,1.7,2.3c-1.5,0.2-2.7-0.5-4.2-0.9c0.1,0.8,0.1,1.5,0.2,2.3c0,0.6,0,1.2,0,1.7c0,0.2-0.1,0.6-0.2,0.6
					c-0.2,0.1-0.6,0-0.7-0.2c-1-1.1-2-2.1-2.8-3.2c-0.9-1.3-1.4-2.8-2.1-4.1c-0.5,1.3-1,2.8-1.7,4.3c-0.8,1.8-2.2,3.1-3.7,4.2
					c-0.2,0.1-0.5,0.2-0.7,0.2c0-0.2-0.1-0.4-0.1-0.7c0.1-1.1,0.2-2.3,0.4-3.6c-1.5,0.8-2.9,1.5-4.9,1.4c1.5-2.1,3.3-3.7,4.1-6
					c-0.1,0-0.1-0.1-0.2-0.1c-2.4,1.2-4.2-0.1-4.3-3.1c-0.1-2.8-0.4-5.4-1.1-8.1c-0.3-1-0.1-2.2,0.1-3.2c0.6-2.2,2.9-3.3,5.1-2.4
					c1.6,0.6,2.7,1.9,3.7,3.2C180.9,234.9,181.3,235.3,181.6,235.7z M193.9,239c1.1-2.6,1-4.4-0.1-6.3c-1.3-2.1-3.7-2.4-5.2-0.5
					c-1.1,1.5-2.2,3-3.2,4.5c-0.2,0.3-0.2,0.7-0.2,1c0.2,1.8,0.4,3.5,0.7,5.3c0,0.2,0.1,0.5,0.3,0.6c1.2,0.9,2.3,1.8,3.5,2.6
					c1.3,0.9,2.5,0.7,3.6-0.3c1.1-1,1.2-2.3,0.9-3.7c-0.3-1.3-0.8-2.6-1.1-3.9c-0.1-0.4,0.1-0.8,0.2-1.3c0.1,0,0.1,0,0.2,0
					C193.6,237.6,193.8,238.2,193.9,239z M181.1,236c-0.9-0.9-1.7-2-2.7-2.9c-0.9-0.9-2.1-1.5-3.5-1.1c-1.9,0.5-3,2.3-2.5,4.6
					c0.5,2.6,1.2,5.1,1.1,7.8c0,0.8,0.2,1.6,0.5,2.4c0.4,1,1.2,1.3,2.2,1c2.2-0.6,3.6-2.2,5-3.7C180.4,241.3,180,238.7,181.1,236z
					 M183.2,244.4c-0.7,0-1.5-0.1-1.8,0.1c-1.5,1.7-3.7,2.9-4.3,5.4c-0.2,0.8-0.8,1.4-1.3,2.1c-0.4,0.6-0.9,1.1-1.4,1.7
					c1.1-0.3,2.2-0.9,3.2-1.3c0.2-0.1,0.6-0.2,0.8-0.1c0.2,0.1,0.2,0.5,0.2,0.8c-0.1,1.1-0.2,2.1-0.3,3.2
					C181.8,252.9,183.6,249.2,183.2,244.4z M183.9,244.6c1,3.9,2.3,7.7,5.3,10.9c0-0.5,0-0.7,0-1c-0.1-1-0.1-1.9-0.2-2.9
					c0-1,0.3-1.2,1.2-0.8c0.7,0.3,1.3,0.4,1.9,0.6c-1.3-3.3-3.4-5.9-6.5-7.5C185.1,244.2,184.6,244.4,183.9,244.6z M185.2,241.2
					c-0.1-0.9-0.2-2.3-0.4-3.6c-0.1-0.4-0.3-0.9-0.6-1.2c-1-0.8-2.7-0.1-2.7,1.1c-0.1,1.6,0,3.3,0.2,4.9c0,0.4,0.5,1,0.9,1.1
					C184.5,244.3,185.2,243.7,185.2,241.2z"/>
				<path class="st0" d="M154.5,246.5c-0.5,2.3,0.2,4.6,0.6,6.9c0.4,2.4,0.9,4.9,1,7.4c0.2,3.1-1.3,5.1-4.3,6
					c-3.1,1-5.9,2.4-8.6,4.1c-2,1.2-4.1,2.4-6.5,2.7c-4.1,0.5-7.1-2.5-5.7-6.5c0.7-2,1.9-3.5,3.6-4.6c2.8-1.8,4.6-4.3,5.1-7.5
					c0.4-2.5,0.4-5,0.5-7.5c0-1,0-1.9,0-2.9c-0.7-0.1-1.5-0.1-2.2-0.3c-1.7-0.4-2.3-1.5-2-3.2c0.2-1.6,0.5-3.1,0.4-4.7
					c-0.1-2,1.7-3.8,3.5-4c2.2-0.3,4.2,0.3,6,1.2c1.9,1,3.8,1.5,5.8,0.6c0.5-0.2,1.2-0.3,1.8-0.3c2.5-0.4,4.1,0.7,4.6,3.4
					c0.3,1.6,0.4,3.3,0.4,5c0,1.7-0.8,3.1-2.3,4C155.9,246.5,155.2,246.4,154.5,246.5z M140.8,244.4c0,3.3,0.2,6.5-0.1,9.7
					c-0.2,3.1-1.4,5.9-4,7.9c-1.1,0.8-2.1,1.6-3.1,2.5c-1.3,1.2-1.9,2.7-2.1,4.4c-0.2,1.9,1.7,3.8,3.9,3.8c2.9,0.1,5.3-1,7.6-2.6
					c2.6-1.7,5.4-3.2,8.4-4.1c2.7-0.9,4-2.6,3.9-5.4c-0.1-2-0.4-4.1-0.8-6.1c-0.5-2.7-0.9-5.4-0.5-8.1c-1.4-0.4-2.8-0.7-4.1-1.3
					C147.1,243.9,144.1,243.9,140.8,244.4z M147.7,235.1c-2-1.1-4.1-2-6.5-2c-2.2,0-3.6,1-3.9,3.2c-0.3,1.8-0.4,3.6-0.5,5.4
					c0,1,0.5,1.6,1.5,1.8c0.5,0.1,1,0.1,1.5,0.1c3.4-0.3,6.7-0.5,10,0.7c1.3,0.5,2.6,0.9,3.9,1.2c0.8,0.2,2,0.2,2.6-0.2
					c1.2-0.9,1.8-2.4,1.7-4c0-1.1-0.2-2.2-0.3-3.3c-0.2-2.2-1.4-3.3-3.5-3.1c-1,0.1-1.9,0.3-2.9,0.5c-1.9,0.4-3.8,0.7-5.7,0.1
					c-0.3-0.1-0.6-0.3-1-0.5c0-0.1,0.1-0.2,0.1-0.2C145.7,234.7,146.7,234.9,147.7,235.1z"/>
				<path class="st0" d="M109.1,74.6c-1.3-0.4-2.6-0.7-3.9-1c-0.1,0.1-0.1,0.2-0.2,0.3c0.3,0.5,0.8,0.9,1,1.4
					c0.6,1.4,1.4,2.6,2.7,3.5c1.3,1,1.8,2.6,2,4.2c0.3,2.2-0.8,3.3-3.4,3.6c-3.4,0.4-6.7,1.2-9.8,2.8c-2.4,1.3-5,2.1-7.8,2.3
					c-3.9,0.3-6-3.5-5.1-6.8c0.2-0.7,0.4-1.6,1-2c1.3-1.1,1.2-2.5,1.3-3.9c0.3-4,1.4-7.7,4-10.9c1.8-2.3,4.1-3.9,7.1-4
					c2.5-0.1,4.8,0.7,7.1,1.8c2.5,1.3,4.5,3.1,6,5.5c0.2,0.3,0.6,0.5,0.9,0.5c1.7,0.2,3.1,1.5,3.3,3.2c0.2,1.1-0.9,2.6-2.2,3.1
					C111.2,78.8,109,77,109.1,74.6z M87.6,81c2.4-1.9,4.9-1.7,7.5-1.4c1.1,0.1,2.1,0.5,3.3-0.2c2.3-1.4,4.7-2.6,7.7-2.1
					c-0.8-2.7-2.9-4.4-4-6.7c0.3,0.1,0.5,0.2,0.7,0.4c0.5,0.5,0.9,1.1,1.4,1.6c0.2,0.2,0.6,0.4,0.9,0.5c1.4,0.3,2.9,0.6,4.3,0.8
					c0.4-0.5,1-1.2,1.7-1.9c-1-1.1-1.9-2.4-3-3.4c-2.1-1.8-4.6-3-7.4-3.6c-2.6-0.5-5-0.1-7.1,1.7C89.2,70.4,88,75.4,87.6,81z
					 M96.1,80.4c0-0.1,0-0.1,0-0.2c-1.4,0-2.8,0-4.2,0c-2.9,0.1-5.7,2.5-6.4,5.3c-0.6,2.4,0.9,4.9,3.3,5.4c1.2,0.2,2.4,0.1,3.6-0.2
					c1.7-0.5,3.4-1.2,5-1.8c1.9-0.7,3.8-1.5,5.8-2.1c1.6-0.5,3.4-0.6,5.1-0.9c1-0.2,1.5-0.8,1.7-1.9c0.5-3.5-2.6-6.5-6-5.8
					c-1.5,0.3-3,0.9-4.5,1.4c-1.4,0.5-2.8,1.1-4.2,1.6c-0.2,0.1-0.4,0-0.6,0.1c0-0.1,0-0.1,0-0.2C95.1,80.8,95.6,80.6,96.1,80.4z
					 M112.4,77.3c1.1,0,2.4-1.2,2.4-2.2c0-1.2-1.4-2.6-2.7-2.6c-1.1,0-2.3,1.4-2.3,2.7C109.9,76.3,111.1,77.3,112.4,77.3z"/>
				<path class="st0" d="M145.4,118.7c-0.1-1.1-0.3-2.2-0.4-3.3c-0.3,0.1-0.6,0.2-0.7,0.1c-1.5-0.6-2.9-1.2-4.4-1.8
					c-0.3-0.1-0.5-0.4-0.7-0.6c-0.4-0.5-0.7-1-0.4-1.6c0.4-0.7,1-0.8,1.7-0.6c1.4,0.3,2.6,1.1,3.5,2.1c0.2,0.2,0.4,0.4,0.7,0.6
					c-0.4-1.4-0.8-2.8-1.1-4.2c-1.7,0.1-3.3-0.4-4.7-1.1c-0.4-0.2-0.8-0.5-0.9-0.9c-0.1-0.5-0.2-1.2,0.1-1.5c0.2-0.3,1-0.6,1.4-0.4
					c1.2,0.5,2.3,1.3,3.3,1.9c-0.2-0.5-0.4-1.3-0.6-2.1c0.1,0,0.3-0.1,0.4-0.1c0.3,0.6,0.6,1.2,1,1.9c0.2-1.1,0.3-2.1,0.5-3
					c0.1-0.6,0.3-1.1,0.6-1.6c0.2-0.3,0.8-0.6,1.1-0.5c0.4,0.1,0.7,0.7,0.8,1.1c0.1,1.7-0.4,3.3-1.3,4.6c-0.9,1.2-1,2.3-0.5,3.6
					c0.3,0.8,0.4,1.7,0.6,2.6c0.3-1.4,0.6-2.7,1-4c0.2-0.5,0.4-1,0.8-1.4c0.6-0.6,1.4-0.4,1.5,0.5c0.1,0.4,0.1,0.9-0.1,1.4
					c-0.6,1.7-1.4,3.3-2.7,4.6c-0.2,0.2-0.3,0.5-0.3,0.8c0,1,0.2,2,0.3,3.2c0.2-0.4,0.4-0.6,0.5-0.8c0.6-1,1.1-2.1,1.7-3.1
					c0.8-1.1,1.8-1.4,2.5-0.9c0.6,0.4,0.5,1.2-0.3,2.4c-0.9,1.5-2.2,2.6-3.9,3.4c-0.2,0.1-0.6,0.3-0.6,0.6c-0.1,1.2-0.2,2.4-0.2,3.6
					c0.8-1.2,1.6-2.3,2.4-3.3c0.4-0.5,1-1,1.6-1.3c0.4-0.2,1.2-0.1,1.5,0.2c0.2,0.2,0.2,1.1,0,1.5c-0.6,0.9-1.3,1.7-2.1,2.3
					c-1,0.7-2.3,1.2-3.5,1.8c-0.2,0.8-0.4,1.8-0.6,2.9c-0.1,0-0.2,0-0.4-0.1c0.1-0.9,0.3-1.7,0.4-2.4c-1.4-0.5-2.6-0.9-3.9-1.4
					c-0.6-0.3-1.2-0.7-0.9-1.5c0.3-0.8,1-1,1.7-0.8c1.1,0.3,2.2,0.9,3.3,1.4c0-1,0-2.1,0-3.3c-1.1-0.2-2.2-0.4-3.3-0.7
					c-0.6-0.2-1.3-0.5-1.8-0.9c-0.8-0.6-0.6-1.5,0.3-1.8c0.6-0.2,1.5-0.2,2.1,0.1C143.6,117.2,144.4,118,145.4,118.7z M144.5,114.7
					c-1.1-1.7-2.4-2.8-3.8-3.1c-0.4-0.1-0.9,0.1-1.3,0.2c0.2,0.4,0.3,1,0.6,1.2c1.2,0.7,2.5,1.2,3.8,1.8
					C144,114.9,144.2,114.8,144.5,114.7z M146.4,123.8c0.1,0.1,0.1,0.1,0.2,0.2c1.6-0.6,3.3-1.2,4.2-2.9c0.2-0.3,0.1-0.8,0.2-1.2
					c-0.4,0.1-0.9,0.1-1.3,0.2c-0.2,0-0.4,0.2-0.5,0.4C148.3,121.6,147.4,122.7,146.4,123.8z M146.5,119c0.1,0.1,0.1,0.1,0.2,0.2
					c1.7-0.9,3-2.1,3.8-3.8c0.1-0.2,0.1-0.6,0-0.7c-0.2-0.1-0.5-0.2-0.7-0.1c-0.3,0.1-0.6,0.4-0.8,0.6
					C148.1,116.5,147.3,117.8,146.5,119z M142.7,109c0-0.1,0.1-0.2,0.1-0.3c-0.9-1.2-2-2.2-3.4-2.6c-0.3-0.1-0.9,0.1-1,0.3
					c-0.1,0.2,0,0.7,0.2,1c0.1,0.2,0.4,0.4,0.7,0.5C140.4,108.3,141.6,108.6,142.7,109z M144,108.2c0.1,0,0.2,0.1,0.3,0.1
					c1-1.5,1.7-3,1.8-4.8c0-0.3-0.2-0.6-0.4-0.9c-0.2,0.2-0.6,0.4-0.7,0.6C144.6,104.8,144.3,106.5,144,108.2z M140.8,122.9
					c0.7,1,3.4,2,4.4,1.7C144.3,122.9,141.9,121.9,140.8,122.9z M144.7,119.4c0-0.1,0.1-0.2,0.1-0.2c-0.9-1-1.9-2.1-3.4-2.2
					c-0.3,0-0.7,0.3-1,0.4c0.2,0.3,0.3,0.7,0.6,0.8C142.2,118.6,143.5,119,144.7,119.4z M148,108.7c-0.9,0.7-1.6,2.6-1.8,4.9
					C147.9,112,148.7,109.7,148,108.7z"/>
				<path class="st0" d="M216.7,255.9c1.9,2.3,2,5,1,7.7c-0.6,1.8-1.6,3.4-2.5,5c-0.5,0.9-0.9,1.9-0.6,2.9c0.1,0.3,0.2,0.6,0.4,0.9
					c0.5,0.5,0.9,1.1,0.5,1.9c-0.4,0.7-1.4,1.2-2.2,1.1c-2.7-0.3-5-1.6-7.3-2.9c-0.2-0.1-0.4-0.2-0.6-0.4c-0.4,0.5-0.7,1-1.1,1.5
					c-0.4,0.5-0.8,1-0.6,1.8c0.2,0.8-0.6,1.7-1.4,1.7c-1,0.1-1.8-0.5-2-1.6c-0.1-0.8,0.4-1.5,1.3-1.8c0.3-0.1,0.7-0.3,0.9-0.6
					c0.5-0.6,0.9-1.3,1.3-2c-1.1-0.9-2.3-1.7-3.3-2.6c-1-0.9-1.9-1.9-2.7-3c-0.4-0.6-0.7-1.4-0.7-2.2c-0.1-1.2,1.1-1.9,2.2-1.3
					c0.4,0.2,0.8,0.6,1.1,0.5c0.8-0.2,1.6-0.6,2.2-1.1c1.1-1,2-2.2,3.1-3.2c1.1-1.1,2.2-2.3,3.5-3.2c1.7-1.2,3.7-1.4,5.6-0.4
					c0.5-0.6,0.9-1.1,1.4-1.6c0.4-0.5,0.9-0.6,1.5-0.2c0.5,0.4,0.5,0.9,0.2,1.4C217.5,254.7,217.1,255.3,216.7,255.9z M200.9,263.1
					c3.5,4.1,8.2,6.1,12.6,8.3c0.4-1,0.7-1.9,1.1-2.8c0.5-1.1,1.2-2.1,1.7-3.1c0.8-1.7,1.4-3.4,1.3-5.3c-0.1-2.2-1.1-3.8-3-4.8
					c-1.9-0.9-3.7-0.6-5.3,0.7c-1.2,1-2.2,2.1-3.3,3.2C204.4,260.7,203.2,262.5,200.9,263.1z M213.8,274.8c0.5-0.4,1.1-0.6,1.2-1
					c0.1-0.3-0.4-0.8-0.8-1.1c-0.2-0.2-0.6-0.3-1-0.5c-3.3-1.7-6.8-3.2-9.7-5.5c-1.4-1.1-2.7-2.5-4-3.7c-0.3-0.3-0.9-0.2-1.3-0.3
					c-0.1,0.4-0.3,0.9-0.2,1.2c0.3,0.7,0.7,1.5,1.3,2.1c2.8,3.2,6.4,5.5,10.3,7.3C210.9,273.9,212.3,274.3,213.8,274.8z
					 M202.1,273.9c-0.4,0.6-0.8,1-0.8,1.4c0,0.6,0.4,1.1,1,1c0.4-0.1,0.9-0.6,0.9-0.9C203.1,274.9,202.6,274.5,202.1,273.9z
					 M216.3,255.5c0.4-0.6,0.8-1,1.1-1.5c0.1-0.2,0-0.4,0-0.6c-0.2,0-0.5,0-0.6,0.1c-0.5,0.5-0.9,1-1.3,1.5
					C215.8,255.1,216,255.3,216.3,255.5z M204.5,271.2c-0.6,0.9-1.1,1.7-1.6,2.5c0.1,0.1,0.1,0.1,0.2,0.2c0.8-0.4,1.1-1.4,1.7-2.1
					C204.8,271.8,204.6,271.5,204.5,271.2z"/>
				<path class="st0" d="M52.7,246.5c-1.2-0.2-2.2-0.3-3.2-0.5c-0.9-0.2-1.2,0-1.5,0.9c-0.3,1-0.8,2-1.3,3c-0.2,0.4-0.7,0.5-1.1,0.8
					c-0.2-0.4-0.6-0.7-0.7-1.1c-0.3-1.2-0.4-2.5-0.6-3.8c-0.1-0.6-0.3-0.8-0.8-0.9c-0.9-0.2-1.8-0.4-2.6-0.8
					c-0.3-0.1-0.6-0.5-0.7-0.8c0-0.2,0.4-0.5,0.7-0.7c0.9-0.4,1.8-0.8,2.7-1.2c0.5-0.2,0.6-0.5,0.5-1c-0.2-1-0.3-2.1-0.3-3.2
					c0-0.4,0.3-0.8,0.5-1.2c0.3,0.2,0.7,0.3,1,0.6c0.8,0.8,1.5,1.6,2.3,2.5c0.3,0.4,0.6,0.4,1.1,0.3c1-0.3,2-0.6,3-0.9
					c0.8-0.2,1.1,0.3,0.8,1c-0.3,0.8-0.7,1.5-1.1,2.2c-0.4,0.7-0.3,1.2,0.3,1.7c0.6,0.5,1.1,1.1,1.6,1.8c0.2,0.3,0.3,0.7,0.2,1
					C53.3,246.4,52.8,246.4,52.7,246.5z M51.9,245.6c0-0.1,0.1-0.1,0.1-0.2c-1.7-1-3.4-2.1-5.3-3.2c-0.2,2.5-0.4,4.7-0.5,6.9
					c0.1,0,0.2,0,0.2,0.1c0.3-0.9,0.8-1.8,1-2.8c0.3-1,0.8-1.3,1.8-1.2C50.1,245.3,51,245.4,51.9,245.6z M45.5,248.3
					c0.1,0,0.1,0,0.2,0c0.2-2,0.3-3.9,0.5-6c-1.5,0.4-2.8,0.8-4.5,1.3c0.8,0.2,1.4,0.4,2.1,0.5c0.8,0.1,1.1,0.6,1.2,1.3
					C45.2,246.4,45.4,247.4,45.5,248.3z M51.3,244.3c0,0,0.1-0.1,0.1-0.1c-0.1-0.1-0.2-0.2-0.3-0.3c-1-1.1-1-1.3-0.4-2.6
					c0.3-0.5,0.6-1.1,0.9-1.6c0,0-0.1-0.1-0.1-0.1c-1.3,0.8-2.6,1.7-3.9,2.5C48.9,242.8,50.1,243.5,51.3,244.3z M44.7,238
					c-0.1,0-0.1,0-0.2,0c0.1,0.9,0.1,1.8,0.2,2.7c0.1,0.6-0.2,1-0.8,1.3c-0.8,0.3-1.6,0.7-2.4,1c0,0.1,0,0.1,0.1,0.2
					c1.6-0.5,3.1-0.9,4.8-1.4C45.8,240.5,45.3,239.2,44.7,238z M46.9,241.9c1.3-0.8,2.4-1.5,3.5-2.2c-0.5,0-1,0.1-1.4,0.3
					c-1,0.5-1.6,0.2-2.3-0.6c-0.5-0.6-1.1-1.2-1.6-1.8c0,0-0.1,0.1-0.1,0.1C45.6,239,46.3,240.3,46.9,241.9z"/>
				<path class="st0" d="M113.4,110.5c0.8,0.1,1.6,0.1,2.5,0.3c0.6,0.1,0.7-0.1,1-0.5c0.5-1,1.1-2,1.7-3c0.2-0.2,0.5-0.5,0.8-0.5
					c0.2,0,0.5,0.4,0.5,0.7c0.2,1.2,0.5,2.3,0.6,3.5c0.1,0.5,0.2,0.6,0.7,0.7c1.1,0.1,2.2,0.3,3.3,0.6c0.9,0.2,1,0.8,0.3,1.4
					c-0.7,0.6-1.4,1.1-2.1,1.6c-0.5,0.3-0.8,0.6-0.6,1.2c0.2,0.8,0.3,1.5,0.4,2.3c0,0.4,0,0.9-0.3,1.1c-0.2,0.2-0.7,0-1-0.1
					c-1.1-0.7-2.2-1.4-3.2-2.1c-0.5-0.3-0.9-0.4-1.4,0c-0.9,0.7-1.9,1.3-2.9,1.9c-0.2,0.1-0.7,0.2-0.9,0c-0.2-0.2-0.2-0.6-0.1-0.9
					c0.4-1.2,0.8-2.3,1.3-3.4c0.2-0.6,0.1-1-0.3-1.5c-0.5-0.6-1-1.2-1.4-1.9c-0.2-0.3-0.2-0.7-0.3-1c0.3-0.1,0.7-0.2,1-0.3
					C113,110.5,113.2,110.5,113.4,110.5z M121.8,118.7c-0.1-0.9-0.2-1.6-0.3-2.2c-0.2-0.8,0.1-1.3,0.7-1.7c0.7-0.5,1.4-1,2.2-1.6
					c-2.2,0.4-4.2,0.8-6.1,1.2C119.4,115.7,120.5,117.1,121.8,118.7z M123.6,112.9c0-0.1,0-0.2,0-0.3c-0.8-0.1-1.6-0.2-2.3-0.2
					c-1,0-1.4-0.6-1.5-1.6c-0.1-0.8-0.3-1.7-0.4-2.5c-0.1,0-0.2,0-0.2,0c-0.3,1.8-0.6,3.7-0.9,5.7
					C120.1,113.5,121.9,113.2,123.6,112.9z M120.8,118.5c0-0.1,0.1-0.1,0.1-0.2c-1.1-1.3-2.1-2.6-3.3-4c-1.4,1.4-2.7,2.8-4,4.1
					c0.1,0.1,0.1,0.1,0.2,0.2c0.8-0.5,1.6-1,2.3-1.6c1.1-0.8,1.3-0.9,2.5-0.1C119.3,117.6,120,118.1,120.8,118.5z M118.6,108.7
					C118.6,108.7,118.5,108.6,118.6,108.7c-0.4,0.6-0.9,1.3-1.1,1.9c-0.3,0.7-0.8,0.9-1.5,0.8c-0.8-0.1-1.7-0.1-2.5-0.2
					c0,0,0,0.1,0,0.1c1.4,0.8,2.8,1.5,4.3,2.3C118,112,118.3,110.3,118.6,108.7z M114.2,116.9c0.9-0.8,2-1.8,3.1-2.9
					c-1.3-0.7-2.4-1.3-3.6-1.9c-0.1,0-0.3,0.1-0.4,0.1C115.6,113.7,114.9,115.4,114.2,116.9z"/>
				<path class="st0" d="M122.8,271.5c0.3-0.9,0.6-1.6,0.9-2.4c0.1-0.1,0.1-0.3,0.2-0.4c0.6-1.1,1.5-1.6,2.3-1.4
					c0.8,0.2,1.3,1.1,1.4,2.3c0.1,3.1-1.3,5.7-3.3,8c-0.3,0.3-0.8,0.5-1.3,0.6c-2.9,0.3-5.5-0.4-7.9-2.2c-0.8-0.6-1.3-1.5-1.3-2.6
					c0-1.1,0.7-1.8,1.8-1.8c1.1,0,2.1,0.3,3.2,0.5c-0.1-0.3-0.3-0.7-0.4-1.2c-0.2-0.9-0.5-1.9-0.5-2.8c0-0.5,0.4-1.2,0.8-1.4
					c0.4-0.2,1.3,0,1.5,0.3c0.8,1,1.4,2.1,2.1,3.2C122.6,270.6,122.6,271,122.8,271.5z M122.2,277.5c0.7,0,1.6,0.2,2-0.7
					c0.7-1.3,1.6-2.5,2.1-3.8c0.4-1.1,0.5-2.4,0.6-3.6c0-0.4-0.4-0.9-0.7-1.4c-0.4,0.3-1,0.4-1.3,0.8c-0.3,0.4-0.5,0.9-0.7,1.4
					c-0.3,0.9-0.6,1.9-0.9,2.9c-0.1,0.2-0.3,0.4-0.5,0.6c-0.2-0.2-0.4-0.4-0.4-0.6c-0.2-0.8-0.3-1.7-0.6-2.5c-0.5-1-1.1-2-1.7-2.9
					c-0.1-0.2-0.7-0.4-0.9-0.3c-0.2,0.2-0.4,0.6-0.4,0.9c-0.1,0.2,0,0.5,0.1,0.8c0.4,1.1,0.8,2.2,1.1,3.3c0.1,0.3,0,0.7,0.1,1.1
					c-0.4-0.1-0.7-0.1-1.1-0.2c-1-0.3-2-0.7-3-0.9c-1-0.1-1.5,0.6-1.1,1.5c0.3,0.7,0.8,1.4,1.4,1.8C118,277,120,277.5,122.2,277.5z"
					/>
				<path class="st0" d="M71.4,248.6c0-0.8,0.1-1.6,0.1-2.4c0.1-0.6-0.2-0.9-0.7-1.1c-0.5-0.2-1-0.4-1.5-0.7c-0.4-0.2-0.7-0.6-1-0.9
					c0.4-0.3,0.7-0.6,1.1-0.8c0.6-0.2,1.2-0.4,1.8-0.5c0.6-0.1,0.9-0.4,0.9-1c0-0.8,0.2-1.7,0.4-2.5c0.1-0.3,0.4-0.5,0.6-0.7
					c0.2,0.2,0.5,0.3,0.6,0.6c0.5,0.7,0.9,1.5,1.3,2.3c0.3,0.8,0.8,0.9,1.6,0.7c0.8-0.2,1.7-0.3,2.5-0.4c0.7-0.1,0.9,0.3,0.6,0.8
					c-0.3,0.5-0.6,1.1-1,1.5c-0.4,0.5-0.5,1-0.2,1.6c0.3,0.5,0.5,1,0.7,1.6c0.1,0.3,0.1,0.8-0.1,1.1c-0.1,0.2-0.7,0.1-1,0
					c-0.7-0.2-1.5-0.5-2.2-0.9c-0.6-0.3-1-0.3-1.4,0.4c-0.4,0.7-0.8,1.3-1.3,1.9c-0.4,0.4-1,0.6-1.5,0.9c-0.2-0.5-0.4-1-0.6-1.5
					C71.3,248.7,71.3,248.7,71.4,248.6z M78.8,242.5c-0.1,0-0.2-0.1-0.2-0.1c-1.2,0.5-2.4,1-3.7,1.6c1.2,0.8,2.3,1.6,3.4,2.4
					C77.5,245,77.5,243.7,78.8,242.5z M70.2,243.9c0,0.1,0,0.1,0,0.2c0.3,0.1,0.5,0.3,0.8,0.4c1,0.3,1.4,1,1.3,2
					c-0.1,0.6,0,1.2,0,1.8c0.1,0,0.1,0,0.2,0c0.6-1.3,1.1-2.7,1.7-4.1C72.7,244.1,71.5,244,70.2,243.9z M72.7,248.8
					c0,0,0.1,0.1,0.1,0.1c0.5-0.7,1-1.3,1.4-2c0.5-0.8,1.1-1,1.9-0.6c0.5,0.2,0.9,0.4,1.4,0.5c0,0,0.1-0.1,0.1-0.1
					c-1-0.8-2-1.5-3.1-2.3C73.8,245.9,73.2,247.4,72.7,248.8z M73.1,239.4c-0.2,1.2-0.1,2.3-0.6,2.9c-0.5,0.6-1.6,0.8-2.4,1.2
					c1.3,0,2.6,0,4,0C73.8,242.2,73.5,240.9,73.1,239.4z M78.5,242c0,0,0-0.1-0.1-0.1c-0.8,0.1-1.7,0.2-2.5,0.4
					c-0.7,0.2-1-0.1-1.2-0.6c-0.3-0.5-0.6-1.1-0.9-1.6c0,0-0.1,0-0.1,0.1c0.3,1.2,0.5,2.4,0.8,3.6C76,243.1,77.3,242.6,78.5,242z"/>
				<path class="st0" d="M115.8,287c0.9,0.1,1.6,0.1,2.3,0.3c0.5,0.1,0.8-0.1,1-0.5c0.2-0.6,0.5-1.1,0.8-1.6
					c0.2-0.2,0.5-0.4,0.7-0.6c0.2,0.3,0.4,0.5,0.5,0.8c0.2,0.7,0.3,1.4,0.4,2c0.1,0.5,0.3,0.8,0.9,0.8c0.8,0,1.6,0.2,2.4,0.4
					c0.3,0.1,0.6,0.4,0.9,0.5c-0.2,0.3-0.4,0.5-0.5,0.8c-0.1,0.1-0.2,0.2-0.3,0.2c-1.7,0.8-2.2,2-1.6,3.7c0.1,0.3-0.1,0.8-0.3,1
					c-0.2,0.1-0.7,0-1-0.2c-0.8-0.6-1.6-1.2-2.3-1.9c-0.4-0.4-0.7-0.4-1.2-0.1c-0.6,0.4-1.3,0.9-2,1.2c-0.3,0.1-0.7,0-1,0
					c0-0.3-0.1-0.7,0-1c0.3-0.8,0.6-1.5,1-2.2c0.3-0.6,0.3-1-0.2-1.4c-0.3-0.3-0.6-0.6-0.9-0.9c-0.2-0.3-0.4-0.7-0.3-1
					C115.2,287.1,115.7,287,115.8,287z M122.3,292.9c0.1,0,0.2,0,0.3,0c-0.8-1.7,0.5-2.4,1.7-3.3c-1.4,0.3-2.6,0.5-4,0.8
					C121,291.3,121.7,292.1,122.3,292.9z M124.1,289.2c-1-0.2-2-0.2-2.5-0.6c-0.5-0.4-0.6-1.4-1-2.3c-0.1,1.3-0.2,2.4-0.3,3.7
					C121.6,289.6,122.8,289.4,124.1,289.2z M121.8,293.4C121.8,293.4,121.9,293.4,121.8,293.4c-0.7-1.1-1.4-2.1-2.2-3.2
					c-1,0.8-1.9,1.6-2.9,2.5c0.6-0.2,1.1-0.5,1.6-0.8c0.7-0.5,1.2-0.4,1.8,0.1C120.7,292.5,121.2,293,121.8,293.4z M117.1,288.1
					c0.9,0.5,1.7,1.1,2.6,1.6c0.1-1.1,0.3-2.1,0.4-3.1C119.6,288.3,118.4,288.1,117.1,288.1z M117.4,288.8c0.8,1.2-0.4,2.1-0.5,3.2
					c0.9-0.7,1.6-1.4,2.4-2C118.6,289.6,118,289.2,117.4,288.8z"/>
				<path class="st0" d="M167.7,256.2c0.4-0.7,0.7-1.5,1.3-2.1c0.4-0.4,1.1-0.7,1.6-0.7c0.8,0,1.1,0.8,1.2,1.5
					c0.3,2.6-0.3,5-1.7,7.1c-1,1.6-2.9,1.9-4.6,1.7c-1.4-0.2-2.7-0.7-4.1-1.1c-0.1,0-0.2-0.1-0.3-0.2c-1.2-0.8-1.8-1.9-1.5-2.8
					c0.3-1,1.4-1.6,2.8-1.6c0.5,0,1,0,1.5,0c-0.3-0.7-0.6-1.3-0.9-2c-0.2-0.5-0.4-1-0.5-1.5c-0.1-0.8-0.1-1.6,0.7-2.1
					c0.8-0.4,1.6-0.1,2.1,0.6C166.2,254,167,255.1,167.7,256.2z M165.9,262.9c0.2,0,0.4,0,0.6,0c2.2-0.1,3-0.7,3.7-2.8
					c0.1-0.4,0.4-0.8,0.4-1.3c0.2-1.2,0.5-2.4,0.6-3.6c0-0.4-0.4-0.8-0.7-1.3c-0.4,0.2-0.9,0.3-1.1,0.7c-0.5,0.7-0.8,1.5-1.1,2.3
					c-0.1,0.2-0.3,0.5-0.5,0.7c-0.2-0.2-0.4-0.4-0.5-0.6c-0.6-1-1.2-2.1-1.9-3.1c-0.4-0.5-0.9-1.3-1.6-0.8c-0.3,0.2-0.3,1.2-0.2,1.8
					c0.3,1.1,0.9,2.1,1.3,3.1c0.1,0.3,0.1,0.6,0.1,0.9c-0.3,0-0.6,0.1-0.9,0c-0.7-0.1-1.4-0.2-2.1-0.2c-0.7,0.1-1.5,0.2-1.7,1.1
					c-0.2,0.9,0.5,1.4,1.1,1.8C162.8,262.6,164.3,262.9,165.9,262.9z"/>
				<path class="st0" d="M82,257.9c-0.2,1.2-0.3,2.2-0.6,3.1c-0.2,0.7-0.6,1.5-1,2.1c-0.5,0.7-1.3,0.5-1.5-0.3
					c-0.2-1.1-0.1-2.2-0.1-3.3c0-0.3,0.1-0.6,0.1-1c-0.7,0.4-1.3,0.7-1.9,1c-1.2,0.5-2.2,0.4-2.6-0.2c-0.4-0.7-0.1-1.6,0.8-2.6
					c1.6-1.6,3.7-2.2,5.8-2.4c0.4,0,0.9,0.1,1.2,0.3c1.8,0.9,2.9,2.4,3.3,4.4c0.1,0.4-0.1,1-0.4,1.3c-0.2,0.2-0.9,0-1.2-0.3
					C83.2,259.4,82.7,258.7,82,257.9z M84.6,259.8c0.1-0.1,0.2-0.1,0.3-0.2c0-0.2,0-0.5-0.1-0.7c-0.6-1.6-1.6-2.8-3.1-3.7
					c-0.2-0.1-0.4-0.2-0.6-0.2c-2.3,0.2-4.3,1-5.9,2.7c-0.3,0.3-0.2,0.8-0.3,1.2c0.4,0,0.8,0.2,1.2,0.1c0.8-0.3,1.6-0.8,2.4-1.2
					c0.3-0.1,0.7-0.2,1-0.3c0,0.3,0.1,0.7,0.1,1c0,0.4-0.2,0.8-0.2,1.2c0,1-0.4,2.1,0.4,3.3c0.3-0.7,0.7-1.2,0.8-1.7
					c0.3-1.1,0.4-2.3,0.7-3.4c0.1-0.3,0.3-0.6,0.4-0.9c0.3,0.2,0.6,0.4,0.8,0.6C83.1,258.4,83.8,259.1,84.6,259.8z"/>
				<path class="st0" d="M42.7,286.3c-1.1,0-2-0.8-2-1.8c0-1.1,1.1-2.1,2.4-2c1,0,1.8,0.8,1.8,1.7C44.8,285.5,44,286.4,42.7,286.3z
					 M43.2,283.1c-1,0-1.7,0.5-1.7,1.3c0,0.7,0.5,1.1,1.3,1.1c0.7,0,1.5-0.7,1.5-1.6C44.3,283.2,43.7,283.2,43.2,283.1z"/>
				<path class="st0" d="M106.6,97.9c-1.2,0-2.1-0.8-2.1-1.9c0-1.1,1-2.1,2.1-2.1c1.1,0,2.4,1.1,2.4,2
					C109,96.8,107.6,97.9,106.6,97.9z M106.6,97.2c0.8,0,1.9-0.7,1.8-1.3c0-0.6-1-1.3-1.7-1.3c-0.9,0-1.6,0.6-1.6,1.4
					C105.2,96.7,105.8,97.2,106.6,97.2z"/>
				<path class="st0" d="M142.1,280.2c-0.4-0.2-0.6-0.4-0.9-0.6c-0.7-0.3-1.3-0.4-1.8,0.3c-0.2,0.3-0.4,1-0.2,1.3
					c0.3,0.5,0.9,0.7,1.5,0.3c0.5-0.3,1-0.7,1.5-1.1c0.2,0.6-0.7,1.7-1.6,2c-1,0.3-2.2-0.4-2.4-1.3c-0.1-0.9,0.9-2.2,1.8-2.3
					C141.2,278.6,142.1,279.2,142.1,280.2z"/>
				<path class="st0" d="M100.2,287.7c0.8,0,1.4,0.4,1.4,1.1c0,1-0.8,1.8-1.8,1.8c-0.7,0-1.4-0.7-1.4-1.4
					C98.4,288.5,99.3,287.7,100.2,287.7z M101.1,289.1c-0.5-0.7-1-0.9-1.5-0.5c-0.4,0.3-0.6,0.7-0.2,1
					C100.2,290.2,100.6,289.6,101.1,289.1z"/>
				<path class="st0" d="M73.6,287.1c-0.6-0.1-1.1-0.3-1.6-0.3c-0.2,0-0.6,0.7-0.5,0.9c0.1,0.5,0.6,0.6,1.1,0.3
					c0.3-0.2,0.6-0.4,1-0.5c-0.5,1.1-1.2,1.6-2,1.3c-0.8-0.3-1.1-0.9-0.9-1.7c0.2-0.7,1.1-1.3,1.8-1.2
					C73.3,286.1,73.6,286.5,73.6,287.1z"/>
				<path class="st0" d="M136.3,85.3c-0.6,1.2-1.6,1.7-2.4,1.4c-0.8-0.3-1.4-0.9-1.3-1.6c0.1-1,0.9-1.9,1.7-2
					c0.8-0.1,1.5,0.5,1.9,1.6c-0.4-0.3-0.6-0.4-0.8-0.6c-0.6-0.5-1.2-0.5-1.7,0c-0.4,0.4-0.8,1-0.3,1.6c0.5,0.6,1.2,0.6,1.8,0.2
					C135.5,85.8,135.8,85.6,136.3,85.3z"/>
				<path class="st0" d="M140.5,97.6c-0.6-1.1-1-1.4-1.7-1.1c-0.6,0.2-1.1,1.2-0.9,1.7c0.6,1.3,1.4,0.1,2.1,0.2
					c-0.3,0.8-1.3,1.2-2,1c-0.7-0.3-1-1.2-0.7-2c0.5-1.2,1.6-1.8,2.6-1.3C140.5,96.3,140.9,96.8,140.5,97.6z"/>
				<path class="st0" d="M6.1,275.4c0-0.9,0.7-1.5,1.6-1.5c0.6,0,1.1,0.7,1.1,1.4c0,0.7-0.8,1.7-1.4,1.7
					C6.8,277,6.1,276.2,6.1,275.4z M7.7,274.1c-0.4,0.6-0.8,1-0.8,1.4c0,0.2,0.4,0.5,0.6,0.8c0.3-0.4,0.6-0.8,0.7-1.2
					C8.3,274.8,8,274.5,7.7,274.1z"/>
				<path class="st0" d="M111.8,105.9c-0.8-0.2-1.5-0.8-1.6-1.4c0-0.6,0.8-1.4,1.5-1.3c0.7,0,1.8,0.9,1.6,1.3
					C113,105.1,112.3,105.5,111.8,105.9z M111.7,105.3c0.4-0.3,0.7-0.6,1-0.8c-0.3-0.2-0.6-0.6-0.9-0.6c-0.3,0-0.6,0.4-0.8,0.7
					C111.2,104.7,111.4,104.9,111.7,105.3z"/>
				<path class="st0" d="M30.1,239.7c0,0.8-0.7,1.6-1.3,1.6c-0.7,0-1.3-0.7-1.3-1.5c0-0.8,0.6-1.3,1.4-1.3
					C29.6,238.5,30.1,239,30.1,239.7z M29.8,239.6c-0.5-0.2-0.8-0.5-0.9-0.4c-0.3,0.1-0.6,0.5-0.7,0.7c0,0.2,0.4,0.5,0.6,0.7
					C29.1,240.3,29.4,240,29.8,239.6z"/>
				<path class="st0" d="M62.8,287.8c0,0.9-0.6,1.6-1.4,1.5c-0.6,0-1.1-0.6-1.1-1.2c0-0.7,0.7-1.5,1.4-1.6
					C62.3,286.6,62.8,287.1,62.8,287.8z M62.5,287.7c-0.4-0.3-0.8-0.6-0.8-0.5c-0.3,0.3-0.5,0.6-0.7,0.9c0,0.1,0.4,0.5,0.5,0.5
					C61.8,288.4,62,288.1,62.5,287.7z"/>
				<path class="st0" d="M15.9,282c0.1,0.8-0.4,1.5-1.1,1.5c-0.4,0-1-0.4-1.2-0.8c-0.3-0.5,0.3-1.5,1-1.7c0.5-0.1,0.9-0.1,1,0.3
					c-0.5,0.3-1,0.5-1.3,0.9c-0.3,0.4,0.2,0.8,0.7,0.5C15.3,282.5,15.6,282.3,15.9,282z"/>
				<path class="st0" d="M154.1,269.6c0.1,0.6-1,2.3-1.8,2.7C152.3,271.5,153.3,269.9,154.1,269.6z"/>
				<path class="st0" d="M150.2,275.8c0.2-0.8,0.3-1.6,0.5-2.4c0-0.1,0.2-0.2,0.4-0.2c0.1,0,0.2,0.2,0.2,0.2
					c-0.2,0.8-0.4,1.7-0.6,2.5C150.6,275.9,150.4,275.9,150.2,275.8z"/>
				<path class="st0" d="M50.6,288.9c-0.2-0.7,0.6-2.1,1.4-2.5C52.2,286.9,51.6,288,50.6,288.9z"/>
				<path class="st0" d="M53,285.9c0.3,1.1,0.6,2.1,0.9,3C53,288.7,52.4,286.7,53,285.9z"/>
				<path class="st0" d="M77.7,272c0.6,0.4,1.6,2,1.5,2.4c0,0.1-0.1,0.3-0.3,0.3c-0.1,0-0.3-0.1-0.4-0.2C78.2,273.8,78,273,77.7,272
					z"/>
				<path class="st0" d="M204.9,243.7c-0.3-0.8-0.1-1.6-0.1-2.4c0-0.1,0.2-0.2,0.3-0.2c0.1,0.1,0.3,0.2,0.3,0.4
					c0,0.7-0.1,1.5-0.1,2.2C205.2,243.7,205,243.7,204.9,243.7z"/>
				<path class="st0" d="M51.4,282.2c0.9,0.4,1.4,1.9,1,2.9C52,284,51.7,283.1,51.4,282.2z"/>
				<path class="st0" d="M151.5,272c-0.3-0.8-0.6-1.7-0.9-2.7c0.9,0.4,1.4,1.9,1.2,2.6C151.7,272,151.6,272,151.5,272z"/>
				<path class="st0" d="M208,242.3c-0.3,0.7-1.6,1.5-2.3,1.5C206,243,207.2,242.3,208,242.3z"/>
				<path class="st0" d="M150.7,272.6c-0.8,0-1.5,0-2.3,0c0-0.1-0.1-0.1-0.1-0.2c0.2-0.1,0.3-0.4,0.5-0.4c0.7,0,1.4-0.1,2,0.3
					C150.7,272.5,150.7,272.6,150.7,272.6z"/>
				<path class="st0" d="M79.9,274.8c-0.1-0.9,0.5-2,1.2-2.2C81.2,273.4,80.6,274.5,79.9,274.8z"/>
				<path class="st0" d="M80.1,276c0.7-0.4,2,0,2.1,0.5c0,0.1,0,0.3-0.1,0.3c-0.1,0.1-0.3,0.1-0.4,0.1
					C81.2,276.6,80.7,276.3,80.1,276z"/>
				<path class="st0" d="M152.6,273.2c0.6,0.4,1.1,0.8,1.7,1.2c0.1,0.1,0.1,0.3,0.1,0.4c-0.2,0-0.4,0.1-0.5,0.1
					c-0.6-0.4-1.1-0.9-1.6-1.3C152.4,273.4,152.5,273.3,152.6,273.2z"/>
				<path class="st0" d="M77.9,275.1c-0.8,0.3-1.8,0-2.3-0.9c0.9,0.2,1.6,0.4,2.3,0.5C77.9,274.9,77.9,275,77.9,275.1z"/>
				<path class="st0" d="M55.7,286.7c-0.7-0.2-1.3-0.4-2-0.6c-0.1,0-0.1-0.2-0.1-0.3c0.1-0.1,0.2-0.3,0.3-0.2
					c0.6,0.2,1.3,0.4,1.9,0.6C55.8,286.3,55.7,286.5,55.7,286.7z"/>
				<path class="st0" d="M126.7,123.9c-0.1-1,0.5-1.8,1.4-1.9C127.6,122.7,127.1,123.3,126.7,123.9z"/>
				<path class="st0" d="M125.3,123.5c-0.3-0.7-0.6-1.3-0.9-2.1c0.8,0,1.3,1,1.2,2C125.4,123.4,125.3,123.5,125.3,123.5z"/>
				<path class="st0" d="M55.3,283.5c-0.8,0.6-1.5,1.2-2.3,1.7C53.1,284.3,54.2,283.4,55.3,283.5z"/>
				<path class="st0" d="M202.3,245.6c0.6-0.4,1.1-0.9,1.7-1.3c0.1,0.8-0.8,1.5-1.6,1.5C202.4,245.7,202.4,245.7,202.3,245.6z"/>
				<path class="st0" d="M156.3,272.1c-0.6,0.2-1.3,0.4-1.9,0.7C154.3,272,155.4,271.5,156.3,272.1z"/>
				<path class="st0" d="M78.4,276.2c-0.3,0.5-0.5,1.1-0.8,1.6c0,0.1-0.3,0.1-0.4,0.1c-0.1,0-0.1-0.3-0.1-0.4c0.3-0.5,0.5-1,0.8-1.5
					C78.1,276.1,78.3,276.2,78.4,276.2z"/>
				<path class="st0" d="M51.3,285.5c-0.7-0.2-1.4-0.4-2.3-0.6c0.8-0.5,1.7-0.3,2.3,0.3C51.4,285.3,51.3,285.4,51.3,285.5z"/>
				<path class="st0" d="M203.9,243.5c-0.5-0.4-1-0.9-1.5-1.3c0.9-0.1,1.7,0.5,1.7,1.1C204.1,243.4,204,243.5,203.9,243.5z"/>
				<path class="st0" d="M206.2,245.4c1,0.1,1.6,0.9,1.4,2C207.1,246.7,206.7,246.1,206.2,245.4z"/>
				<path class="st0" d="M126.1,125.4c0.7,0.6,1.2,1.1,1.8,1.7C127.1,127.3,126.2,126.5,126.1,125.4z"/>
				<path class="st0" d="M205.3,245.3c-0.1,0.6-0.2,1.2-0.3,1.7c0,0.1-0.2,0.2-0.3,0.3c-0.1,0-0.2-0.1-0.3-0.2
					C204.2,246.7,204.8,245.5,205.3,245.3z"/>
				<path class="st0" d="M79.3,278.5c0-0.9,0-1.6,0-2.4C79.9,276.6,79.9,277.8,79.3,278.5z"/>
				<path class="st0" d="M124.4,127.1c-0.2-0.8-0.1-1.3,0.8-1.8c-0.2,0.7-0.3,1.3-0.5,1.8C124.5,127.2,124.4,127.1,124.4,127.1z"/>
				<path class="st0" d="M124.4,124.3c-0.5,0.1-1,0.1-1.6,0.2C123.2,123.8,123.7,123.7,124.4,124.3z"/>
				<path class="st0" d="M183.1,268.2c0.5,0.7,1,1.3,1.5,2c-0.1,0.1-0.2,0.1-0.3,0.2C183.8,269.7,183.3,269.1,183.1,268.2
					C183.2,268.2,183.1,268.2,183.1,268.2z"/>
			</g>
			<g>
				<g>
					<path class="st0" d="M112.5,129.3c1.7,1,1.9,2.8,2.3,4.7c1.5-0.3,2.9-0.4,4.3-0.9c1.9-0.6,2.8,0.5,2.6,2.1
						c-0.4,2.3-0.9,4.5-1.3,6.8c-0.5,2.7-0.6,5.3,0.1,8c0.2,0.6,0.4,1.1,0.6,1.7c0.5,0.9,1.2,1,2,0.4c0.3-0.2,0.5-0.4,0.8-0.7
						c2.9-3.4,4.6-7.4,5-11.9c0-0.2,0-0.3,0-0.4c-0.6-0.3-1.3-0.5-1.7-0.9c-0.6-0.6-1.1-1.3-1.3-2.1c-0.3-1,0.4-1.9,1.2-2.2
						c0.9-0.3,1.8,0.1,2.3,1.1c0.2,0.4,0.3,0.9,0.5,1.3c0.1,0.5,0.1,0.9,0.2,1.5c0.5,0,1,0.1,1.5,0.1c1.5,0.1,2.2,0.9,2.2,2.4
						c0,1.4-0.3,2.9-0.3,4.3c0,2.3,0.1,4.6,0.3,7c0,0.6,0.4,1.2,0.7,2.1c0.6-0.7,1.1-1.1,1.4-1.7c1.3-1.9,1.9-4.1,2.5-6.3
						c0.7-2.8,1.3-5.6,1.8-8.4c0.1-0.6,0.1-1.2,0.1-1.8c0-0.4,0-0.8,0.2-1.1c0.2-0.3,0.6-0.7,0.8-0.7c0.3,0.1,0.7,0.5,0.8,0.9
						c0.2,1.1,0.2,2.3,0.3,3.4c0.1,0.6,0.4,1.2,0.7,2c0.5-0.6,1-0.9,1.2-1.4c0.6-1.5,1.1-3.1,1.7-4.7c0.1-0.4,0.4-0.7,0.7-1.1
						c0.4,0.3,1,0.6,1.1,1c0.4,1.7,0.7,3.4,0.8,5.1c0.2,2.7,0.2,5.5,0.2,8.2c0,0.2,0,0.4,0,0.6c0.6,0.1,1.3,0.1,1.9,0.3
						c2.5,0.5,4.5,1.8,5.9,3.9c0.8,1.2,1.6,2.4,2.3,3.7c0.2,0.3,0.2,1.1-0.1,1.3c-0.5,0.5-1,0-1.3-0.4c-0.9-1.3-1.7-2.6-2.7-3.8
						c-1.5-2-3.6-3-6.1-3.2c-0.3,1.6-0.5,3.2-0.8,4.7c-0.6,3-1.5,5.8-3.9,7.9c-0.8,0.7-1.8,1.3-2.8,1.7c-1.8,0.6-3.2-0.5-3.4-2.7
						c-0.2-1.6,0.2-3.1,0.9-4.5c1.2-2.4,2.5-4.8,4.6-6.6c0.8-0.7,1.8-1.1,2.7-1.7c0.2-0.2,0.6-0.5,0.6-0.7
						c-0.1-3.6-0.3-7.2-0.5-10.9c0-0.1-0.1-0.2-0.1-0.4c-0.3,1-0.6,1.8-1,2.7c-0.1,0.3-0.3,0.6-0.5,0.9c-1.1,1.9-2.7,1.9-3.8,0
						c-0.1-0.2-0.2-0.3-0.4-0.7c-0.5,2-0.9,3.9-1.3,5.7c-0.7,2.8-1.5,5.6-3,8.1c-0.6,1-1.2,2-2.6,1.8c-1.3-0.2-1.8-1.3-2.1-2.4
						c-0.7-2.4-0.7-4.9-0.5-7.3c0.1-1.4,0.2-2.8,0.4-4.1c0.2-1.6,0.1-1.7-1.5-1.8c-0.4,1.7-0.7,3.4-1.2,5c-0.9,2.9-2.3,5.4-4.2,7.7
						c-0.3,0.3-0.6,0.6-0.9,0.9c-1.4,1.1-2.9,1-4-0.4c-1.2-1.4-1.6-3.1-1.8-4.9c-0.3-3.2,0.3-6.4,1-9.5c0.3-1.1,0.5-2.3,0.8-3.6
						c-1.7,0.2-3.2,0.3-4.7,0.5c-0.1,1.6-0.1,3.2-0.4,4.8c-0.7,4.2-2.1,8.2-4.5,11.8c-1.4,2-3,3.6-5.7,3c-2.4-0.5-4.1-2.6-4.5-5.5
						c-0.1-0.6-0.1-1.3-0.2-1.9c0-0.7,0.1-1.4-0.6-1.8c-0.2-0.1-0.3-0.7-0.2-0.8c0.2-0.2,0.6-0.2,1-0.3c0.2-0.7,0.5-1.5,0.8-2.3
						c0.5-1.2,1.3-2.1,2.5-2.6c0.9-0.4,1.9-0.5,2.8,0.3c0.8,0.8,0.9,1.7,0.5,2.7c-0.6,1.9-1.9,3.2-3.9,3.8c-0.5,0.2-0.8,0.4-0.7,1
						c0.3,1.3,0.4,2.7,1,3.9c1.3,2.5,3.6,2.8,5.5,0.7c1.8-1.9,2.9-4.2,3.7-6.6c1.2-3.2,1.9-6.5,1.6-10c-1.7-0.3-3.7-0.2-4.1-2.5
						c-0.3-1.6,0.5-2.6,1.9-3.3C111.9,129.3,112.2,129.3,112.5,129.3z M146.9,149.8c-0.3,0-0.4,0-0.5,0.1c-0.3,0.1-0.6,0.2-0.9,0.4
						c-3.4,1.9-5.2,5-6.3,8.6c-0.2,0.8-0.1,1.8,0,2.6c0.2,1,0.9,1.2,1.8,0.8c0.7-0.4,1.3-0.8,1.8-1.3
						C146,157.8,146.4,153.8,146.9,149.8z M102.1,145.1c1.7-0.4,2.9-1.2,3.5-2.7c0.2-0.5,0.5-1.3-0.2-1.6c-0.4-0.2-1.1,0.1-1.5,0.4
						C102.8,142.1,102.4,143.5,102.1,145.1z M113.5,133.9c0.1-0.1,0.1-0.1,0.2-0.2c-0.2-0.7-0.4-1.4-0.7-2c-0.2-0.4-0.6-0.6-1-0.9
						c-0.3,0.4-0.8,0.8-0.8,1.3c0,0.4,0.3,1,0.7,1.3C112.4,133.7,113,133.7,113.5,133.9z M128.6,137.3c0.1-0.1,0.2-0.1,0.3-0.2
						c-0.2-0.5-0.2-1-0.5-1.4c-0.1-0.2-0.6-0.3-0.9-0.4c0,0.4-0.2,0.8-0.1,1.1C127.7,136.7,128.2,137,128.6,137.3z"/>
					<path class="st0" d="M95.2,137.1c-2.6,2.6-4.8,5.4-6.6,8.5c-1.3,2.3-2.4,4.8-3.6,7.2c-0.2,0.4-0.3,0.9-0.6,1.3
						c-0.2,0.3-0.7,0.6-0.9,0.6c-0.3-0.1-0.6-0.6-0.7-0.9c-0.1-1.3-0.1-2.5,0-3.8c0.4-4.1,0.8-8.2,1.2-12.2c0.1-0.7,0.1-1.3,0.1-2.3
						c-0.5,0.5-0.8,0.8-1.1,1.1c-3.3,3.7-5.3,8-6.4,12.7c-1.1,4.6-2,9.2-3,13.8c-0.1,0.3,0,0.7-0.2,1c-0.2,0.3-0.6,0.8-1,0.8
						c-0.3,0-0.8-0.5-0.8-0.8c-0.2-1-0.2-1.9-0.3-2.9c-0.3-7.2-0.5-14.3-0.8-21.5c-0.1-1.7-0.4-3.4-0.7-5c-0.2-1.2-0.7-1.4-1.7-0.7
						c-2.2,1.5-3.3,3.8-4.1,6.2c-0.4,1.2-0.7,2.5-1.1,3.7c-0.1,0.2-0.4,0.4-0.6,0.6c-0.1-0.3-0.3-0.5-0.3-0.8
						c0.5-3.8,1.9-7.2,4.7-10c0.8-0.8,1.8-1.7,3.1-1.3c1.3,0.4,1.6,1.6,1.7,2.7c0.4,2.7,0.8,5.5,1,8.3c0.3,4.3,0.5,8.7,0.7,13
						c0,0.2,0,0.3,0.1,0.7c0.5-2.4,1-4.6,1.5-6.7c1.3-5.2,3-10.2,6.4-14.5c0.6-0.8,1.3-1.6,2.1-2.2c1.3-1,2.8-0.5,2.9,1.1
						c0.1,2.1-0.1,4.3-0.3,6.4c-0.3,3.3-0.8,6.6-1.1,10c0.1-0.3,0.3-0.5,0.4-0.8c2.3-5.6,5.6-10.6,9.4-15.2c0.4-0.5,0.8-0.9,1.3-1.2
						c1-0.6,2-0.1,2,1c0,0.8-0.1,1.7-0.3,2.5c-1.5,5.6-2.5,11.3-2.3,17.2c0.1,3.9,1.3,7.4,3.4,10.7c2.1,3.4,8.3,4.6,11.8,2.5
						c2-1.2,3.1-3.7,2.5-5.6c-0.2-0.8-0.6-1.4-1.5-1.6c-0.9-0.2-1.7,0.1-2.2,0.9c-0.1,0.1-0.2,0.3-0.3,0.4c-0.2,0.1-0.5,0.3-0.8,0.2
						c-0.2-0.1-0.4-0.4-0.5-0.6c-0.1-0.2-0.1-0.5,0-0.6c0.7-1.3,1.9-2.2,3.3-2.4c1.3-0.2,2.2,0.6,2.8,1.6c1,1.9,0.9,3.8,0,5.6
						c-2,4.1-7.2,6.2-11.8,4.8c-4.3-1.3-6.7-4.5-8.3-8.4c-1.5-3.6-1.8-7.5-1.4-11.3c0.4-4.5,1.2-9,2.7-13.3
						C95.2,137.5,95.2,137.3,95.2,137.1z"/>
				</g>
				<g>
					<path class="st0" d="M105.2,196.1c-0.9,4.2-2.2,8.1-4.1,11.7c-0.6,1.2-1.3,2.4-2.2,3.4c-1.5,1.8-3.8,1.6-4.9-0.5
						c-0.7-1.3-0.9-2.9-1.2-4.4c-0.2-1.1-0.1-2.3-0.1-3.5c0-1.2,0.1-2.3,0.1-3.5c-0.1,0.4-0.3,0.8-0.4,1.2c-1.2,3.1-2.3,6.1-3.6,9.1
						c-0.4,1-1.1,2.1-1.9,2.9c-1.7,1.7-4,1.3-4.8-1c-0.5-1.6-0.8-3.3-0.8-4.9c-0.1-4.8,0.5-9.6,1.4-14.3c0-0.1,0-0.2,0.1-0.6
						c-1.1,0.5-2.1,1.1-3.1,1.3c-1.6,0.3-1.8,1.4-2,2.7c-1.2,8.4-3,16.6-7.2,24c-0.4,0.7-0.9,1.5-1.4,2.1c-1.5,1.7-3.4,1.4-4.1-0.8
						c-0.4-1.4-0.8-2.9-0.8-4.4c0-3.6,0.3-7.2,0.4-10.8c0-0.5,0-1,0-1.9c-0.5,0.7-0.9,1.1-1.2,1.6c-2.8,3.9-4.1,8.4-4.7,13.1
						c-0.2,2-0.3,4.1-0.5,6.1c-0.1,1.1-0.4,1.6-1.1,1.6c-0.9,0-1.1-0.7-1.2-1.4c-0.2-3.3-0.6-6.5-0.7-9.8c-0.1-2.9,0-5.9,0-8.9
						c-0.1,0-0.2,0-0.3,0c-0.3,0.8-0.6,1.7-1,2.5c-1.9,4.6-4.4,8.7-8.2,12c-2.1,1.8-4.4,3.1-7.3,3.1c-3.2,0.1-5.6-1.4-7.1-4.1
						c-1.8-3.2-2.2-6.7-1.7-10.3c1-7.1,3.7-13.5,7.4-19.5c0.2-0.3,0.3-0.6,0.6-1c-1.2,0.1-2.3,0.2-3.4,0.2c-0.9,0-1.8-0.1-2.7-0.2
						c-0.2,0-0.4-0.4-0.6-0.6c0.3-0.1,0.5-0.3,0.8-0.3c1.9,0,3.8,0,5.7,0c0.7,0,1.1-0.3,1.5-0.8c3.2-4.8,7.4-8.6,12.1-11.9
						c2.6-1.8,5.4-3.1,8.5-3.5c0.8-0.1,1.7-0.1,2.5,0c1.5,0.3,2.1,1.4,1.2,2.7c-1.2,1.7-2.4,3.3-3.9,4.7c-5.1,4.6-11.1,7.6-17.8,9
						c-0.4,0.1-0.7,0.4-0.9,0.7c-4.3,6.2-7.4,12.9-8.6,20.5c-0.5,3.2-0.1,6.2,1.1,9.2c1.4,3.5,4.9,4.9,8.4,3.6
						c3.2-1.2,5.5-3.5,7.4-6.1c3.8-5.2,6.1-11.1,7.1-17.5c0.8-5.1,2.1-10.1,4.5-14.8c1.3-2.5,2.8-4.8,5.2-6.4c0.8-0.5,1.8-1,2.7-1.1
						c1.4-0.3,2.2,0.5,2.2,1.9c0,1.1-0.1,2.2-0.4,3.2c-1.4,5.3-3.6,10.2-7.5,14.2c-1.2,1.2-2.4,2.3-4,2.9c-0.2,0.1-0.5,0.5-0.5,0.7
						c-0.9,5.4-1,10.8-0.5,16.6c0.3-0.9,0.5-1.6,0.6-2.3c1-3.7,2.9-7,5-10.2c0.2-0.3,0.4-0.6,0.7-0.8c0.9-0.8,2-0.6,2.5,0.5
						c0.3,0.7,0.4,1.5,0.4,2.3c-0.1,3.2-0.3,6.4-0.4,9.5c0,1.5,0.2,3.1,0.4,4.6c0,0.4,0.3,0.8,0.5,1.6c0.7-0.8,1.4-1.4,1.7-2.1
						c1.3-2.7,2.7-5.3,3.7-8.1c1.9-5.2,3-10.7,3.8-16.3c0-0.3,0-0.6,0-1c-0.3-0.1-0.6-0.2-0.9-0.3c-1.8-0.8-2.3-3.1-1.1-4.5
						c1-1.2,2.5-1,3,0.5c0.3,0.8,0.3,1.7,0.5,2.6c1.7-0.2,3.3-0.8,4.8-1.8c0.6-0.4,1.1-0.8,1.8-0.3c0.6,0.5,0.6,1.1,0.4,1.8
						c-1.1,4.9-1.6,9.8-1.5,14.8c0,1.4,0.3,2.9,0.6,4.3c0.2,1.1,1.1,1.4,1.9,0.5c0.7-0.8,1.4-1.7,1.9-2.7c2.1-4.2,3.6-8.6,4.9-13.1
						c0.7-2.6,1.1-5.3,1.7-7.9c0.1-0.3,0.1-0.6,0.2-0.9c0.2-0.6,0.5-1.1,1.2-1c0.8,0.1,0.9,0.7,0.8,1.4c-0.1,1-0.2,2.1-0.4,3.1
						c-0.5,4.2-1,8.3-1.3,12.5c-0.1,2.1,0.3,4.3,0.4,6.4c0,0.3,0.2,0.7,0.3,1c0.5,1,1.3,1.2,2.1,0.4c0.6-0.6,1.2-1.3,1.6-2
						c2.4-4.3,3.9-8.9,5-13.6c0.1-0.4-0.1-0.8-0.2-1.2c-0.5-1.7-0.9-3.3-0.5-5.1c0.1-0.3,0.1-0.7,0.4-1c0.3-0.3,0.8-0.7,1.1-0.6
						c0.3,0,0.8,0.5,0.9,0.9c0.1,1,0,1.9,0.1,2.9c0,0.7,0,1.5,0.2,2.1c0.8,2.1,1.8,4.2,2.7,6.3c1.1,2.5,2.2,5,3.3,7.6
						c0.2-0.1,0.5-0.3,0.8-0.5c1.7-1.1,3.5-2.1,5.2-3.2c0.2-0.1,0.3-0.5,0.3-0.8c0-4.5-0.1-9,0-13.4c0.1-3.8,0.5-7.6,0.8-11.4
						c0-0.6,0.1-1.2,0.1-2c-1.6,0.5-3,1-4.5,1.5c-5.8,1.9-11.7,3.8-17.7,4.9c-4.2,0.7-8.4,1.1-12.6,0.1c-1-0.2-1.9-0.6-2.8-1
						c-2.5-1.2-4.5-3.6-3.7-7.3c0.9-4.2,5.6-7.6,9.7-6.9c2.1,0.4,3.4,2.6,2.6,4.6c-0.1,0.2-0.4,0.4-0.7,0.4c-0.1,0-0.3-0.4-0.5-0.6
						c0,0,0-0.1,0-0.2c-0.2-2.2-0.9-2.8-3.1-2.7c-3.2,0.1-6.3,2.7-6.9,5.6c-0.5,2.5,0.3,4.4,2.6,5.5c2.8,1.4,5.8,1.7,8.9,1.4
						c6.7-0.5,13-2.7,19.3-4.7c3-1,5.9-2,8.9-2.9c0.6-0.2,0.8-0.5,0.9-1.1c0.1-1.6,0.3-3.2,0.5-4.8c0.1-0.5,0.2-1,0.4-1.4
						c0.2-0.3,0.7-0.7,1-0.6c0.3,0.1,0.7,0.6,0.7,0.9c0,1.3-0.2,2.6-0.3,3.9c0,0.6-0.1,1.3-0.1,2.1c1.3-0.4,2.5-0.8,3.6-1.1
						c6.2-1.7,12.3-3.6,18.5-5.1c5.2-1.2,10.5-1.6,15.9-0.7c2.6,0.4,5.1,1.3,7.2,3c3.3,2.5,4.3,7,2.5,10.4c-1.1,2.1-3,3-5.3,2.9
						c-1.5,0-2.8-1.4-2.7-2.9c0-0.6,0.3-1,1-0.9c-0.3,1.4,0.2,2.1,1.7,2.2c2.7,0.1,5.1-3,4.4-5.8c-0.5-2.2-1.7-3.8-3.7-4.9
						c-3.2-1.8-6.6-2.2-10.1-2.2c-6.1,0-12,1.2-17.8,2.9c-4.9,1.4-9.8,3-14.7,4.4c-0.5,0.2-0.8,0.4-0.9,1c-0.6,7.6-1.4,15.3-1.2,23
						c0.1,3.7,0.4,7.4,1.3,11c0.2,0.7,0.4,1.4,0.7,2c0.6,1.2,1.4,1.4,2.3,0.6c0.9-0.8,1.8-1.8,2.3-2.9c1.5-2.8,2.2-5.8,2.7-8.9
						c0.5-3.4,0.9-6.8,1.2-10.2c0.1-0.8,0-1.6-0.1-2.4c0-0.7-0.1-1.5,0.8-1.7c0.7-0.2,1.2,0.4,1.3,1.5c0.3,2.5,0.6,5,1,7.5
						c0.4,2.8,0.8,5.5,1.4,8.4c0.1-0.3,0.2-0.7,0.3-1c1-3.5,2.4-6.8,4.3-9.8c0.2-0.3,0.4-0.6,0.6-1c0.6-0.8,1.2-1.9,2.5-1.5
						c1.2,0.3,1.4,1.5,1.5,2.5c0.1,3.1,0,6.1,0,9.2c0,0.2,0,0.4,0.1,0.7c0.1-0.2,0.3-0.4,0.4-0.7c1.7-3.8,3.9-7.2,6.7-10.4
						c0.5-0.5,1-1.1,1.6-1.5c1-0.6,2.2-0.2,2.3,1c0.1,1.1,0.1,2.2-0.1,3.3c-0.8,4.1-1.7,8.2-2.4,12.3c-0.4,2.3-0.4,4.6,0.1,7
						c0.1,0.3,0.2,0.6,0.3,1.2c0.4-0.5,0.9-0.8,1.1-1.2c2-3.9,4.1-7.7,6-11.7c0.4-0.8,0.3-1.8,0.5-2.8c0.7-2.9,2-5.4,4.8-6.9
						c2.2-1.2,4.5-0.1,5,2.4c0.1,0.3,0,0.6-0.1,0.9c-0.1,0.2-0.3,0.4-0.5,0.6c-0.2-0.2-0.3-0.3-0.5-0.5c-0.1-0.2-0.2-0.5-0.4-0.7
						c-0.8-1.2-1.5-1.4-2.8-0.6c-1.2,0.8-2.2,1.9-2.7,3.2c-1.2,3-1.5,6.2-0.8,9.4c0.1,0.5,0.4,0.9,0.6,1.3c0.4-0.3,1-0.4,1.3-0.8
						c0.9-1.1,1.7-2.2,2.4-3.4c1.7-3.1,3.3-6.3,4.9-9.5c0.4-0.9,0.7-1.9,1-2.8c0.2-0.7,0.4-1.3,1.3-1.2c0.9,0.1,1,0.9,0.9,1.6
						c-0.2,1.6-0.5,3.2-0.7,4.9c-0.5,3.8-0.4,7.6,0.7,11.3c0.2,0.6,0.4,1.3,0.7,1.8c0.4,0.8,0.8,0.9,1.5,0.3
						c0.6-0.5,1.1-1.2,1.5-1.8c2-3.4,2.9-7.1,3.5-11c0-0.3-0.1-0.7-0.3-0.9c-0.8-1.3-1.6-2.6-2.4-3.9c-0.6-1.1-1-2.4-0.8-3.7
						c0.1-0.9,0.6-1.6,1.5-1.8c0.9-0.2,1.6,0.3,2.1,1c0.9,1.5,1.1,3.2,1,4.8c-0.1,1.1,0.3,2,0.9,2.9c1.1,1.4,2.1,2.9,3.1,4.4
						c1.6,2.2,3.1,4.5,4,7.2c1.2-0.8,2.3-1.5,3.4-2.2c0.4-0.3,0.9-0.9,1.4-0.2c0.1,0.1-0.5,0.8-0.9,1.1c-0.9,0.7-1.9,1.4-2.9,2.1
						c-0.6,0.4-0.8,0.8-0.8,1.6c0.2,1.8-0.2,3.4-1.5,4.7c-0.5,0.5-1.2,1-1.8,1.3c-1.2,0.5-2.4-0.3-2.3-1.6c0-0.8,0.3-1.7,0.7-2.5
						c0.4-0.7,1-1.4,1.6-1.8c1.1-0.7,1-1.5,0.6-2.4c-0.6-1.2-1.1-2.5-1.9-3.6c-1.2-1.9-2.6-3.7-4.1-5.8c-0.2,1.2-0.4,2.2-0.6,3.2
						c-0.6,2.9-1.3,5.7-2.7,8.3c-0.4,0.9-1,1.7-1.7,2.4c-1.2,1.2-2.9,1.2-3.8-0.3c-0.8-1.2-1.3-2.6-1.6-4c-0.9-3.6-0.9-7.2-0.5-10.9
						c0-0.3,0.1-0.6-0.1-1c-0.3,0.5-0.6,1.1-0.8,1.6c-1.8,3.4-3.6,6.8-5.4,10.2c-0.3,0.5-0.7,1.1-1.1,1.5c-1.2,1.2-2.7,1.1-3.5-0.4
						c-0.4-0.8-0.6-1.8-0.9-2.8c-0.1-0.3-0.1-0.6-0.2-1.2c-0.3,0.7-0.5,1.1-0.8,1.6c-1.2,2.5-2.4,5.1-3.6,7.6
						c-0.4,0.8-0.9,1.5-1.4,2.2c-1,1.2-2.5,1-3.2-0.4c-0.5-1-0.7-2.1-0.9-3.3c-0.4-3.9,0.3-7.8,1-11.6c0.5-2.5,1.1-5,1.7-7.6
						c0.1-0.4,0.1-0.7,0.2-1.4c-0.4,0.3-0.7,0.5-0.9,0.7c-2.1,1.7-3.7,3.7-4.9,6.1c-1.3,2.5-2.3,5.1-3.4,7.7c-0.2,0.5-0.4,1.1-1.1,1
						c-0.7-0.1-0.9-0.7-0.9-1.3c0-2.4,0.1-4.8,0.1-7.2c0-1.7,0.1-3.5,0.1-5.2c0-0.4-0.1-0.8-0.1-1.2c-0.1,0-0.2-0.1-0.3-0.1
						c-1,1.6-2,3.1-2.9,4.8c-1.5,2.8-2.1,5.9-2.8,9c-0.1,0.4-0.1,0.9-0.3,1.2c-0.3,0.4-0.7,1-1.1,1c-0.4,0-1.1-0.5-1.2-0.9
						c-0.3-0.9-0.5-2-0.6-2.9c-0.5-3.2-0.9-6.4-1.4-9.6c0-0.1-0.1-0.3-0.3-0.4c-0.2,1.7-0.4,3.5-0.7,5.2c-0.5,3.6-1.1,7.1-2.7,10.4
						c-0.6,1.2-1.4,2.3-2.3,3.2c-2,1.9-4.3,1.5-5.4-1c-0.7-1.7-1.1-3.5-1.5-5.3c-0.2-0.7-0.2-1.4-0.4-2.3c-1.5,0.9-2.8,1.9-4.2,2.6
						c-1.6,0.8-2.4,1.8-2.1,3.8c0.2,1.6-0.2,3.3-1.2,4.7c-0.8,1.1-1.8,1.9-3.3,2c-1.2,0-2.1-0.7-2.3-1.9c-0.2-1.1-0.1-2.3,0.6-3.2
						c1-1.3,2.1-2.5,3.2-3.6c0.4-0.4,0.6-0.7,0.4-1.3c-0.9-2.2-1.7-4.4-2.6-6.6C106.8,199.4,106.1,197.9,105.2,196.1z M41.8,187.5
						c0.3,0,0.5,0,0.7-0.1c7.4-1.8,13.8-5.3,18.9-11c0.6-0.6,1-1.4,1.4-2.1c0.4-0.9,0.1-1.3-0.9-1.3c-0.6,0-1.2,0.1-1.8,0.3
						c-3.9,1.2-7.3,3.4-10.5,5.9C46.8,181.7,44.1,184.2,41.8,187.5z M58.6,196.5c0.1,0.1,0.2,0.1,0.4,0.2c0.8-0.6,1.6-1.2,2.3-1.9
						c3.3-3.1,5.6-6.8,7.1-11c0.6-1.5,0.9-3.2,1.1-4.8c0.1-1-0.4-1.4-1.3-0.8c-1.2,0.8-2.3,1.7-3.2,2.8c-2.3,2.7-3.6,6-4.7,9.3
						C59.7,192.3,59.2,194.4,58.6,196.5z M110.5,209.9c-1.5,1.3-2.8,2.4-3.3,4.2c-0.2,0.6,0.3,1.3,0.4,1.9c0.6-0.2,1.1-0.4,1.6-0.7
						c0.3-0.2,0.5-0.5,0.6-0.8C110.6,213.1,110.6,211.6,110.5,209.9z M190.3,210.5c-1.6,0.9-2.4,2.4-1.8,3.4
						C189.6,213.4,190.4,212,190.3,210.5z M183.4,192.7c-0.1-1.5-0.2-2.9-1.6-4.2C181.8,190.4,182.6,191.5,183.4,192.7z"/>
					<path class="st0" d="M95.2,178.1c-0.8,0-1.5-0.6-1.5-1.4c0-0.9,0.8-1.8,1.7-1.8c0.8,0,1.4,0.6,1.4,1.4
						C96.8,177.3,96.1,178.1,95.2,178.1z"/>
				</g>
			</g>
		</g>
	</g>
</g>
<g id="_x31_">
	<polygon class="st5 blured" filter="url(#blur)" points="94,257.6 109.4,244.9 93.1,256.5 94,245 91.8,256.4 79.1,241 90.7,257.2 79.2,256.4 90.5,258.5 
		75.2,271.2 91.4,259.6 90.6,271.2 92.7,259.8 105.4,275.2 93.8,258.9 105.3,259.8 	"/>
	<polygon class="st5 blured" filter="url(#blur)" points="113.2,87.5 122.7,103.6 114.4,86.9 124.9,89.4 114.7,85.7 130.8,76.3 114.1,84.5 116.6,74 112.9,84.2 
		103.5,68.1 111.8,84.8 101.3,82.3 111.4,86 95.4,95.4 112.1,87.1 109.6,97.6 	"/>
	<path class="st5 blured" filter="url(#blur)" d="M96.3,180.5l-21.7-9.1c0.5-0.8,1.2-1.5,2.2-2.2l7.4-3.9c0.2-0.1,0.4-0.2,0.6-0.3c-0.1,0-0.2,0.1-0.3,0.1
		l1.7-0.9l-10.4,4.1c-1,0.2-1.8,0.2-2.5,0.1l7.6-22.2l-9.1,21.6c-0.9-0.6-1.7-1.5-2.5-2.8l-2.7-5c-0.3-0.7-0.7-1.5-1.1-2.3
		c0.2,0.4,0.3,0.8,0.5,1.1l-1.4-2.5l4.2,10.8c0.1,0.8,0.1,1.5,0,2.1l-22.4-7.6l21.7,9.1c-0.5,0.7-1.1,1.4-2.1,2l-7.7,4.1
		c-0.1,0.1-0.2,0.1-0.3,0.2c0.1,0,0.1,0,0.2-0.1l-1.7,0.9l10.6-4.1c0.9-0.2,1.7-0.2,2.4-0.1L62,196l9.1-21.8
		c0.6,0.4,1.2,0.9,1.8,1.7l5.3,9.9l-3.9-10c-0.3-1.1-0.3-2.1-0.2-2.9L96.3,180.5z"/>
	<g class="blured" filter="url(#blur)" >
		<path class="st5" d="M144.3,200.4c7.1,2.5,9.3,1.5,11.8-5.7c-2.5,7.1-1.5,9.3,5.7,11.8c-7.1-2.5-9.3-1.5-11.8,5.7
			C152.5,205.1,151.5,202.9,144.3,200.4z"/>
		<g>
			<polygon class="st5" points="165.9,208 153.2,203 140.3,199 152.9,203.9"/>
			<polyline class="st5" points="157.6,190.7 152.6,203.3 148.6,216.2"/>
			<polyline class="st5" points="148.6,216.2 153.5,203.6 157.6,190.7"/>
		</g>
	</g>
</g>
<g id="_x32_">
	<polygon class="st5 blured" filter="url(#blur)" points="73.4,200 71.6,214.5 74.4,200.2 79.7,206.8 75.2,199.6 89.6,201.5 75.3,198.6 81.9,193.3 74.8,197.9 
		76.6,183.4 73.8,197.7 68.4,191.2 73,198.3 58.5,196.4 72.8,199.3 66.3,204.6 	"/>
	<path class="st5 blured" filter="url(#blur)" d="M199.9,274.2l-21.7-9.1c0.5-0.8,1.2-1.5,2.2-2.2l7.4-3.9c0.2-0.1,0.4-0.2,0.6-0.3c-0.1,0-0.2,0.1-0.3,0.1
		l1.7-0.9l-10.4,4.1c-1,0.2-1.8,0.2-2.5,0.1l7.6-22.2l-9.1,21.6c-0.9-0.6-1.7-1.5-2.5-2.8l-2.7-5c-0.3-0.7-0.7-1.5-1.1-2.3
		c0.2,0.4,0.3,0.8,0.5,1.1l-1.4-2.5l4.2,10.8c0.1,0.8,0.1,1.5,0,2.1l-22.4-7.6l21.7,9.1c-0.5,0.7-1.1,1.4-2.1,2l-7.7,4.1
		c-0.1,0.1-0.2,0.1-0.3,0.2c0.1,0,0.1,0,0.2-0.1l-1.7,0.9l10.6-4.1c0.9-0.2,1.7-0.2,2.4-0.1l-7.6,22.3l9.1-21.8
		c0.6,0.4,1.2,0.9,1.8,1.7l5.3,9.9l-3.9-10c-0.3-1.1-0.3-2.1-0.2-2.9L199.9,274.2z"/>
	<path class="st5 blured" filter="url(#blur)" d="M106.6,123.9l-8.1-16.1c0.7-0.2,1.4-0.3,2.4-0.2l6.3,1.4c0.2,0,0.3,0.1,0.5,0.1c-0.1,0-0.2,0-0.2-0.1l1.4,0.3
		l-8.1-2.8c-0.7-0.4-1.2-0.8-1.5-1.2l15.5-9.2l-16.1,8.1c-0.2-0.8-0.2-1.7-0.1-2.9l1-4.3c0.2-0.6,0.3-1.2,0.5-1.9
		c-0.1,0.3-0.2,0.6-0.3,0.9l0.5-2.2l-2.9,8.4c-0.3,0.5-0.7,0.9-1.1,1.2L87,88l8.2,16.2c-0.6,0.2-1.3,0.2-2.2,0.2l-6.5-1.5
		c-0.1,0-0.2,0-0.3-0.1c0,0,0.1,0,0.1,0l-1.5-0.3l8.2,2.9c0.6,0.3,1.1,0.7,1.4,1.1l-15.6,9.3l16.2-8.2c0.2,0.5,0.2,1.2,0.2,1.9
		l-1.9,8.5l2.7-7.8c0.4-0.8,0.8-1.4,1.3-1.8L106.6,123.9z"/>
	<g class="blured" filter="url(#blur)">
		<path class="st5" d="M139.5,140.6c7.1,2.5,9.3,1.5,11.8-5.7c-2.5,7.1-1.5,9.3,5.7,11.8c-7.1-2.5-9.3-1.5-11.8,5.7
			C147.7,145.3,146.7,143.1,139.5,140.6z"/>
		<g>
			<polygon class="st5" points="161,148.2 148.4,143.3 135.5,139.2 148.1,144.1 			"/>
			<polyline class="st5" points="152.8,130.9 147.8,143.5 143.8,156.5 			"/>
			<polyline class="st5" points="143.8,156.5 148.7,143.9 152.8,130.9 			"/>
		</g>
	</g>
</g>
<g id="_x32__1_">
	<polygon class="st5 blured" filter="url(#blur)" points="116.1,165.7 114.3,180.1 117.1,165.8 122.5,172.4 117.9,165.3 132.4,167.1 118.1,164.3 124.6,158.9 
		117.5,163.5 119.3,149 116.5,163.3 111.2,156.8 115.7,163.9 101.3,162.1 115.6,164.9 109,170.2 	"/>
	<path class="st5 blured" filter="url(#blur)" d="M155.5,126.2l-21.7-9.1c0.5-0.8,1.2-1.5,2.2-2.2l7.4-3.9c0.2-0.1,0.4-0.2,0.6-0.3c-0.1,0-0.2,0.1-0.3,0.1
		l1.7-0.9l-10.4,4.1c-1,0.2-1.8,0.2-2.5,0.1l7.6-22.2l-9.1,21.6c-0.9-0.6-1.7-1.5-2.5-2.8l-2.7-5c-0.3-0.7-0.7-1.5-1.1-2.3
		c0.2,0.4,0.3,0.8,0.5,1.1l-1.4-2.5l4.2,10.8c0.1,0.8,0.1,1.5,0,2.1l-22.4-7.6l21.7,9.1c-0.5,0.7-1.1,1.4-2.1,2l-7.7,4.1
		c-0.1,0.1-0.2,0.1-0.3,0.2c0.1,0,0.1,0,0.2-0.1l-1.7,0.9l10.6-4.1c0.9-0.2,1.7-0.2,2.4-0.1l-7.6,22.3l9.1-21.8
		c0.6,0.4,1.2,0.9,1.8,1.7l5.3,9.9l-3.9-10c-0.3-1.1-0.3-2.1-0.2-2.9L155.5,126.2z"/>
	<path class="st5 blured" filter="url(#blur)" d="M52.5,277.2L44.4,261c0.7-0.2,1.4-0.3,2.4-0.2l6.3,1.4c0.2,0,0.3,0.1,0.5,0.1c-0.1,0-0.2,0-0.2-0.1l1.4,0.3
		l-8.1-2.8c-0.7-0.4-1.2-0.8-1.5-1.2l15.5-9.2l-16.1,8.1c-0.2-0.8-0.2-1.7-0.1-2.9l1-4.3c0.2-0.6,0.3-1.2,0.5-1.9
		c-0.1,0.3-0.2,0.6-0.3,0.9l0.5-2.2l-2.9,8.4c-0.3,0.5-0.7,0.9-1.1,1.2l-9.3-15.6l8.2,16.2c-0.6,0.2-1.3,0.2-2.2,0.2l-6.5-1.5
		c-0.1,0-0.2,0-0.3-0.1c0,0,0.1,0,0.1,0l-1.5-0.3l8.2,2.9c0.6,0.3,1.1,0.7,1.4,1.1l-15.6,9.3l16.2-8.2c0.2,0.5,0.2,1.2,0.2,1.9
		l-1.9,8.5l2.7-7.8c0.4-0.8,0.8-1.4,1.3-1.8L52.5,277.2z"/>
	<g class="blured" filter="url(#blur)">
		<path class="st5"  d="M164.1,224.3c7.1,2.5,9.3,1.5,11.8-5.7c-2.5,7.1-1.5,9.3,5.7,11.8c-7.1-2.5-9.3-1.5-11.8,5.7
			C172.3,229,171.3,226.8,164.1,224.3z"/>
		<g>
			<polygon class="st5" points="185.6,231.9 173,226.9 160.1,222.9 172.7,227.8"/>
			<polyline class="st5" points="177.4,214.6 172.4,227.2 168.4,240.2"/>
			<polyline class="st5" points="168.4,240.2 173.3,227.6 177.4,214.6"/>
		</g>
	</g>
</g>
</svg>
