<svg width="355" height="157" viewBox="0 0 355 157" fill="none" xmlns="http://www.w3.org/2000/svg">
<g clip-path="url(#clip0)">
<path d="M49.9524 79.5315V118.201C49.9524 127.482 58.0176 128.385 72.3269 127.482V156.742C29.7893 160.996 17.3012 148.364 17.3012 118.073V79.4026H0V48.4666H17.4313V28.1004L50.0824 18.433V48.4666H72.3269V79.5315H49.9524Z" fill="black"/>
<path d="M269.795 156.227L249.501 127.74L229.338 156.227H191.874L230.899 101.573L193.175 48.4665H230.509L249.371 75.1487L268.234 48.4665H305.568L268.234 101.444L307.259 156.098L269.795 156.227Z" fill="black"/>
<path d="M315.842 19.593C315.842 14.4651 317.898 9.54715 321.557 5.92114C325.216 2.29513 330.179 0.258057 335.354 0.258057C340.53 0.258057 345.493 2.29513 349.152 5.92114C352.811 9.54715 354.867 14.4651 354.867 19.593C354.867 24.721 352.811 29.6389 349.152 33.2649C345.493 36.8909 340.53 38.928 335.354 38.928C330.179 38.928 325.216 36.8909 321.557 33.2649C317.898 29.6389 315.842 24.721 315.842 19.593ZM319.094 48.4666H351.225V156.098H319.094V48.4666Z" fill="black"/>
<path d="M137.499 48.5952C130.201 47.8919 122.835 48.6583 115.844 50.8484C108.853 53.0385 102.381 56.6071 96.8176 61.3395C91.2541 66.0718 86.7139 71.8703 83.4702 78.3862C80.2265 84.902 78.3462 92.0006 77.9424 99.255C77.5386 106.509 78.6196 113.77 81.1205 120.6C83.6214 127.429 87.4904 133.688 92.4949 138.998C97.4994 144.307 103.536 148.56 110.242 151.498C116.947 154.437 124.184 156.002 131.515 156.098C156.101 156.098 161.435 145.27 161.435 145.27C161.435 145.27 161.435 156.227 175.354 156.098C186.021 156.098 187.712 152.102 187.712 147.075V105.182C187.99 91.2393 182.99 77.6985 173.696 67.2255C164.403 56.7525 151.49 50.1063 137.499 48.5952ZM133.336 125.935C128.628 125.935 124.026 124.552 120.111 121.96C116.196 119.368 113.145 115.684 111.343 111.373C109.541 107.063 109.07 102.32 109.988 97.7446C110.907 93.1688 113.174 88.9657 116.503 85.6668C119.833 82.3678 124.074 80.1212 128.692 79.2111C133.31 78.3009 138.096 78.768 142.446 80.5534C146.796 82.3388 150.514 85.3622 153.13 89.2413C155.746 93.1205 157.142 97.6811 157.142 102.346C157.142 108.603 154.634 114.602 150.169 119.026C145.705 123.45 139.65 125.935 133.336 125.935Z" fill="#E73834"/>
<path d="M80.394 28.6159L87.5487 24.4911C88.1081 26.0383 89.1582 27.3643 90.5417 28.2705C91.9253 29.1768 93.568 29.6145 95.2237 29.5182C99.1262 29.5182 100.167 27.9714 100.167 26.5535C100.167 25.1356 98.0855 23.4599 92.622 21.9131C87.1584 20.3663 81.9551 17.7883 81.9551 10.9567C82.0046 9.44405 82.3591 7.95657 82.9977 6.58181C83.6363 5.20705 84.5461 3.97282 85.6735 2.95181C86.8009 1.9308 88.123 1.14366 89.5621 0.636744C91.0012 0.129827 92.5281 -0.0866126 94.0529 0.000172922C96.783 -0.0452873 99.4674 0.698576 101.778 2.1408C104.088 3.58302 105.924 5.66108 107.061 8.12086L100.297 12.2457C99.8524 10.968 99.006 9.86529 97.882 9.09963C96.7581 8.33398 95.416 7.94574 94.0529 7.99196C91.4512 7.99196 90.1504 9.28096 90.1504 10.6989C90.1504 12.1168 91.061 13.5347 96.6546 15.2104C102.248 16.8861 108.362 18.8195 108.362 26.4246C108.362 34.0297 102.769 37.51 95.3537 37.51C92.2195 37.8692 89.0533 37.1918 86.3478 35.5833C83.6423 33.9748 81.5492 31.5253 80.394 28.6159Z" fill="#E73834"/>
<path d="M156.103 8.63663H146.737V36.7368H138.412V8.63663H128.916V0.773743H156.103V8.63663Z" fill="#E73834"/>
<path d="M197.336 22.9445V36.7368H189.011V22.9445L176.783 0.773743H186.279L193.173 14.6949L200.068 0.773743H209.564L197.336 22.9445Z" fill="#E73834"/>
<path d="M254.183 28.8739V36.8657H232.85V0.773743H241.175V28.8739H254.183Z" fill="#E73834"/>
<path d="M301.013 28.8739V36.8657H278.119V0.773743H300.753V8.63663H286.184V14.566H299.192V22.4289H286.184V28.8739H301.013Z" fill="#E73834"/>
</g>
<defs>
<clipPath id="clip0">
<rect width="355" height="157" fill="white"/>
</clipPath>
</defs>
</svg>
